<svg width="25" height="24" viewBox="0 0 25 24" fill="none" xmlns="http://www.w3.org/2000/svg">
<mask id="path-1-inside-1_251_2045" fill="white">
<path d="M20.0323 11.7494L5.56387 11.7494L10.1607 7.15259C10.261 7.05223 10.261 6.90135 10.1607 6.80098C10.0603 6.70062 9.90943 6.70062 9.80906 6.80098L4.78532 11.8247C4.76028 11.8498 4.73502 11.875 4.73502 11.9C4.70999 11.9503 4.70999 12.0257 4.73502 12.101C4.76005 12.126 4.76005 12.1513 4.78532 12.1763L9.80906 17.2001C9.85912 17.2501 9.90942 17.2754 9.98475 17.2754C10.0601 17.2754 10.1104 17.2504 10.1607 17.2001C10.261 17.0997 10.261 16.9488 10.1607 16.8484L5.56386 12.2516L20.0326 12.2516C20.1832 12.2516 20.2838 12.1513 20.2838 12.0004C20.2838 11.8497 20.1832 11.7492 20.0326 11.7492L20.0323 11.7494Z"/>
</mask>
<path d="M20.0323 11.7494L5.56387 11.7494L10.1607 7.15259C10.261 7.05223 10.261 6.90135 10.1607 6.80098C10.0603 6.70062 9.90943 6.70062 9.80906 6.80098L4.78532 11.8247C4.76028 11.8498 4.73502 11.875 4.73502 11.9C4.70999 11.9503 4.70999 12.0257 4.73502 12.101C4.76005 12.126 4.76005 12.1513 4.78532 12.1763L9.80906 17.2001C9.85912 17.2501 9.90942 17.2754 9.98475 17.2754C10.0601 17.2754 10.1104 17.2504 10.1607 17.2001C10.261 17.0997 10.261 16.9488 10.1607 16.8484L5.56386 12.2516L20.0326 12.2516C20.1832 12.2516 20.2838 12.1513 20.2838 12.0004C20.2838 11.8497 20.1832 11.7492 20.0326 11.7492L20.0323 11.7494Z" fill="#333333"/>
<path d="M20.0323 11.7494L20.0323 12.7494L20.4016 12.7494L20.6823 12.5093L20.0323 11.7494ZM5.56387 11.7494L4.85676 11.0423L3.14966 12.7494L5.56387 12.7494L5.56387 11.7494ZM10.1607 7.15259L10.8678 7.8597L10.1607 7.15259ZM10.1607 6.80098L10.8678 6.09391L10.8678 6.09387L10.1607 6.80098ZM9.80906 6.80098L9.10199 6.09383L9.10195 6.09387L9.80906 6.80098ZM4.78532 11.8247L4.07821 11.1176L4.78532 11.8247ZM4.73502 11.9L5.63027 12.3456L5.73502 12.1351L5.73502 11.9L4.73502 11.9ZM4.73502 12.101L3.78605 12.4164L3.86065 12.6408L4.02791 12.8081L4.73502 12.101ZM4.78532 12.1763L5.49243 11.4692L5.48915 11.466L4.78532 12.1763ZM9.80906 17.2001L10.5162 16.493L10.5162 16.493L9.80906 17.2001ZM10.1607 17.2001L9.45356 16.493L9.45355 16.493L10.1607 17.2001ZM10.1607 16.8484L10.8678 16.1414L10.8678 16.1413L10.1607 16.8484ZM5.56386 12.2516L5.56386 11.2516L3.14964 11.2516L4.85675 12.9587L5.56386 12.2516ZM20.0326 11.7492L20.0326 10.7492L19.6632 10.7492L19.3826 10.9892L20.0326 11.7492ZM20.0323 10.7494L5.56387 10.7494L5.56387 12.7494L20.0323 12.7494L20.0323 10.7494ZM6.27098 12.4565L10.8678 7.8597L9.45357 6.44549L4.85676 11.0423L6.27098 12.4565ZM10.8678 7.8597C11.3587 7.36879 11.3586 6.58478 10.8678 6.09391L9.45353 7.50804C9.32179 7.37629 9.23595 7.18698 9.23595 6.97679C9.23595 6.76659 9.3218 6.57726 9.45357 6.44549L10.8678 7.8597ZM10.8678 6.09387C10.3769 5.60296 9.59286 5.60302 9.10199 6.09383L10.5161 7.50812C10.3844 7.63986 10.1951 7.72571 9.98487 7.72571C9.77467 7.72571 9.58534 7.63985 9.45357 7.50808L10.8678 6.09387ZM9.10195 6.09387L4.07821 11.1176L5.49242 12.5318L10.5162 7.50808L9.10195 6.09387ZM4.07821 11.1176C4.0741 11.1217 4.05623 11.1395 4.03744 11.1595C4.01831 11.1799 3.98604 11.2154 3.95123 11.2618C3.89986 11.3302 3.73502 11.5597 3.73502 11.9L5.73502 11.9C5.73502 12.0639 5.69351 12.1956 5.65486 12.2836C5.61713 12.3694 5.57482 12.4304 5.55033 12.463C5.50904 12.5179 5.46698 12.5573 5.49242 12.5318L4.07821 11.1176ZM3.83978 11.4545C3.6556 11.8245 3.71245 12.1949 3.78605 12.4164L5.68399 11.7856C5.70193 11.8396 5.71625 11.9084 5.71625 11.9911C5.71625 12.0686 5.70342 12.1986 5.63027 12.3456L3.83978 11.4545ZM4.02791 12.8081C3.97209 12.7523 3.93089 12.6963 3.9013 12.6489C3.88751 12.6267 3.87754 12.6085 3.8718 12.5977C3.86688 12.5884 3.86304 12.5806 3.86566 12.5859C3.86654 12.5876 3.87364 12.602 3.88227 12.6182C3.89165 12.6358 3.90544 12.6606 3.92348 12.6894C3.9616 12.7501 4.01277 12.8186 4.08148 12.8867L5.48915 11.466C5.51621 11.4928 5.54075 11.5205 5.56285 11.5486C5.58487 11.5766 5.60281 11.6028 5.61716 11.6257C5.63126 11.6481 5.6415 11.6667 5.64753 11.678C5.65281 11.6879 5.65678 11.696 5.6545 11.6914C5.65398 11.6904 5.647 11.6763 5.63875 11.6607C5.62968 11.6436 5.61618 11.6192 5.59848 11.5908C5.58052 11.5619 5.55855 11.5296 5.5319 11.4954C5.50516 11.4612 5.47534 11.4271 5.44213 11.3939L4.02791 12.8081ZM4.07821 12.8834L9.10195 17.9072L10.5162 16.493L5.49242 11.4692L4.07821 12.8834ZM9.10195 17.9072C9.3121 18.1173 9.60775 18.2754 9.98475 18.2754L9.98475 16.2754C10.0645 16.2754 10.1751 16.29 10.2941 16.3429C10.4087 16.3939 10.4822 16.459 10.5162 16.493L9.10195 17.9072ZM9.98475 18.2754C10.1387 18.2754 10.3119 18.2486 10.4876 18.1707C10.6592 18.0946 10.7833 17.9917 10.8678 17.9072L9.45355 16.493C9.48776 16.4587 9.56157 16.3935 9.67656 16.3425C9.79577 16.2896 9.90613 16.2754 9.98475 16.2754L9.98475 18.2754ZM10.8678 17.9072C11.3587 17.4163 11.3586 16.6322 10.8678 16.1414L9.45352 17.5555C9.32178 17.4238 9.23593 17.2345 9.23593 17.0243C9.23593 16.8141 9.32179 16.6247 9.45356 16.493L10.8678 17.9072ZM10.8678 16.1413L6.27096 11.5445L4.85675 12.9587L9.45356 17.5556L10.8678 16.1413ZM5.56386 13.2516L20.0326 13.2516L20.0326 11.2516L5.56386 11.2516L5.56386 13.2516ZM20.0326 13.2516C20.3349 13.2516 20.6647 13.1466 20.9216 12.8899C21.1785 12.6332 21.2838 12.3032 21.2838 12.0004L19.2838 12.0004C19.2838 11.8485 19.3388 11.6441 19.5078 11.4753C19.6767 11.3065 19.8809 11.2516 20.0326 11.2516L20.0326 13.2516ZM21.2838 12.0004C21.2838 11.6974 21.1783 11.3677 20.9218 11.1112C20.6653 10.8547 20.3355 10.7492 20.0326 10.7492L20.0326 12.7492C19.8803 12.7492 19.6761 12.694 19.5076 12.5254C19.339 12.3568 19.2838 12.1527 19.2838 12.0004L21.2838 12.0004ZM19.3826 10.9892L19.3823 10.9895L20.6823 12.5093L20.6826 12.5091L19.3826 10.9892Z" fill="#333333" mask="url(#path-1-inside-1_251_2045)"/>
</svg>
