<svg width="251" height="34" viewBox="0 0 251 34" fill="none" xmlns="http://www.w3.org/2000/svg">
<path d="M157.426 9.53235C155.375 9.53235 153.754 9.95931 152.687 11.0267L151.448 12.2654H151.078H149.906C148.746 10.4424 146.707 9.53235 143.76 9.53235C141.71 9.53235 140.089 9.95931 139.022 11.0267L137.783 12.2654H136.544L135.949 9.95931H131.676V32.4194H137.443V18.6698C137.443 16.0238 138.811 14.6558 141.541 14.6558C144.103 14.6558 145.3 15.8945 145.3 18.6698V32.4194H151.064V18.5855L151.108 18.636C151.12 16.0097 152.485 14.6558 155.207 14.6558C157.768 14.6558 158.965 15.8945 158.965 18.6698V32.4194H164.729V17.1333C164.729 12.0519 162.339 9.53235 157.426 9.53235ZM194.385 27.5515H200.579V14.7822H195.113V9.95931H204.719L205.276 12.2654H206.557L207.795 11.0267C208.82 9.95931 210.444 9.53235 212.534 9.53235H216.166V14.6979H210.486C207.753 14.6979 206.343 16.0209 206.343 18.4563V27.5515H213.517V32.4194H194.388V27.5515H194.385ZM178.448 28.5347C181.394 28.5347 183.06 26.9982 183.06 24.3072V22.8972H178.661C176.229 22.8972 174.99 23.9224 174.99 25.8016C174.987 27.4673 175.97 28.5347 178.448 28.5347ZM169.139 26.3549C169.139 21.9141 172.085 19.5658 177.209 19.5658H183.06V17.9001C183.06 15.1249 181.821 13.9704 179.259 13.9704C177.083 13.9704 175.543 14.8243 175.375 16.917H170.164C170.336 12.2626 173.58 9.52954 179.729 9.52954C185.877 9.52954 188.824 12.1755 188.824 17.6417V32.4166H184.383L183.827 30.1105H182.588L181.349 31.3492C180.324 32.3745 178.703 32.8435 176.524 32.8435C171.701 32.8464 169.139 30.5402 169.139 26.3549ZM113.857 22.9814H111.337V32.4166H105.573V0.819092H111.337V17.8552H113.941L119.834 9.9565H126.41L118.767 20.4197L126.665 32.4166H119.876L113.857 22.9814ZM78.8997 21.1894C78.8997 13.2879 82.5709 9.53235 89.5735 9.53235C95.9779 9.53235 99.3514 12.6924 99.5227 18.5405H93.9274C93.6718 15.6811 92.2196 14.4002 89.5707 14.4002C86.2815 14.4002 84.8321 16.3664 84.8321 21.1894C84.8321 26.0123 86.2843 27.9785 89.5707 27.9785C92.2617 27.9785 93.756 26.6976 93.9695 23.5797H99.6491C99.4778 29.6414 96.0172 32.8464 89.5707 32.8464C82.5709 32.8464 78.8997 29.0459 78.8997 21.1894ZM68.4477 18.5405C68.3606 15.4676 66.8663 13.8019 63.8776 13.8019C61.0181 13.8019 59.4367 15.2962 58.9255 18.5405H68.4477ZM53.1166 21.1894C53.1166 13.2879 56.8328 9.53235 63.8776 9.53235C71.1808 9.53235 74.5543 13.462 73.7425 22.1725H58.7963C59.0097 26.6134 60.5912 28.4925 63.9197 28.4925C66.3522 28.4925 67.9758 27.5094 68.3606 25.5038H73.6554C73.1442 30.1582 69.5993 32.8492 63.7484 32.8492C56.7907 32.8464 53.1166 29.0459 53.1166 21.1894ZM27.9628 0.819092H33.7267V8.29362L33.2155 11.9649L34.412 12.2626L35.6508 11.0239C36.7182 9.9565 38.2125 9.52954 40.2181 9.52954C45.0438 9.52954 47.3499 12.0491 47.3499 17.1305V32.4166H41.586V18.6669C41.586 15.8917 40.3894 14.653 37.8277 14.653C35.0946 14.653 33.7267 16.0209 33.7267 18.6669V32.4166H27.9628V0.819092ZM0.5 17.6866C0.5 6.96781 3.95778 2.2713 11.8593 2.2713C18.949 2.2713 22.3618 6.1139 22.6623 14.1418H16.8114C16.5979 9.70088 15.0614 7.65038 11.8593 7.65038C8.10093 7.65038 6.60658 10.4256 6.60658 17.6838C6.60658 25.1555 8.01385 27.7173 11.8593 27.7173C15.1485 27.7173 16.6428 25.8802 16.8985 21.1416H22.8337C22.491 29.2537 18.949 33.0992 11.8593 33.0992C3.95778 33.102 0.5 28.4055 0.5 17.6866Z" fill="#1B2C7F"/>
<path d="M245.597 3.78019L232.76 17.6675C232.496 17.9315 232.013 17.9343 231.766 17.6956L225.171 10.0497L225.137 10.0132C224.57 9.44296 223.786 9.1396 222.983 9.17611C222.176 9.21263 221.415 9.59183 220.898 10.2182C220.435 10.7772 220.213 11.4935 220.272 12.2322C220.328 12.9457 220.637 13.617 221.165 14.1423L228.747 20.673C228.879 20.8078 228.952 20.9876 228.952 21.1758C228.952 21.364 228.879 21.5438 228.769 21.6589L221.188 28.1869L221.154 28.2206C220.606 28.7683 220.289 29.5267 220.278 30.3076C220.266 31.125 220.581 31.875 221.16 32.4143C221.429 32.6643 221.738 32.8581 222.081 32.9901C222.755 33.2485 223.522 33.2429 224.19 32.9733C224.547 32.83 224.865 32.6165 225.157 32.3244L231.749 24.6813C232.019 24.4201 232.488 24.4201 232.735 24.6589L239.333 32.3075L239.367 32.3412C239.64 32.6137 239.96 32.8272 240.316 32.9704C240.659 33.1109 241.022 33.1811 241.395 33.1811C241.749 33.1811 242.097 33.1165 242.429 32.9901C242.771 32.8581 243.08 32.6643 243.347 32.4143C243.929 31.875 244.241 31.125 244.229 30.3076C244.218 29.5295 243.898 28.7683 243.333 28.2037L235.76 21.6814C235.628 21.5466 235.555 21.3668 235.555 21.1786C235.555 20.9876 235.628 20.805 235.744 20.6899L249.617 7.86997C250.125 7.36155 250.434 6.69022 250.49 5.97676C250.549 5.2352 250.327 4.52174 249.864 3.95996C249.347 3.33357 248.586 2.95436 247.78 2.91785C247.735 2.91504 247.693 2.91504 247.648 2.91504C246.889 2.91785 246.153 3.22402 245.597 3.78019Z" fill="#4096D2"/>
<path d="M250.486 5.98042C250.545 5.23887 250.323 4.5254 249.859 3.96362C249.342 3.33723 248.581 2.95803 247.775 2.92151C247.73 2.9187 247.688 2.9187 247.643 2.9187C246.89 2.9187 246.151 3.22487 245.595 3.78104L232.759 17.6683C232.494 17.9324 232.011 17.9352 231.764 17.6964L225.169 10.0505L225.135 10.014C224.568 9.44382 223.784 9.14045 222.981 9.17697C222.175 9.21348 221.413 9.59269 220.896 10.2191C220.433 10.778 220.211 11.4943 220.27 12.2331C220.326 12.9465 220.635 13.6179 221.163 14.1431L226.955 19.1318L229.155 21.025C230.986 22.6036 233.714 22.5558 235.489 20.9154L237.191 19.3452L249.609 7.87082C250.118 7.36241 250.429 6.69108 250.486 5.98042Z" fill="#F05680"/>
</svg>
