<svg width="162" height="63" viewBox="0 0 162 63" fill="none" xmlns="http://www.w3.org/2000/svg">
<g clip-path="url(#clip0_409_4230)">
<path d="M161.929 48.257H0.928955V47.6038H161.929V48.257Z" fill="black"/>
<path d="M67.7034 56.856C67.7034 56.856 67.6446 56.9629 67.5504 57.1054L66.8915 58.02C64.9618 60.7162 63.5381 62.0702 62.6203 62.0702C62.1379 62.0702 61.7378 61.892 61.4319 61.5238C61.126 61.1675 60.973 60.6924 60.973 60.1342C60.973 59.5759 61.1613 58.9346 61.5613 58.2575C61.6319 58.1388 62.0085 57.5805 62.6791 56.5947C63.5381 55.3595 63.9735 54.5399 63.9735 54.1598C63.9735 53.7323 63.7617 53.5303 63.3381 53.5303C61.9849 53.5303 59.6669 56.3334 56.3841 61.9277C56.1841 61.8802 55.9017 61.8683 55.5369 61.8683C55.1133 61.8683 54.7603 61.892 54.4662 61.9277L56.643 58.4357C58.0667 56.1434 58.7727 54.7418 58.7727 54.2192C58.7727 53.756 58.5844 53.5185 58.2079 53.5185C57.6431 53.5185 56.7253 54.338 55.4428 55.9652C54.1603 57.5924 52.8895 59.5759 51.6305 61.9158C51.3951 61.8683 51.0892 61.8564 50.7245 61.8564C50.3244 61.8564 49.9832 61.8802 49.6772 61.9158L51.8776 58.4238C53.3954 56.0246 54.1485 54.5399 54.1485 53.9698C54.1485 53.661 54.0308 53.5066 53.7955 53.5066C53.2895 53.5066 52.2541 54.6112 50.6774 56.8323C50.5715 56.9748 50.4891 57.0461 50.4303 57.0461C50.395 57.0461 50.3715 57.0104 50.3715 56.951C50.3715 56.856 50.8421 56.2146 51.7834 55.015C52.7012 53.851 53.419 53.269 53.9249 53.269C54.2544 53.269 54.5368 53.4234 54.7721 53.7441C55.0074 54.0648 55.1251 54.433 55.1251 54.8725C55.1251 55.4782 54.8192 56.3097 54.2191 57.3667C56.0664 54.6349 57.4313 53.2809 58.3373 53.2809C58.7727 53.2809 59.1257 53.4591 59.3963 53.8035C59.6787 54.1598 59.8081 54.5993 59.8081 55.1219C59.8081 55.7039 59.5375 56.4522 58.9963 57.3667C60.9377 54.6349 62.3968 53.2809 63.3734 53.2809C63.8087 53.2809 64.1852 53.471 64.4794 53.851C64.7853 54.2311 64.9383 54.6943 64.9383 55.2526C64.9383 55.8939 64.6912 56.6422 64.1852 57.4974C64.1852 57.4974 63.7381 58.1744 62.8674 59.4809C62.3615 60.2292 62.1144 60.7993 62.1144 61.1913C62.1144 61.6188 62.3262 61.8208 62.7497 61.8208C63.5499 61.8208 64.8677 60.5143 66.715 57.9131L67.1975 57.248L67.4798 56.9035C67.5269 56.7966 67.5857 56.7491 67.6328 56.7491C67.6916 56.7491 67.7269 56.7847 67.7269 56.8441L67.7034 56.856Z" fill="black"/>
<path d="M76.8225 56.8442C76.8225 57.0104 76.5166 57.3905 75.9165 58.0081C75.0104 58.9108 74.1868 59.374 73.422 59.374C73.1043 59.374 72.8219 59.3146 72.5748 59.184C71.2217 61.12 69.9509 62.0821 68.7625 62.0821C68.1506 62.0821 67.6211 61.8208 67.1858 61.3101C66.7504 60.7993 66.5269 60.1817 66.5269 59.4691C66.5269 57.8775 67.5623 56.3453 69.6332 54.8725C71.0805 53.8273 72.2806 53.3047 73.222 53.3047C74.1044 53.3047 74.5398 53.7798 74.5398 54.73C74.5398 55.9177 73.9162 57.343 72.6807 59.0177C72.8807 59.1365 73.1161 59.2078 73.3749 59.2078C73.8338 59.2078 74.3751 58.994 74.9869 58.5545C75.5988 58.1269 76.1047 57.6043 76.493 56.9986C76.6107 56.856 76.693 56.7848 76.7401 56.7848C76.7872 56.7848 76.7989 56.8085 76.7989 56.8442H76.8225ZM74.328 54.7656C74.328 53.9342 73.9515 53.5066 73.2102 53.5066C72.2806 53.5066 71.1393 54.4093 69.7979 56.2028C68.4565 57.9963 67.7859 59.5166 67.7859 60.7399C67.7859 61.4526 68.1271 61.8089 68.7978 61.8089C69.9038 61.8089 71.104 60.8943 72.4218 59.0533C72.1277 58.7208 71.9747 58.3882 71.9747 58.0319C71.9747 57.5212 72.1747 57.0104 72.5748 56.4641C72.9749 55.9296 73.3631 55.6564 73.7397 55.6564C73.9044 55.6564 74.0221 55.7633 74.0809 55.9652C74.2456 55.6089 74.328 55.1932 74.328 54.7537V54.7656Z" fill="black"/>
<path d="M82.035 50.8461C82.035 51.2618 81.3996 52.0813 80.1171 53.3047C80.0582 53.6254 80.0229 53.8986 80.0229 54.1361C80.0229 54.7419 80.2936 55.6802 80.8348 56.9867C81.1055 57.64 81.2466 58.1863 81.2466 58.6258C81.2466 59.5522 80.7995 60.3599 79.9053 61.0488C79.011 61.7258 77.9521 62.0702 76.7166 62.0702C76.0224 62.0702 75.4693 61.8683 75.0457 61.4764C74.6339 61.0725 74.4221 60.5499 74.4221 59.8729C74.4221 59.1009 74.6927 58.3407 75.2458 57.6043C75.7988 56.8679 76.3636 56.4997 76.9401 56.4997C77.046 56.4997 77.1284 56.5235 77.2225 56.5591L78.4462 55.0388C78.811 54.5993 79.3052 53.9817 79.917 53.1978C80.0935 52.4733 80.3642 51.8557 80.7172 51.3331C81.0701 50.8105 81.4231 50.561 81.7761 50.561C81.9409 50.561 82.0232 50.6561 82.0232 50.8342L82.035 50.8461ZM79.9053 56.963C79.9053 56.6541 79.9053 56.3453 79.87 56.0365C79.8464 55.7277 79.8347 55.3001 79.8347 54.73C79.8347 54.2668 79.8582 53.8748 79.8935 53.566C79.317 54.3024 78.4933 55.3358 77.4108 56.666C77.5991 56.8323 77.705 57.0342 77.705 57.2718C77.705 57.8775 77.2108 58.2932 76.2106 58.507C75.8106 58.602 75.4693 58.8158 75.1752 59.1603C74.881 59.5047 74.7398 59.8729 74.7398 60.253C74.7398 60.6687 74.8928 61.0131 75.1869 61.2863C75.4811 61.5595 75.8576 61.702 76.293 61.702C77.1519 61.702 77.9638 61.2032 78.7404 60.1936C79.517 59.184 79.9053 58.1032 79.9053 56.9511V56.963Z" fill="black"/>
<path d="M90.5891 56.856C90.5891 56.9867 89.8714 57.8656 88.4241 59.4572C86.8474 61.2032 85.506 62.0702 84.4 62.0702C83.6822 62.0702 83.0704 61.797 82.5527 61.2388C82.0349 60.6805 81.7878 60.0273 81.7878 59.2671C81.7878 58.4001 82.1408 57.4974 82.8351 56.571C83.5293 55.6445 84.4706 54.8369 85.6472 54.1717C86.6356 53.5897 87.4475 53.3047 88.0711 53.3047C88.8242 53.3047 89.2125 53.756 89.2125 54.6706C89.2125 55.3832 88.9771 56.0959 88.4947 56.8085C88.0123 57.5212 87.5416 57.8775 87.071 57.8775C86.6003 57.8775 86.3767 57.6399 86.3767 57.1767C86.3767 56.6304 86.8474 56.1196 87.7887 55.6564C88.5182 55.2882 88.883 54.825 88.883 54.2311C88.883 53.7679 88.6359 53.5304 88.1299 53.5304C87.2828 53.5304 86.2355 54.3855 85.0001 56.084C83.7646 57.7943 83.141 59.2196 83.141 60.3717C83.141 61.3457 83.5881 61.8327 84.4941 61.8327C85.9061 61.8327 87.824 60.2292 90.2361 57.0104C90.3656 56.8441 90.4715 56.761 90.5303 56.761C90.5774 56.761 90.5891 56.7966 90.5891 56.856Z" fill="black"/>
<path d="M99.6728 56.8442C99.6728 57.0104 99.3669 57.3905 98.7668 58.0081C97.8608 58.9108 97.0371 59.374 96.2723 59.374C95.9546 59.374 95.6722 59.3146 95.4251 59.184C94.072 61.12 92.8012 62.0821 91.6128 62.0821C91.001 62.0821 90.4715 61.8208 90.0361 61.3101C89.6008 60.7993 89.3772 60.1817 89.3772 59.4691C89.3772 57.8775 90.4126 56.3453 92.4835 54.8725C93.9426 53.8273 95.131 53.3047 96.0723 53.3047C96.9548 53.3047 97.3901 53.7798 97.3901 54.73C97.3901 55.9177 96.7665 57.343 95.531 59.0177C95.7311 59.1365 95.9664 59.2078 96.2253 59.2078C96.6841 59.2078 97.2254 58.994 97.8373 58.5545C98.4491 58.1269 98.9551 57.6043 99.3434 56.9986C99.461 56.856 99.5434 56.7848 99.5905 56.7848C99.6375 56.7848 99.6493 56.8085 99.6493 56.8442H99.6728ZM97.1783 54.7656C97.1783 53.9342 96.8018 53.5066 96.0605 53.5066C95.131 53.5066 93.9896 54.4093 92.6483 56.2028C91.3069 57.9963 90.6362 59.5166 90.6362 60.7399C90.6362 61.4526 90.9774 61.8089 91.6481 61.8089C92.7542 61.8089 93.9543 60.8943 95.2722 59.0533C94.978 58.7208 94.8251 58.3882 94.8251 58.0319C94.8251 57.5212 95.0251 57.0104 95.4251 56.4641C95.8252 55.9296 96.2135 55.6564 96.59 55.6564C96.7548 55.6564 96.8606 55.7633 96.9312 55.9652C97.096 55.6089 97.1783 55.1932 97.1783 54.7537V54.7656Z" fill="black"/>
<path d="M113.051 56.8205C113.051 56.9392 112.722 57.3312 112.063 58.0201C111.18 58.9584 110.404 59.4335 109.745 59.4335C109.298 59.4335 108.91 59.1841 108.604 58.6852C107.698 59.9561 106.945 60.835 106.38 61.3339C105.803 61.8209 105.227 62.0703 104.65 62.0703C104.132 62.0703 103.697 61.8921 103.344 61.5358C102.991 61.1795 102.826 60.74 102.826 60.2293C102.826 59.7898 102.967 59.2791 103.238 58.6615C101.708 60.9301 100.497 62.0703 99.6141 62.0703C99.1787 62.0703 98.8022 61.8921 98.4962 61.5239C98.1903 61.1676 98.0374 60.7281 98.0374 60.2174C98.0374 59.6235 98.3433 58.8159 98.9434 57.7707L101.497 53.4117C101.909 53.4829 102.203 53.5186 102.403 53.5186C102.579 53.5186 102.909 53.4829 103.415 53.4117L99.9317 59.1603C99.3787 60.063 99.0963 60.7163 99.0963 61.132C99.0963 61.5952 99.3081 61.8327 99.7317 61.8327C100.191 61.8327 100.885 61.322 101.791 60.2768C102.709 59.2435 103.615 57.9488 104.521 56.4048L106.239 53.4117C106.792 53.4592 107.145 53.4829 107.286 53.4829C107.651 53.4829 107.933 53.4592 108.156 53.4117L104.944 58.6496C104.238 59.8136 103.885 60.6212 103.885 61.0726C103.885 61.5833 104.144 61.8327 104.674 61.8327C105.721 61.8327 106.992 60.7281 108.486 58.4952C108.427 58.1151 108.392 57.83 108.392 57.64C108.392 56.7255 108.674 55.7634 109.239 54.7657C109.804 53.7799 110.357 53.281 110.886 53.281C111.122 53.281 111.239 53.4354 111.239 53.7561C111.239 54.6232 110.404 56.2147 108.721 58.5189C108.98 58.9822 109.31 59.2197 109.733 59.2197C110.498 59.2197 111.439 58.5189 112.557 57.1174C112.757 56.868 112.898 56.7492 112.969 56.7492C113.004 56.7492 113.016 56.773 113.028 56.8086L113.051 56.8205Z" fill="black"/>
<path d="M42.582 59.7185C41.6878 59.7185 40.9583 58.9821 40.9583 58.0675C40.9583 57.153 41.6878 56.4285 42.582 56.4285C43.4763 56.4285 44.2176 57.1649 44.2176 58.0675C44.2176 58.9702 43.488 59.7185 42.582 59.7185ZM42.582 57.0817C42.0408 57.0817 41.6054 57.5212 41.6054 58.0675C41.6054 58.6139 42.0408 59.0534 42.582 59.0534C43.1233 59.0534 43.5586 58.6139 43.5586 58.0675C43.5586 57.5212 43.1233 57.0817 42.582 57.0817Z" fill="black"/>
<path d="M120.264 59.7185C119.37 59.7185 118.64 58.9821 118.64 58.0675C118.64 57.153 119.37 56.4285 120.264 56.4285C121.158 56.4285 121.899 57.1649 121.899 58.0675C121.899 58.9702 121.17 59.7185 120.264 59.7185ZM120.264 57.0817C119.723 57.0817 119.287 57.5212 119.287 58.0675C119.287 58.6139 119.723 59.0534 120.264 59.0534C120.805 59.0534 121.241 58.6139 121.241 58.0675C121.241 57.5212 120.805 57.0817 120.264 57.0817Z" fill="black"/>
<path d="M56.137 19.7274H58.3844V20.2976H50.1714V19.7274H52.7247V0.794883H50.3126V0.212891H58.8079V0.783006H56.137V9.90484L62.8791 0.783006H61.1142V0.212891H65.856V0.783006H63.5498L58.655 7.46998L65.5972 19.7274H67.1268V20.2976H59.6198V19.7274H61.6084L56.1252 9.97611V19.7274H56.137Z" fill="black"/>
<path d="M75.5279 0.0703125L80.1874 19.7274H82.5172V20.2975H73.8218V19.7274H76.5751L74.8925 12.3872H70.5978L68.974 19.7274H71.3862V20.2975H66.103V19.7274H68.3151L72.4098 1.59062L72.0686 0.0703125H75.5044L75.5279 0.0703125ZM70.7272 11.8408H74.7867L72.7158 2.77836L70.7272 11.8408Z" fill="black"/>
<path d="M82.4701 7.70753V9.63166H82.0701V0.212891H94.8602V9.63166H94.4601V7.70753C94.4601 3.69297 92.5892 0.676109 90.1654 0.676109V19.7274H93.2952V20.2976H83.635V19.7274H86.7649V0.676109C84.341 0.676109 82.4701 3.69297 82.4701 7.70753Z" fill="black"/>
<path d="M104.815 19.7275H106.721V10.0593H105.532C103.803 10.0593 102.72 10.9263 102.72 12.7317V17.352C102.72 19.68 100.567 20.7133 98.4255 20.7133C97.1195 20.7133 96.5194 20.2857 96.3782 19.0505L96.8371 18.9673C96.9783 20.0838 97.6254 20.2263 98.1784 20.2263C98.7315 20.2263 99.2845 20.0007 99.2845 17.8509V14.9528C99.2845 12.5417 101.214 10.2731 104.085 9.90489C101.638 9.67922 99.6728 8.20643 99.6728 5.62903C99.6728 2.30336 101.979 0.11792 105.215 0.11792C106.156 0.11792 108.227 0.236694 108.745 0.236694H112.557V0.806809H110.145V19.7513H112.698V20.3214H104.826V19.7513L104.815 19.7275ZM106.721 0.557384C106.415 0.533629 106.074 0.533629 105.497 0.533629C103.85 0.533629 103.085 1.2819 103.085 3.51485V6.41294C103.085 9.51294 103.885 9.53669 105.474 9.53669H106.721V0.557384Z" fill="black"/>
<path d="M24.5913 33.1132C24.5913 36.5814 23.7088 43.1615 18.2845 43.1615H10.554V42.5914H13.119V23.647H10.7069V23.0768H14.9428C16.1901 23.0768 16.849 22.8987 18.0727 22.8987C23.6147 22.8987 24.6148 30.5952 24.6148 33.1132H24.5913ZM16.5195 23.5519V42.6983H17.9433C19.9318 42.6983 20.6495 42.0332 20.6495 38.2799V27.6615C20.6495 24.7634 20.1083 23.4213 18.0609 23.4213C17.5785 23.4213 16.9784 23.445 16.5313 23.5638L16.5195 23.5519Z" fill="black"/>
<path d="M33.522 22.4949C37.3344 22.4949 40.2289 27.9466 40.2289 33.0776C40.2289 39.0757 37.3344 43.7317 33.522 43.7317C29.7097 43.7317 26.7563 39.1945 26.7563 33.0776C26.7563 27.9466 29.5685 22.4949 33.522 22.4949ZM30.7099 38.7669C30.7099 41.95 31.4512 43.2684 33.522 43.2684C35.087 43.2684 36.2754 42.3776 36.2754 38.7669V27.6022C36.2754 24.0746 35.1693 22.9581 33.522 22.9581C31.9806 22.9581 30.7099 23.6707 30.7099 27.6022V38.7669Z" fill="black"/>
<path d="M50.0656 43.1615H41.8174V42.5914H44.3707V23.647H41.9586V23.0768H46.1121C47.1358 23.0768 48.7831 22.8987 49.3244 22.8987C52.7955 22.8987 55.1487 25.0247 55.1487 28.0653C55.1487 30.7615 53.1249 32.3175 50.9128 32.4837C53.6426 32.8282 55.7135 34.6335 55.7135 37.6267C55.7135 41.3324 52.7013 43.1615 50.0539 43.1615H50.0656ZM51.6306 26.0343C51.6306 24.5972 51.407 23.4213 49.3244 23.4213C48.8419 23.4213 48.2183 23.5044 47.7947 23.6232V32.3531H49.4656C51.0893 32.3531 51.6306 31.7236 51.6306 29.0274V26.0462V26.0343ZM47.7947 32.8044V42.7102H49.5597C51.7247 42.7102 51.8659 42.1044 51.8659 38.6956V35.4293C51.8659 33.624 51.3482 32.8163 49.7597 32.8163H47.7947V32.8044Z" fill="black"/>
<path d="M64.9618 43.221H56.7371V42.6509H59.3021V23.7065H56.89V23.1364H60.7847C60.7847 23.1364 63.291 23.0176 64.2205 23.0176C67.4563 23.0176 69.7625 25.203 69.7625 28.5287C69.7625 31.1061 67.8328 32.5789 65.3854 32.8046C68.2564 33.1727 70.1626 35.4413 70.1626 37.8524V40.7505C70.1626 42.9003 70.7273 43.1379 71.2686 43.1379C71.8098 43.1379 72.4688 42.9954 72.61 41.8789L73.0689 41.962C72.9277 43.1973 72.3276 43.6249 71.0215 43.6249C68.8329 43.6249 66.7268 42.5915 66.7268 40.2636V35.6432C66.7268 33.8379 65.6442 32.9708 63.9146 32.9708H62.7262V42.639H64.9736V43.2091L64.9618 43.221ZM62.7144 32.4601H63.9616C65.5501 32.4601 66.3502 32.4364 66.3502 29.3364V26.4383C66.3502 24.2053 65.5854 23.5402 63.9381 23.5402C63.0556 23.5402 62.7144 23.5996 62.7144 23.5996V32.472V32.4601Z" fill="black"/>
<path d="M81.176 42.5795H83.0822V32.9113H81.8938C80.1641 32.9113 79.0816 33.7664 79.0816 35.5837V40.204C79.0816 42.532 76.9166 43.5653 74.7869 43.5653C73.4808 43.5653 72.8807 43.1377 72.7395 41.9025L73.1866 41.8193C73.3278 42.9358 73.9867 43.0783 74.528 43.0783C75.0693 43.0783 75.634 42.8526 75.634 40.691V37.7929C75.634 35.3818 77.5637 33.1132 80.4347 32.745C77.9873 32.5193 76.0223 31.0465 76.0223 28.4691C76.0223 25.1434 78.3286 22.958 81.5643 22.958C82.5056 22.958 84.5765 23.0768 85.0942 23.0768H88.9066V23.6469H86.4945V42.5913H89.0595V43.1615H81.1878V42.5913L81.176 42.5795ZM83.0822 23.4093C82.7763 23.3856 82.4233 23.3856 81.8585 23.3856C80.2112 23.3856 79.4464 24.1339 79.4464 26.3668V29.2649C79.4464 32.3649 80.2465 32.3887 81.835 32.3887H83.0822V23.4093Z" fill="black"/>
<path d="M96.6135 42.5795H98.8609V43.1496H90.6479V42.5795H93.2013V23.6351H90.7891V23.0649H99.2845V23.6351H96.6135V32.7569L103.356 23.6351H101.591V23.0649H106.344V23.6351H104.038L99.1551 30.322L106.086 42.5795H107.615V43.1496H100.108V42.5795H102.097L96.6135 32.8163V42.5795Z" fill="black"/>
<path d="M114.84 22.4949C118.652 22.4949 121.547 27.9466 121.547 33.0776C121.547 39.0757 118.652 43.7317 114.84 43.7317C111.027 43.7317 108.074 39.1945 108.074 33.0776C108.074 27.9466 110.886 22.4949 114.84 22.4949ZM112.027 38.7669C112.027 41.95 112.769 43.2684 114.84 43.2684C116.405 43.2684 117.593 42.3776 117.593 38.7669V27.6022C117.593 24.0746 116.487 22.9581 114.84 22.9581C113.31 22.9581 112.027 23.6707 112.027 27.6022V38.7669Z" fill="black"/>
<path d="M135.184 23.647H133.054V23.0769H137.208V23.647H135.843L131.042 43.3041H129.595L124.194 23.647H121.864V23.0769H130.677V23.647H127.865L131.677 37.9949L135.207 23.647H135.184Z" fill="black"/>
<path d="M145.315 22.9224L149.974 42.5795H152.304V43.1496H143.609V42.5795H146.362L144.679 35.2273H140.385L138.761 42.5795H141.173V43.1496H135.89V42.5795H138.102L142.197 24.4427L141.855 22.9224H145.291H145.315ZM140.514 34.6929H144.585L142.514 25.6304L140.526 34.6929H140.514Z" fill="black"/>
</g>
<defs>
<clipPath id="clip0_409_4230">
<rect width="161" height="62" fill="white" transform="translate(0.928955 0.0703125)"/>
</clipPath>
</defs>
</svg>
