<svg width="220" height="84" viewBox="0 0 220 84" fill="none" xmlns="http://www.w3.org/2000/svg">
<path d="M75.4543 27.8815H76.7353V19.6582H76.8606L80.1606 27.8815H81.372L84.6859 19.6443H84.8112V27.8815H86.0783V18.0387H84.0872L80.829 26.1084H80.7037L77.4593 18.0387H75.4543V27.8815Z" fill="#464646"/>
<path d="M88.7396 27.8815H95.618V26.7646H90.0206V23.344H94.9218V22.2271H90.0206V19.1556H95.4788V18.0387H88.7396V27.8815Z" fill="#464646"/>
<path d="M96.7274 27.8815H98.3147L102.436 23.2184H102.562V27.8815H103.843V23.2184H103.968L108.089 27.8815H109.677L105.054 22.7995L109.538 18.0387H107.964L103.968 22.3807H103.843V18.0387H102.562V22.3807H102.436L98.4401 18.0387H96.8666L101.35 22.7995L96.7274 27.8815Z" fill="#464646"/>
<path d="M110.363 29.9757H111.504V27.8815H120.207V29.9757H121.363V26.7646H119.873V18.0387H113.635L112.897 23.6372C112.688 25.1451 112.187 26.1084 111.323 26.7646H110.363V29.9757ZM112.771 26.7646V26.625C113.412 26.0246 113.913 25.2149 114.094 23.8746L114.763 19.1556H118.606V26.7646H112.771Z" fill="#464646"/>
<path d="M123.839 28.1607C125.357 28.1607 126.025 27.4906 127.223 25.0613L130.704 18.0387H129.367L126.791 23.2463H126.652L123.603 18.0387H122.252L126.109 24.5587L125.928 24.9636C125.12 26.6669 124.494 27.0299 123.603 27.0299C123.254 27.0299 122.851 26.96 122.586 26.8623V27.9792C122.837 28.0909 123.366 28.1607 123.839 28.1607Z" fill="#464646"/>
<path d="M132.401 27.8815H133.682V23.3021H138.974V27.8815H140.241V18.0387H138.974V22.1852H133.682V18.0387H132.401V27.8815Z" fill="#464646"/>
<path d="M141.981 27.8815H143.192L144.027 25.6756H149.026L149.862 27.8815H151.073L147.411 18.0387H145.684L141.981 27.8815ZM144.403 24.6285L146.478 19.1556H146.603L148.664 24.6285H144.403Z" fill="#464646"/>
<path d="M152.812 27.8815H154.051V24.07H156.725C158.813 24.07 160.247 22.9112 160.247 21.0544C160.261 19.1696 158.869 18.0387 156.725 18.0387H152.812V27.8815ZM154.051 22.9392V19.1556H156.725C158.145 19.1556 158.994 19.8956 158.994 21.0544C158.994 22.1992 158.145 22.9392 156.725 22.9392H154.051Z" fill="#464646"/>
<path d="M166.846 28.2305C169.951 28.2305 172.151 26.0526 172.151 22.9531C172.151 19.8816 169.951 17.6897 166.846 17.6897C163.741 17.6897 161.541 19.8816 161.541 22.9531C161.541 26.0526 163.741 28.2305 166.846 28.2305ZM166.846 27.1136C164.493 27.1136 162.808 25.3684 162.808 22.9531C162.808 20.5378 164.493 18.8066 166.846 18.8066C169.199 18.8066 170.87 20.5378 170.87 22.9531C170.87 25.3684 169.199 27.1136 166.846 27.1136Z" fill="#464646"/>
<path d="M172.817 29.9757H173.959V27.8815H182.661V29.9757H183.817V26.7646H182.327V18.0387H176.089L175.351 23.6372C175.142 25.1451 174.641 26.1084 173.778 26.7646H172.817V29.9757ZM175.226 26.7646V26.625C175.866 26.0246 176.368 25.2149 176.549 23.8746L177.217 19.1556H181.06V26.7646H175.226Z" fill="#464646"/>
<path d="M185.528 27.8815H186.809V23.3021H192.1V27.8815H193.367V18.0387H192.1V22.1852H186.809V18.0387H185.528V27.8815Z" fill="#464646"/>
<path d="M195.998 27.8815H200.106C202.152 27.8815 203.559 26.4574 203.559 24.6843C203.559 22.9392 202.152 21.4872 200.106 21.4872H197.279V18.0387H195.998V27.8815ZM205.327 27.8815H206.594V18.0387H205.327V27.8815ZM197.279 26.7646V22.618H199.897C201.303 22.618 202.292 23.4976 202.292 24.6983C202.292 25.885 201.303 26.7646 199.897 26.7646H197.279Z" fill="#464646"/>
<path d="M213.448 17.0195C214.659 17.0195 215.523 16.2935 215.523 15.3022H214.395C214.395 15.8188 214.033 16.126 213.448 16.126C212.849 16.126 212.487 15.8188 212.487 15.3022H211.345C211.345 16.2935 212.223 17.0195 213.448 17.0195ZM209.229 18.0387V27.8815H211.053L215.704 19.7001H215.829V27.8815H217.096V18.0387H215.286L210.635 26.2061H210.496V18.0387H209.229Z" fill="#464646"/>
<path d="M79.2834 45.7521H80.5505V44.5933C83.3492 44.5515 85.1454 42.6946 85.1454 40.363C85.1454 38.0175 83.3631 36.1606 80.5644 36.1187V35.0716H79.2973V36.1187C76.4847 36.2025 74.7163 38.0594 74.7163 40.363C74.7163 42.6387 76.4986 44.4956 79.2834 44.5933V45.7521ZM79.2973 43.4764C77.3201 43.4066 75.9834 41.9686 75.9834 40.3491C75.9834 38.7295 77.2923 37.3055 79.2973 37.2496V43.4764ZM80.5644 43.4764V37.2496C82.5416 37.2496 83.8783 38.7016 83.8783 40.3491C83.8783 42.0384 82.5416 43.4764 80.5644 43.4764Z" fill="#464646"/>
<path d="M87.0399 45.3333H93.9183V44.2164H88.3209V40.7958H93.2221V39.6789H88.3209V36.6074H93.7791V35.4905H87.0399V45.3333Z" fill="#464646"/>
<path d="M100.416 45.6823C102.63 45.6823 104.58 44.2303 105.067 42.2757L103.856 42.0384C103.438 43.4904 102.004 44.5654 100.416 44.5654C98.2024 44.5654 96.6011 42.8063 96.6011 40.4049C96.6011 38.0035 98.1884 36.2584 100.416 36.2584C102.031 36.2584 103.466 37.3613 103.842 38.8831L105.081 38.7156C104.58 36.6493 102.63 35.1414 100.416 35.1414C97.4644 35.1414 95.334 37.3474 95.334 40.4049C95.3201 43.4625 97.4644 45.6823 100.416 45.6823Z" fill="#464646"/>
<path d="M109.158 45.3333H110.425V36.6074H113.684V35.4905H105.9V36.6074H109.158V45.3333Z" fill="#464646"/>
<path d="M123.013 45.3333V35.4905H121.203L116.552 43.6579H116.427V35.4905H115.146V45.3333H116.97L121.621 37.1659H121.746V45.3333H123.013Z" fill="#464646"/>
<path d="M125.671 45.3333H129.932C131.909 45.3333 133.329 44.1605 133.329 42.5689C133.329 41.5079 132.619 40.5864 131.617 40.3072V40.1676C132.452 39.9023 133.051 39.0646 133.051 38.1292C133.051 36.5934 131.742 35.4905 129.946 35.4905H125.671V45.3333ZM126.938 39.7208V36.6074H129.792C130.962 36.6074 131.798 37.2636 131.798 38.1711C131.798 39.0786 130.962 39.7208 129.792 39.7208H126.938ZM126.938 44.2164V40.8377H129.765C131.101 40.8377 132.076 41.5358 132.076 42.4991C132.076 43.4904 131.101 44.2164 129.765 44.2164H126.938Z" fill="#464646"/>
<path d="M134.447 45.3333H135.659L136.494 43.1274H141.493L142.328 45.3333H143.54L139.878 35.4905H138.151L134.447 45.3333ZM136.87 42.0803L138.945 36.6074H139.07L141.131 42.0803H136.87Z" fill="#464646"/>
<path d="M144.374 45.3333C146.323 45.3333 147.493 44.2443 147.688 42.2059L148.245 36.6074H151.962V45.3333H153.229V35.4905H147.103L146.518 41.6056C146.351 43.5043 145.752 44.2164 144.374 44.2164V45.3333Z" fill="#464646"/>
<path d="M155.844 45.3333H159.952C161.998 45.3333 163.405 43.9092 163.405 42.1361C163.405 40.3909 161.998 38.939 159.952 38.939H157.125V35.4905H155.844V45.3333ZM157.125 44.2164V40.0698H159.743C161.149 40.0698 162.138 40.9494 162.138 42.1501C162.138 43.3368 161.149 44.2164 159.743 44.2164H157.125Z" fill="#464646"/>
<path d="M79.9518 63.1341C82.1657 63.1341 84.115 61.6821 84.6024 59.7275L83.391 59.4902C82.9733 60.9422 81.5391 62.0172 79.9518 62.0172C77.7378 62.0172 76.1366 60.2581 76.1366 57.8567C76.1366 55.4553 77.7239 53.7102 79.9518 53.7102C81.5669 53.7102 83.0011 54.8131 83.3771 56.3349L84.6163 56.1674C84.115 54.1011 82.1657 52.5932 79.9518 52.5932C76.9999 52.5932 74.8695 54.7991 74.8695 57.8567C74.8555 60.9143 76.9999 63.1341 79.9518 63.1341Z" fill="#464646"/>
<path d="M88.6937 62.7851H89.9608V54.0592H93.219V52.9423H85.4354V54.0592H88.6937V62.7851Z" fill="#464646"/>
<path d="M95.4473 63.0643C96.965 63.0643 97.6333 62.3942 98.8308 59.9649L102.312 52.9423H100.975L98.3992 58.1499H98.2599L95.2106 52.9423H93.8599L97.7169 59.4623L97.5359 59.8671C96.7283 61.5704 96.1017 61.9334 95.2106 61.9334C94.8625 61.9334 94.4587 61.8636 94.1941 61.7659V62.8828C94.4447 62.9945 94.9738 63.0643 95.4473 63.0643Z" fill="#464646"/>
<path d="M101.456 64.8793H102.598V62.7851H111.3V64.8793H112.456V61.6682H110.966V52.9423H104.728L103.99 58.5408C103.781 60.0486 103.28 61.012 102.417 61.6682H101.456V64.8793ZM103.865 61.6682V61.5286C104.506 60.9282 105.007 60.1185 105.188 58.7782L105.856 54.0592H109.699V61.6682H103.865Z" fill="#464646"/>
<path d="M114.181 62.7851H121.059V61.6682H115.462V58.2476H120.363V57.1307H115.462V54.0592H120.92V52.9423H114.181V62.7851Z" fill="#464646"/>
<path d="M123.06 62.7851H124.341V58.2057H129.632V62.7851H130.899V52.9423H129.632V57.0888H124.341V52.9423H123.06V62.7851Z" fill="#464646"/>
<path d="M139.378 62.7851H140.645V52.9423H139.378V57.1028C138.919 57.9544 137.86 58.5967 136.9 58.5967C135.479 58.5967 134.393 57.8148 134.393 56.0417V52.9423H133.112V56.1674C133.112 58.4989 134.644 59.6438 136.621 59.6438C137.679 59.6438 138.807 59.1691 139.378 58.3453V62.7851Z" fill="#464646"/>
<path d="M143.294 62.7851H150.172V61.6682H144.575V58.2476H149.476V57.1307H144.575V54.0592H150.033V52.9423H143.294V62.7851Z" fill="#464646"/>
<path d="M156.67 63.1341C158.884 63.1341 160.833 61.6821 161.321 59.7275L160.109 59.4902C159.692 60.9422 158.257 62.0172 156.67 62.0172C154.456 62.0172 152.855 60.2581 152.855 57.8567C152.855 55.4553 154.442 53.7102 156.67 53.7102C158.285 53.7102 159.719 54.8131 160.095 56.3349L161.335 56.1674C160.833 54.1011 158.884 52.5932 156.67 52.5932C153.718 52.5932 151.588 54.7991 151.588 57.8567C151.574 60.9143 153.718 63.1341 156.67 63.1341Z" fill="#464646"/>
<path d="M163.364 62.7851H164.631V58.1638H164.77L168.961 62.7851H170.563L165.856 57.7031L170.423 52.9423H168.836L164.77 57.2424H164.631V52.9423H163.364V62.7851Z" fill="#464646"/>
<path d="M176.024 63.1341C179.13 63.1341 181.329 60.9561 181.329 57.8567C181.329 54.7852 179.13 52.5932 176.024 52.5932C172.919 52.5932 170.719 54.7852 170.719 57.8567C170.719 60.9561 172.919 63.1341 176.024 63.1341ZM176.024 62.0172C173.671 62.0172 171.986 60.272 171.986 57.8567C171.986 55.4414 173.671 53.7102 176.024 53.7102C178.378 53.7102 180.048 55.4414 180.048 57.8567C180.048 60.272 178.378 62.0172 176.024 62.0172Z" fill="#464646"/>
<path d="M183.352 62.7851H184.633V54.0592H189.938V52.9423H183.352V62.7851Z" fill="#464646"/>
<path d="M195.918 63.1341C199.023 63.1341 201.223 60.9561 201.223 57.8567C201.223 54.7852 199.023 52.5932 195.918 52.5932C192.813 52.5932 190.613 54.7852 190.613 57.8567C190.613 60.9561 192.813 63.1341 195.918 63.1341ZM195.918 62.0172C193.565 62.0172 191.88 60.272 191.88 57.8567C191.88 55.4414 193.565 53.7102 195.918 53.7102C198.271 53.7102 199.942 55.4414 199.942 57.8567C199.942 60.272 198.271 62.0172 195.918 62.0172Z" fill="#464646"/>
<path d="M75.4682 80.2369H76.7353V75.6156H76.8745L81.0657 80.2369H82.6669L77.9606 75.1549L82.5277 70.3941H80.9404L76.8745 74.6942H76.7353V70.3941H75.4682V80.2369Z" fill="#464646"/>
<path d="M92.1327 80.2369V70.3941H90.3226L85.6719 78.5615H85.5466V70.3941H84.2656V80.2369H86.0896L90.7403 72.0694H90.8656V80.2369H92.1327Z" fill="#464646"/>
<path d="M94.7766 80.2369H96.0576V75.6575H101.349V80.2369H102.616V70.3941H101.349V74.5406H96.0576V70.3941H94.7766V80.2369Z" fill="#464646"/>
<path d="M109.953 80.5859C113.058 80.5859 115.258 78.4079 115.258 75.3085C115.258 72.237 113.058 70.045 109.953 70.045C106.848 70.045 104.648 72.237 104.648 75.3085C104.648 78.4079 106.848 80.5859 109.953 80.5859ZM109.953 79.469C107.6 79.469 105.915 77.7238 105.915 75.3085C105.915 72.8932 107.6 71.1619 109.953 71.1619C112.306 71.1619 113.977 72.8932 113.977 75.3085C113.977 77.7238 112.306 79.469 109.953 79.469Z" fill="#464646"/>
<rect x="2.78448" y="52.6628" width="64.3987" height="10.4711" fill="#464646"/>
<rect x="2.78448" y="69.7654" width="64.3987" height="10.4711" fill="#464646"/>
<rect width="64.4103" height="10.4692" transform="matrix(0.965739 -0.259515 0.258124 0.966112 -0.000183105 17.061)" fill="#464646"/>
<rect x="2.78448" y="35.2112" width="64.3987" height="10.4711" fill="#464646"/>
</svg>
