<svg width="196" height="26" viewBox="0 0 196 26" fill="none" xmlns="http://www.w3.org/2000/svg">
<path d="M46.8978 25.6023C45.1591 25.6023 43.6222 25.3636 42.287 24.8864C40.9517 24.4148 39.8296 23.7188 38.9205 22.7983C38.0114 21.8778 37.3239 20.75 36.858 19.4148C36.3921 18.0795 36.1591 16.5511 36.1591 14.8295C36.1591 13.1648 36.3949 11.6761 36.8665 10.3636C37.3438 9.05114 38.0341 7.9375 38.9375 7.02273C39.8466 6.10227 40.9489 5.40057 42.2443 4.91761C43.5455 4.43466 45.0171 4.19318 46.6591 4.19318C48.2557 4.19318 49.6534 4.45454 50.8523 4.97727C52.0568 5.49432 53.0625 6.19602 53.8693 7.08239C54.6818 7.96307 55.2898 8.95454 55.6932 10.0568C56.1023 11.1591 56.3068 12.2955 56.3068 13.4659C56.3068 14.2898 56.2671 15.125 56.1875 15.9716C56.108 16.8182 55.9404 17.5966 55.6847 18.3068C55.429 19.0114 55.0341 19.5795 54.5 20.0114C53.9716 20.4432 53.2557 20.6591 52.3523 20.6591C51.9546 20.6591 51.5171 20.5966 51.0398 20.4716C50.5625 20.3466 50.1392 20.1392 49.7699 19.8494C49.4006 19.5597 49.1818 19.1705 49.1137 18.6818H49.0114C48.875 19.0114 48.6648 19.3239 48.3807 19.6193C48.1023 19.9148 47.7358 20.1506 47.2813 20.3267C46.8324 20.5028 46.2841 20.5795 45.6364 20.5568C44.8978 20.5284 44.2472 20.3636 43.6847 20.0625C43.1222 19.7557 42.6506 19.3409 42.2699 18.8182C41.8949 18.2898 41.6108 17.679 41.4176 16.9858C41.2301 16.2869 41.1364 15.5341 41.1364 14.7273C41.1364 13.9602 41.25 13.2585 41.4773 12.6222C41.7046 11.9858 42.0199 11.429 42.4233 10.9517C42.8324 10.4744 43.3097 10.0937 43.8551 9.80966C44.4063 9.51989 45 9.34091 45.6364 9.27273C46.2046 9.21591 46.7216 9.24148 47.1875 9.34943C47.6534 9.4517 48.037 9.60795 48.3381 9.81818C48.6392 10.0227 48.8296 10.25 48.9091 10.5H49.0114V9.54545H50.8182V17.25C50.8182 17.7273 50.9517 18.1477 51.2188 18.5114C51.4858 18.875 51.875 19.0568 52.3864 19.0568C52.9659 19.0568 53.4091 18.858 53.7159 18.4602C54.0284 18.0625 54.2415 17.4489 54.3551 16.6193C54.4745 15.7898 54.5341 14.7273 54.5341 13.4318C54.5341 12.6705 54.429 11.9205 54.2188 11.1818C54.0142 10.4375 53.7017 9.74148 53.2813 9.09375C52.8665 8.44602 52.3409 7.875 51.7046 7.38068C51.0682 6.88636 50.3211 6.5 49.4631 6.22159C48.6108 5.9375 47.6421 5.79545 46.5568 5.79545C45.2216 5.79545 44.0256 6.00284 42.9688 6.41761C41.9176 6.8267 41.0228 7.42614 40.2841 8.21591C39.5512 9 38.9915 9.95455 38.6051 11.0795C38.2245 12.1989 38.0341 13.4716 38.0341 14.8977C38.0341 16.3466 38.2245 17.6335 38.6051 18.7585C38.9915 19.8835 39.5597 20.8324 40.3097 21.6051C41.0654 22.3778 42 22.9631 43.1137 23.3608C44.2273 23.7642 45.5114 23.9659 46.9659 23.9659C47.5909 23.9659 48.2074 23.9063 48.8154 23.7869C49.4233 23.6676 49.9603 23.5369 50.4262 23.3949C50.8921 23.2528 51.2273 23.1477 51.4318 23.0795L51.9091 24.6477C51.5568 24.7955 51.0966 24.9432 50.5284 25.0909C49.9659 25.2386 49.3637 25.3608 48.7216 25.4574C48.0853 25.554 47.4773 25.6023 46.8978 25.6023ZM45.9091 18.8182C46.6705 18.8182 47.287 18.6648 47.7586 18.358C48.2301 18.0511 48.5739 17.5881 48.7898 16.9688C49.0057 16.3494 49.1137 15.5682 49.1137 14.625C49.1137 13.6705 48.9943 12.9261 48.7557 12.392C48.5171 11.858 48.1648 11.483 47.6989 11.267C47.233 11.0511 46.6591 10.9432 45.9773 10.9432C45.3296 10.9432 44.7756 11.1136 44.3154 11.4545C43.8608 11.7898 43.5114 12.2386 43.2671 12.8011C43.0284 13.358 42.9091 13.9659 42.9091 14.625C42.9091 15.3523 43.0057 16.0369 43.1989 16.679C43.3921 17.3153 43.7074 17.8324 44.1449 18.2301C44.5824 18.6222 45.1705 18.8182 45.9091 18.8182ZM59.3175 25.9091V7.90909H61.2607V9.98864H61.4993C61.647 9.76136 61.8516 9.47159 62.113 9.11932C62.38 8.76136 62.7607 8.44318 63.255 8.16477C63.755 7.88068 64.4311 7.73864 65.2834 7.73864C66.3857 7.73864 67.3573 8.0142 68.1982 8.56534C69.0391 9.11648 69.6953 9.89773 70.1669 10.9091C70.6385 11.9205 70.8743 13.1136 70.8743 14.4886C70.8743 15.875 70.6385 17.0767 70.1669 18.0938C69.6953 19.1051 69.0419 19.8892 68.2067 20.446C67.3715 20.9972 66.4084 21.2727 65.3175 21.2727C64.4766 21.2727 63.8033 21.1335 63.2976 20.8551C62.7919 20.571 62.4027 20.25 62.13 19.892C61.8573 19.5284 61.647 19.2273 61.4993 18.9886H61.3289V25.9091H59.3175ZM61.2948 14.4545C61.2948 15.4432 61.4397 16.3153 61.7294 17.071C62.0192 17.821 62.4425 18.4091 62.9993 18.8352C63.5561 19.2557 64.238 19.4659 65.0448 19.4659C65.8857 19.4659 66.5874 19.2443 67.1499 18.8011C67.7181 18.3523 68.1442 17.75 68.4283 16.9943C68.7181 16.233 68.863 15.3864 68.863 14.4545C68.863 13.5341 68.7209 12.7045 68.4368 11.9659C68.1584 11.2216 67.7351 10.6335 67.1669 10.2017C66.6044 9.7642 65.897 9.54545 65.0448 9.54545C64.2266 9.54545 63.5391 9.75284 62.9823 10.1676C62.4255 10.5767 62.005 11.1506 61.7209 11.8892C61.4368 12.6222 61.2948 13.4773 61.2948 14.4545ZM79.2607 21.2727C78.0789 21.2727 77.0419 20.9915 76.1499 20.429C75.2635 19.8665 74.5703 19.0795 74.0703 18.0682C73.576 17.0568 73.3289 15.875 73.3289 14.5227C73.3289 13.1591 73.576 11.9687 74.0703 10.9517C74.5703 9.93466 75.2635 9.14489 76.1499 8.58239C77.0419 8.01989 78.0789 7.73864 79.2607 7.73864C80.4425 7.73864 81.4766 8.01989 82.363 8.58239C83.255 9.14489 83.9482 9.93466 84.4425 10.9517C84.9425 11.9687 85.1925 13.1591 85.1925 14.5227C85.1925 15.875 84.9425 17.0568 84.4425 18.0682C83.9482 19.0795 83.255 19.8665 82.363 20.429C81.4766 20.9915 80.4425 21.2727 79.2607 21.2727ZM79.2607 19.4659C80.1584 19.4659 80.897 19.2358 81.4766 18.7756C82.0561 18.3153 82.4851 17.7102 82.7635 16.9602C83.0419 16.2102 83.1811 15.3977 83.1811 14.5227C83.1811 13.6477 83.0419 12.8324 82.7635 12.0767C82.4851 11.321 82.0561 10.7102 81.4766 10.2443C80.897 9.77841 80.1584 9.54545 79.2607 9.54545C78.363 9.54545 77.6243 9.77841 77.0448 10.2443C76.4652 10.7102 76.0363 11.321 75.7578 12.0767C75.4794 12.8324 75.3402 13.6477 75.3402 14.5227C75.3402 15.3977 75.4794 16.2102 75.7578 16.9602C76.0363 17.7102 76.4652 18.3153 77.0448 18.7756C77.6243 19.2358 78.363 19.4659 79.2607 19.4659ZM97.5355 10.8409L95.7287 11.3523C95.6151 11.0511 95.4475 10.7585 95.2259 10.4744C95.01 10.1847 94.7145 9.94602 94.3395 9.75852C93.9645 9.57102 93.4844 9.47727 92.8992 9.47727C92.098 9.47727 91.4304 9.66193 90.8963 10.0312C90.3679 10.3949 90.1037 10.858 90.1037 11.4205C90.1037 11.9205 90.2855 12.3153 90.6492 12.6051C91.0128 12.8949 91.581 13.1364 92.3537 13.3295L94.2969 13.8068C95.4674 14.0909 96.3395 14.5256 96.9134 15.1108C97.4872 15.6903 97.7742 16.4375 97.7742 17.3523C97.7742 18.1023 97.5583 18.7727 97.1265 19.3636C96.7003 19.9545 96.1037 20.4205 95.3367 20.7614C94.5696 21.1023 93.6776 21.2727 92.6605 21.2727C91.3253 21.2727 90.2202 20.983 89.3452 20.4034C88.4702 19.8239 87.9162 18.9773 87.6833 17.8636L89.5924 17.3864C89.7742 18.0909 90.1179 18.6193 90.6236 18.9716C91.135 19.3239 91.8026 19.5 92.6265 19.5C93.564 19.5 94.3083 19.3011 94.8594 18.9034C95.4162 18.5 95.6946 18.017 95.6946 17.4545C95.6946 17 95.5355 16.6193 95.2174 16.3125C94.8992 16 94.4105 15.767 93.7515 15.6136L91.5696 15.1023C90.3708 14.8182 89.4901 14.3778 88.9276 13.7812C88.3708 13.179 88.0924 12.4261 88.0924 11.5227C88.0924 10.7841 88.2997 10.1307 88.7145 9.5625C89.135 8.99432 89.706 8.5483 90.4276 8.22443C91.1549 7.90057 91.9787 7.73864 92.8992 7.73864C94.1946 7.73864 95.2117 8.02273 95.9503 8.59091C96.6946 9.15909 97.223 9.90909 97.5355 10.8409ZM106.495 7.90909V9.61364H99.711V7.90909H106.495ZM101.688 4.77273H103.7V17.25C103.7 17.8182 103.782 18.2443 103.947 18.5284C104.117 18.8068 104.333 18.9943 104.594 19.0909C104.862 19.1818 105.143 19.2273 105.438 19.2273C105.66 19.2273 105.842 19.2159 105.984 19.1932C106.126 19.1648 106.239 19.142 106.325 19.125L106.734 20.9318C106.597 20.983 106.407 21.0341 106.163 21.0852C105.918 21.142 105.609 21.1705 105.234 21.1705C104.666 21.1705 104.109 21.0483 103.563 20.804C103.023 20.5597 102.575 20.1875 102.217 19.6875C101.864 19.1875 101.688 18.5568 101.688 17.7955V4.77273ZM118.555 21V22.875H107.646V21H118.555ZM122.247 16.2273L122.213 13.7386H122.622L128.349 7.90909H130.838L124.736 14.0795H124.565L122.247 16.2273ZM120.372 21V3.54545H122.384V21H120.372ZM128.69 21L123.577 14.5227L125.009 13.125L131.247 21H128.69ZM138.206 21.2727C137.024 21.2727 135.987 20.9915 135.095 20.429C134.209 19.8665 133.516 19.0795 133.016 18.0682C132.521 17.0568 132.274 15.875 132.274 14.5227C132.274 13.1591 132.521 11.9687 133.016 10.9517C133.516 9.93466 134.209 9.14489 135.095 8.58239C135.987 8.01989 137.024 7.73864 138.206 7.73864C139.388 7.73864 140.422 8.01989 141.308 8.58239C142.2 9.14489 142.893 9.93466 143.388 10.9517C143.888 11.9687 144.138 13.1591 144.138 14.5227C144.138 15.875 143.888 17.0568 143.388 18.0682C142.893 19.0795 142.2 19.8665 141.308 20.429C140.422 20.9915 139.388 21.2727 138.206 21.2727ZM138.206 19.4659C139.104 19.4659 139.842 19.2358 140.422 18.7756C141.001 18.3153 141.43 17.7102 141.709 16.9602C141.987 16.2102 142.126 15.3977 142.126 14.5227C142.126 13.6477 141.987 12.8324 141.709 12.0767C141.43 11.321 141.001 10.7102 140.422 10.2443C139.842 9.77841 139.104 9.54545 138.206 9.54545C137.308 9.54545 136.57 9.77841 135.99 10.2443C135.411 10.7102 134.982 11.321 134.703 12.0767C134.425 12.8324 134.286 13.6477 134.286 14.5227C134.286 15.3977 134.425 16.2102 134.703 16.9602C134.982 17.7102 135.411 18.3153 135.99 18.7756C136.57 19.2358 137.308 19.4659 138.206 19.4659ZM147.208 21V7.90909H149.151V9.88636H149.288C149.526 9.23864 149.958 8.71307 150.583 8.30966C151.208 7.90625 151.913 7.70454 152.697 7.70454C152.844 7.70454 153.029 7.70739 153.251 7.71307C153.472 7.71875 153.64 7.72727 153.754 7.73864V9.78409C153.685 9.76705 153.529 9.74148 153.285 9.70739C153.046 9.66761 152.793 9.64773 152.526 9.64773C151.89 9.64773 151.322 9.78125 150.822 10.0483C150.327 10.3097 149.935 10.6733 149.646 11.1392C149.362 11.5994 149.219 12.125 149.219 12.7159V21H147.208ZM161.058 21.2727C159.876 21.2727 158.839 20.9915 157.947 20.429C157.06 19.8665 156.367 19.0795 155.867 18.0682C155.373 17.0568 155.126 15.875 155.126 14.5227C155.126 13.1591 155.373 11.9687 155.867 10.9517C156.367 9.93466 157.06 9.14489 157.947 8.58239C158.839 8.01989 159.876 7.73864 161.058 7.73864C162.239 7.73864 163.273 8.01989 164.16 8.58239C165.052 9.14489 165.745 9.93466 166.239 10.9517C166.739 11.9687 166.989 13.1591 166.989 14.5227C166.989 15.875 166.739 17.0568 166.239 18.0682C165.745 19.0795 165.052 19.8665 164.16 20.429C163.273 20.9915 162.239 21.2727 161.058 21.2727ZM161.058 19.4659C161.955 19.4659 162.694 19.2358 163.273 18.7756C163.853 18.3153 164.282 17.7102 164.56 16.9602C164.839 16.2102 164.978 15.3977 164.978 14.5227C164.978 13.6477 164.839 12.8324 164.56 12.0767C164.282 11.321 163.853 10.7102 163.273 10.2443C162.694 9.77841 161.955 9.54545 161.058 9.54545C160.16 9.54545 159.421 9.77841 158.842 10.2443C158.262 10.7102 157.833 11.321 157.555 12.0767C157.276 12.8324 157.137 13.6477 157.137 14.5227C157.137 15.3977 157.276 16.2102 157.555 16.9602C157.833 17.7102 158.262 18.3153 158.842 18.7756C159.421 19.2358 160.16 19.4659 161.058 19.4659ZM172.071 13.125V21H170.06V7.90909H172.003V9.95455H172.173C172.48 9.28977 172.946 8.75568 173.571 8.35227C174.196 7.94318 175.003 7.73864 175.992 7.73864C176.878 7.73864 177.653 7.92045 178.318 8.28409C178.983 8.64205 179.5 9.1875 179.869 9.92045C180.239 10.6477 180.423 11.5682 180.423 12.6818V21H178.412V12.8182C178.412 11.7898 178.145 10.9886 177.611 10.4148C177.077 9.83523 176.344 9.54545 175.412 9.54545C174.77 9.54545 174.196 9.68466 173.69 9.96307C173.19 10.2415 172.795 10.6477 172.506 11.1818C172.216 11.7159 172.071 12.3636 172.071 13.125ZM187.951 21.3068C187.121 21.3068 186.369 21.1506 185.693 20.8381C185.016 20.5199 184.479 20.0625 184.082 19.4659C183.684 18.8636 183.485 18.1364 183.485 17.2841C183.485 16.5341 183.633 15.9261 183.928 15.4602C184.224 14.9886 184.619 14.6193 185.113 14.3523C185.607 14.0852 186.153 13.8864 186.749 13.7557C187.352 13.6193 187.957 13.5114 188.565 13.4318C189.36 13.3295 190.005 13.2528 190.499 13.2017C190.999 13.1449 191.363 13.0511 191.59 12.9205C191.823 12.7898 191.94 12.5625 191.94 12.2386V12.1705C191.94 11.3295 191.71 10.6761 191.249 10.2102C190.795 9.74432 190.104 9.51136 189.178 9.51136C188.218 9.51136 187.465 9.72159 186.92 10.142C186.374 10.5625 185.991 11.0114 185.769 11.4886L183.86 10.8068C184.201 10.0114 184.656 9.39205 185.224 8.94886C185.798 8.5 186.423 8.1875 187.099 8.01136C187.781 7.82955 188.451 7.73864 189.11 7.73864C189.531 7.73864 190.014 7.78977 190.559 7.89204C191.11 7.98864 191.641 8.19034 192.153 8.49716C192.67 8.80398 193.099 9.26705 193.44 9.88636C193.781 10.5057 193.951 11.3352 193.951 12.375V21H191.94V19.2273H191.837C191.701 19.5114 191.474 19.8153 191.156 20.1392C190.837 20.4631 190.414 20.7386 189.886 20.9659C189.357 21.1932 188.712 21.3068 187.951 21.3068ZM188.258 19.5C189.053 19.5 189.724 19.3438 190.269 19.0312C190.82 18.7188 191.235 18.3153 191.514 17.821C191.798 17.3267 191.94 16.8068 191.94 16.2614V14.4205C191.854 14.5227 191.667 14.6165 191.377 14.7017C191.093 14.7812 190.764 14.8523 190.389 14.9148C190.019 14.9716 189.658 15.0227 189.306 15.0682C188.96 15.108 188.678 15.142 188.462 15.1705C187.94 15.2386 187.451 15.3494 186.996 15.5028C186.548 15.6506 186.184 15.875 185.906 16.1761C185.633 16.4716 185.496 16.875 185.496 17.3864C185.496 18.0852 185.755 18.6136 186.272 18.9716C186.795 19.3239 187.457 19.5 188.258 19.5Z" fill="black"/>
<g clip-path="url(#clip0_355_3221)">
<path d="M8.01163 11.7791C8.01163 9.5772 9.79723 7.79172 12.0005 7.79172C14.2037 7.79172 15.9903 9.5772 15.9903 11.7791C15.9903 13.981 14.2037 15.7665 12.0005 15.7665C9.79723 15.7665 8.01163 13.981 8.01163 11.7791ZM5.85483 11.7791C5.85483 15.1713 8.60622 17.9211 12.0005 17.9211C15.3947 17.9211 18.1461 15.1713 18.1461 11.7791C18.1461 8.38691 15.3947 5.63716 12.0005 5.63716C8.60622 5.63716 5.85483 8.38691 5.85483 11.7791ZM16.9532 5.39363C16.9531 5.67752 17.0372 5.95506 17.1949 6.19117C17.3526 6.42727 17.5769 6.61133 17.8393 6.72008C18.1017 6.82882 18.3904 6.85736 18.669 6.80209C18.9477 6.74682 19.2036 6.61021 19.4046 6.40956C19.6055 6.2089 19.7424 5.9532 19.7979 5.67479C19.8534 5.39638 19.8251 5.10777 19.7165 4.84545C19.6079 4.58313 19.4239 4.35889 19.1878 4.20107C18.9517 4.04326 18.674 3.95897 18.39 3.95886H18.3894C18.0087 3.95903 17.6435 4.11024 17.3743 4.37925C17.105 4.64827 16.9535 5.01311 16.9532 5.39363ZM7.16523 21.5153C5.99835 21.4622 5.36412 21.2679 4.94264 21.1038C4.38386 20.8864 3.98517 20.6275 3.56598 20.2091C3.1468 19.7908 2.88733 19.3927 2.67075 18.8342C2.50644 18.4132 2.31208 17.7792 2.25903 16.613C2.20101 15.3522 2.18942 14.9734 2.18942 11.7792C2.18942 8.58499 2.20197 8.2073 2.25903 6.94544C2.31217 5.77926 2.50798 5.14646 2.67075 4.72418C2.88828 4.16574 3.14738 3.76728 3.56598 3.34835C3.98459 2.92942 4.3829 2.6701 4.94264 2.45365C5.36393 2.28945 5.99835 2.0952 7.16523 2.04219C8.42679 1.9842 8.80576 1.97262 12.0005 1.97262C15.1952 1.97262 15.5745 1.98515 16.8372 2.04219C18.004 2.09529 18.6372 2.29098 19.0597 2.45365C19.6185 2.6701 20.0172 2.93 20.4364 3.34835C20.8556 3.76671 21.1141 4.16574 21.3316 4.72418C21.4959 5.14522 21.6903 5.77926 21.7433 6.94544C21.8014 8.2073 21.813 8.58499 21.813 11.7792C21.813 14.9734 21.8014 15.3511 21.7433 16.613C21.6902 17.7792 21.4949 18.413 21.3316 18.8342C21.1141 19.3927 20.855 19.7911 20.4364 20.2091C20.0178 20.6271 19.6185 20.8864 19.0597 21.1038C18.6384 21.268 18.004 21.4623 16.8372 21.5153C15.5756 21.5733 15.1966 21.5849 12.0005 21.5849C8.80433 21.5849 8.42641 21.5733 7.16523 21.5153ZM7.06613 -0.109692C5.79202 -0.0517034 4.92138 0.150202 4.16105 0.445885C3.37363 0.751231 2.70703 1.16088 2.04092 1.82554C1.37481 2.49021 0.965964 3.15745 0.660434 3.94441C0.364574 4.70476 0.162547 5.57439 0.104524 6.84774C0.0455438 8.12309 0.0320435 8.53083 0.0320435 11.7791C0.0320435 15.0274 0.0455438 15.4351 0.104524 16.7105C0.162547 17.9839 0.364574 18.8535 0.660434 19.6138C0.965964 20.4003 1.3749 21.0683 2.04092 21.7327C2.70694 22.3971 3.37363 22.8062 4.16105 23.1124C4.92282 23.408 5.79202 23.6099 7.06613 23.6679C8.34292 23.7259 8.75023 23.7404 12.0005 23.7404C15.2507 23.7404 15.6587 23.7269 16.9348 23.6679C18.209 23.6099 19.0791 23.408 19.8399 23.1124C20.6268 22.8062 21.2939 22.3974 21.96 21.7327C22.6261 21.068 23.0341 20.4003 23.3405 19.6138C23.6364 18.8535 23.8393 17.9839 23.8964 16.7105C23.9544 15.4342 23.9679 15.0274 23.9679 11.7791C23.9679 8.53083 23.9544 8.12309 23.8964 6.84774C23.8384 5.57429 23.6364 4.70428 23.3405 3.94441C23.0341 3.15793 22.6251 2.49126 21.96 1.82554C21.295 1.15983 20.6268 0.751231 19.8408 0.445885C19.0791 0.150202 18.2089 -0.0526603 16.9358 -0.109692C15.6596 -0.16768 15.2517 -0.182129 12.0014 -0.182129C8.75119 -0.182129 8.34292 -0.168637 7.06613 -0.109692Z" fill="url(#paint0_linear_355_3221)"/>
</g>
<defs>
<linearGradient id="paint0_linear_355_3221" x1="23.5079" y1="23.7404" x2="-0.414605" y2="-0.195521" gradientUnits="userSpaceOnUse">
<stop stop-color="#FBE18A"/>
<stop offset="0.21" stop-color="#FCBB45"/>
<stop offset="0.38" stop-color="#F75274"/>
<stop offset="0.52" stop-color="#D53692"/>
<stop offset="0.74" stop-color="#8F39CE"/>
<stop offset="1" stop-color="#5B4FE9"/>
</linearGradient>
<clipPath id="clip0_355_3221">
<rect width="24" height="24" fill="white"/>
</clipPath>
</defs>
</svg>
