<svg width="170" height="84" viewBox="0 0 170 84" fill="none" xmlns="http://www.w3.org/2000/svg">
<mask id="mask0_172_11642" style="mask-type:luminance" maskUnits="userSpaceOnUse" x="18" y="16" width="134" height="52">
<path d="M133.96 51.8571C129.16 51.8571 125.26 47.587 125.26 42.0205C125.26 36.4539 129.14 31.978 133.96 31.978C138.78 31.978 142.66 36.4436 142.66 42.0205C142.66 47.5973 138.76 51.8571 133.96 51.8571ZM99.4801 51.8571C94.6801 51.8571 90.7801 47.587 90.7801 42.0205C90.7801 36.4539 94.6601 31.978 99.4801 31.978C104.3 31.978 108.18 36.4436 108.18 42.0205C108.18 47.5973 104.3 51.8571 99.4801 51.8571ZM56.2201 40.9504C56.8101 35.0134 61.1001 31.2372 66.0901 31.587C68.8601 31.7825 71.1501 33.0996 72.5901 35.1677L56.2201 40.9504ZM133.96 23.6025C125.07 23.6025 118.48 29.7967 116.87 38.0179V16.2559H108.17V27.8108C105.54 25.0224 102.24 23.7362 98.2201 23.7362C90.2501 23.7362 83.5601 30.3111 82.2501 38.8822C81.0001 29.8275 74.6401 24.3124 66.6801 23.7465C58.0001 23.1394 50.3501 29.3954 48.4901 38.0693V23.9009H39.7901V36.1761C39.7901 40.1066 37.0801 43.0288 33.2001 43.0288C27.5301 43.0288 26.8801 38.1516 26.8801 36.1761V23.9009H18.1801V36.1761C18.1801 45.3233 23.7101 51.4867 32.0201 51.4867C35.1101 51.4867 37.74 50.396 39.8 48.6365V52.7111C39.8 55.9729 38.15 59.4301 33.41 59.4301C30.45 59.4301 28.2101 58.1439 27.6901 55.5613H18.6601C19.8501 62.7535 25.9801 67.7747 33.4301 67.7747C42.5201 67.7747 48.5201 61.5291 48.5201 52.104V46.1671C48.8901 47.8545 49.4701 49.4391 50.2501 50.9208C53.0001 56.1581 58.1501 59.8417 64.2701 60.2738C72.69 60.8706 78.9901 56.477 81.4301 49.5214L72.1701 48.8629C70.5301 51.5381 67.5601 52.6082 64.7301 52.4127C61.8001 52.1966 59.3301 50.6841 57.7901 48.2352C57.7801 48.2147 57.7601 48.2044 57.7601 48.1838L76.3901 41.6192L82.1901 39.551C82.1001 40.333 82.0601 41.1253 82.0601 41.9381C82.0601 52.032 89.2401 60.1709 99.5201 60.1709C108.77 60.1709 115.53 53.5034 116.72 44.7369C117.93 53.4417 124.69 60.1092 132.81 60.1092C136.9 60.1092 140.59 58.6069 143.16 55.7053V59.358H151.4V41.9484C151.36 31.8546 144.17 23.5922 133.96 23.5922V23.6025Z" fill="white"/>
</mask>
<g mask="url(#mask0_172_11642)">
<mask id="mask1_172_11642" style="mask-type:luminance" maskUnits="userSpaceOnUse" x="-96" y="-205" width="361" height="1663">
<path d="M264.87 -204.945H-95.1299V1457.82H264.87V-204.945Z" fill="white"/>
</mask>
<g mask="url(#mask1_172_11642)">
<path d="M156.4 11.1006H13.2001V72.9089H156.4V11.1006Z" fill="#021B47"/>
</g>
</g>
<mask id="mask2_172_11642" style="mask-type:luminance" maskUnits="userSpaceOnUse" x="0" y="0" width="18" height="19">
<path d="M5.59 0.996582H0V18.8384H5.59V6.77922H17.43V1.02745H5.59V0.996582Z" fill="white"/>
</mask>
<g mask="url(#mask2_172_11642)">
<mask id="mask3_172_11642" style="mask-type:luminance" maskUnits="userSpaceOnUse" x="-96" y="-205" width="361" height="1663">
<path d="M264.87 -204.945H-95.13V1457.82H264.87V-204.945Z" fill="white"/>
</mask>
<g mask="url(#mask3_172_11642)">
<path d="M22.43 -4.14795H-5V23.9832H22.43V-4.14795Z" fill="#079DED"/>
</g>
</g>
<mask id="mask4_172_11642" style="mask-type:luminance" maskUnits="userSpaceOnUse" x="152" y="0" width="18" height="19">
<path d="M152.05 0.945312V6.68677H163.77V18.8797H169.34V6.68677H169.39V0.945312H152.05Z" fill="white"/>
</mask>
<g mask="url(#mask4_172_11642)">
<mask id="mask5_172_11642" style="mask-type:luminance" maskUnits="userSpaceOnUse" x="-96" y="-205" width="361" height="1663">
<path d="M264.87 -204.945H-95.1301V1457.82H264.87V-204.945Z" fill="white"/>
</mask>
<g mask="url(#mask5_172_11642)">
<path d="M174.39 -4.19971H147.05V24.024H174.39V-4.19971Z" fill="#079DED"/>
</g>
</g>
<mask id="mask6_172_11642" style="mask-type:luminance" maskUnits="userSpaceOnUse" x="151" y="65" width="19" height="19">
<path d="M163.8 77.2203H151.96V82.972H163.8V83.0029H169.39V65.1611H163.8V77.2203Z" fill="white"/>
</mask>
<g mask="url(#mask6_172_11642)">
<mask id="mask7_172_11642" style="mask-type:luminance" maskUnits="userSpaceOnUse" x="-96" y="-205" width="361" height="1663">
<path d="M264.87 -204.945H-95.13V1457.82H264.87V-204.945Z" fill="white"/>
</mask>
<g mask="url(#mask7_172_11642)">
<path d="M174.39 60.0166H146.96V88.1477H174.39V60.0166Z" fill="#079DED"/>
</g>
</g>
<mask id="mask8_172_11642" style="mask-type:luminance" maskUnits="userSpaceOnUse" x="0" y="65" width="18" height="19">
<path d="M5.62 65.1201H0.0500031V77.313H0V83.0545H17.34V77.313H5.62V65.1201Z" fill="white"/>
</mask>
<g mask="url(#mask8_172_11642)">
<mask id="mask9_172_11642" style="mask-type:luminance" maskUnits="userSpaceOnUse" x="-96" y="-205" width="361" height="1663">
<path d="M264.87 -204.945H-95.13V1457.82H264.87V-204.945Z" fill="white"/>
</mask>
<g mask="url(#mask9_172_11642)">
<path d="M22.34 59.9751H-5V88.1988H22.34V59.9751Z" fill="#079DED"/>
</g>
</g>
</svg>
