<svg xmlns="http://www.w3.org/2000/svg" version="1.1" xmlns:xlink="http://www.w3.org/1999/xlink" xmlns:svgjs="http://svgjs.com/svgjs" width="231.2" height="231.2"><svg version="1.1" id="SvgjsSvg1000" xmlns="http://www.w3.org/2000/svg" xmlns:xlink="http://www.w3.org/1999/xlink" x="0px" y="0px" viewBox="0 0 231.2 231.2" style="enable-background:new 0 0 231.2 231.2;" xml:space="preserve">
<style type="text/css">
	.st0{fill:#FFFFFF;stroke:#1D1D1B;stroke-miterlimit:10;}
	.st1{fill:#1D1D1B;}
</style>
<g>
	<circle class="st0" cx="115.6" cy="115.6" r="115.1"></circle>
	<path class="st1" d="M61,166.6v-102h37.5c2.9,10.2,5.8,20.5,8.6,31c2.8,10.4,5.7,20.8,8.5,31c2.8-10.2,5.6-20.5,8.5-31
		c2.8-10.4,5.7-20.8,8.5-31h37.1c0.1,16.8,0.2,33.8,0.3,51s0.2,34.2,0.3,51h-25.4V97.4c-3,11.4-6.1,22.9-9.1,34.6
		c-3.1,11.6-6.1,23.2-9.2,34.6h-22.8c-3-11.2-6-22.5-9-34c-3-11.4-6-22.8-9-34v67.9L61,166.6L61,166.6z"></path>
</g>
</svg><style>@media (prefers-color-scheme: light) { :root { filter: none; } }
</style></svg>