<svg width="241" height="34" viewBox="0 0 241 34" fill="none" xmlns="http://www.w3.org/2000/svg">
<path d="M151.202 9.83835C149.234 9.83835 147.678 10.2718 146.653 11.3553L145.464 12.6128H145.108H143.984C142.87 10.7622 140.912 9.83835 138.084 9.83835C136.115 9.83835 134.559 10.2718 133.535 11.3553L132.345 12.6128H131.156L130.585 10.2718H126.483V33.0719H132.019V19.1141C132.019 16.428 133.332 15.0394 135.953 15.0394C138.413 15.0394 139.561 16.2969 139.561 19.1141V33.0719H145.095V19.0286L145.138 19.0799C145.149 16.4138 146.459 15.0394 149.072 15.0394C151.531 15.0394 152.68 16.2969 152.68 19.1141V33.0719H158.213V17.5544C158.213 12.3961 155.919 9.83835 151.202 9.83835ZM186.684 28.1304H192.63V15.1677H187.382V10.2718H196.604L197.138 12.6128H198.368L199.557 11.3553C200.541 10.2718 202.1 9.83835 204.106 9.83835H207.593V15.0822H202.14C199.517 15.0822 198.163 16.4252 198.163 18.8974V28.1304H205.05V33.0719H186.686V28.1304H186.684ZM171.383 29.1284C174.212 29.1284 175.811 27.5686 175.811 24.8369V23.4055H171.588C169.253 23.4055 168.064 24.4463 168.064 26.3539C168.061 28.0448 169.005 29.1284 171.383 29.1284ZM162.447 26.9156C162.447 22.4075 165.276 20.0237 170.194 20.0237H175.811V18.3328C175.811 15.5156 174.622 14.3436 172.163 14.3436C170.073 14.3436 168.595 15.2105 168.433 17.3348H163.431C163.596 12.6099 166.71 9.83549 172.613 9.83549C178.516 9.83549 181.345 12.5216 181.345 18.0705V33.0691H177.081L176.547 30.728H175.358L174.169 31.9855C173.185 33.0263 171.629 33.5025 169.536 33.5025C164.906 33.5053 162.447 31.1643 162.447 26.9156ZM109.376 23.4911H106.957V33.0691H101.424V0.993164H106.957V18.2872H109.457L115.114 10.2689H121.427L114.09 20.8905L121.672 33.0691H115.155L109.376 23.4911ZM75.8174 21.6718C75.8174 13.6507 79.3418 9.83835 86.0643 9.83835C92.2125 9.83835 95.451 13.0462 95.6155 18.9829H90.244C89.9986 16.0802 88.6045 14.7799 86.0616 14.7799C82.904 14.7799 81.5125 16.7759 81.5125 21.6718C81.5125 26.5678 82.9067 28.5638 86.0616 28.5638C88.6449 28.5638 90.0795 27.2635 90.2844 24.0984H95.7369C95.5724 30.2518 92.2502 33.5053 86.0616 33.5053C79.3418 33.5053 75.8174 29.6473 75.8174 21.6718ZM65.7835 18.9829C65.6999 15.8635 64.2653 14.1725 61.3962 14.1725C58.6511 14.1725 57.1329 15.6895 56.6422 18.9829H65.7835ZM51.0657 21.6718C51.0657 13.6507 54.6332 9.83835 61.3962 9.83835C68.4072 9.83835 71.6458 13.8275 70.8665 22.6698H56.5181C56.7231 27.178 58.2412 29.0856 61.4366 29.0856C63.7719 29.0856 65.3305 28.0876 65.6999 26.0517H70.7829C70.2921 30.7765 66.8891 33.5082 61.2722 33.5082C54.5928 33.5053 51.0657 29.6473 51.0657 21.6718ZM26.918 0.993164H32.4513V8.58086L31.9605 12.3077L33.1093 12.6099L34.2985 11.3525C35.3232 10.2689 36.7577 9.83549 38.6831 9.83549C43.3158 9.83549 45.5296 12.3932 45.5296 17.5515V33.0691H39.9963V19.1112C39.9963 16.294 38.8476 15.0365 36.3883 15.0365C33.7645 15.0365 32.4513 16.4252 32.4513 19.1112V33.0691H26.918V0.993164ZM0.553711 18.1161C0.553711 7.23498 3.87318 2.46736 11.4586 2.46736C18.2647 2.46736 21.541 6.36814 21.8296 14.5176H16.2126C16.0077 10.0094 14.5327 7.92788 11.4586 7.92788C7.8506 7.92788 6.41603 10.7451 6.41603 18.1132C6.41603 25.6981 7.76701 28.2986 11.4586 28.2986C14.6163 28.2986 16.0508 26.4338 16.2962 21.6234H21.9941C21.6651 29.8583 18.2647 33.762 11.4586 33.762C3.87318 33.7648 0.553711 28.9972 0.553711 18.1161Z" fill="white"/>
<path d="M235.847 3.99885L223.524 18.0964C223.271 18.3644 222.807 18.3673 222.569 18.1249L216.238 10.3633L216.206 10.3262C215.661 9.74736 214.909 9.43941 214.137 9.47648C213.363 9.51355 212.633 9.89849 212.136 10.5344C211.692 11.1018 211.478 11.8289 211.535 12.5788C211.589 13.3031 211.886 13.9846 212.393 14.5178L219.671 21.1474C219.797 21.2843 219.867 21.4668 219.867 21.6578C219.867 21.8489 219.797 22.0314 219.692 22.1483L212.414 28.7751L212.382 28.8093C211.856 29.3653 211.551 30.1352 211.54 30.9279C211.53 31.7577 211.832 32.519 212.387 33.0665C212.646 33.3203 212.943 33.517 213.272 33.651C213.919 33.9134 214.655 33.9077 215.297 33.6339C215.639 33.4885 215.944 33.2718 216.224 32.9752L222.553 25.2164C222.812 24.9513 223.262 24.9513 223.5 25.1936L229.834 32.9581L229.866 32.9923C230.128 33.2689 230.435 33.4856 230.778 33.6311C231.107 33.7736 231.455 33.8449 231.813 33.8449C232.153 33.8449 232.487 33.7793 232.806 33.651C233.135 33.517 233.431 33.3203 233.687 33.0665C234.246 32.519 234.545 31.7577 234.534 30.9279C234.523 30.138 234.216 29.3653 233.674 28.7922L226.404 22.1711C226.277 22.0342 226.207 21.8517 226.207 21.6607C226.207 21.4668 226.277 21.2815 226.388 21.1645L239.706 8.15055C240.194 7.63444 240.491 6.95295 240.545 6.22868C240.601 5.4759 240.388 4.75163 239.943 4.18134C239.447 3.54547 238.716 3.16053 237.943 3.12346C237.899 3.12061 237.859 3.12061 237.816 3.12061C237.088 3.12346 236.381 3.43426 235.847 3.99885Z" fill="#4096D2"/>
<path d="M240.539 6.23259C240.596 5.47981 240.383 4.75554 239.938 4.18525C239.442 3.54938 238.711 3.16443 237.937 3.12736C237.894 3.12451 237.854 3.12451 237.811 3.12451C237.088 3.12451 236.379 3.43532 235.845 3.99991L223.521 18.0975C223.268 18.3655 222.804 18.3683 222.567 18.126L216.235 10.3643L216.203 10.3273C215.658 9.74842 214.906 9.44046 214.135 9.47753C213.361 9.5146 212.63 9.89954 212.134 10.5354C211.689 11.1029 211.476 11.83 211.533 12.5799C211.587 13.3042 211.883 13.9857 212.39 14.5189L217.95 19.5831L220.062 21.5049C221.82 23.1074 224.438 23.059 226.143 21.3937L227.777 19.7998L239.698 8.15161C240.186 7.6355 240.486 6.954 240.539 6.23259Z" fill="#F05680"/>
</svg>
