<svg width="319" height="91" viewBox="0 0 319 91" fill="none" xmlns="http://www.w3.org/2000/svg">
<path d="M77.0872 65.3116C76.3619 65.3116 75.8179 65.4476 75.4552 65.8102L75.0472 66.2183H74.9112H74.5032C74.0952 65.5836 73.4151 65.2662 72.3725 65.2662C71.6471 65.2662 71.1031 65.4022 70.7404 65.7649L70.3324 66.1729H69.9244L69.6978 65.3569H68.2017V73.1091H70.1964V68.349C70.1964 67.4423 70.6498 66.9436 71.6018 66.9436C72.5085 66.9436 72.9165 67.3516 72.9165 68.349V73.1091H74.9112V68.3036C74.9112 67.3969 75.4099 66.9436 76.3166 66.9436C77.2233 66.9436 77.6313 67.3516 77.6313 68.349V73.1091H79.6259V67.805C79.6259 66.1729 78.8099 65.3116 77.0872 65.3116ZM89.9169 71.5224H92.0475V67.1249H90.1435V65.4476H93.4529L93.6342 66.2636H94.0876L94.4956 65.8556C94.8583 65.4929 95.4023 65.3569 96.1276 65.3569H97.397V67.1249H95.4476C94.4956 67.1249 93.9969 67.5783 93.9969 68.4397V71.5677H96.4903V73.2451H89.8715L89.9169 71.5224ZM84.386 71.885C85.3834 71.885 85.9727 71.341 85.9727 70.4343V69.9357H84.4314C83.5701 69.9357 83.162 70.2984 83.162 70.933C83.162 71.5224 83.5247 71.885 84.386 71.885ZM81.1673 71.1144C81.1673 69.573 82.1647 68.757 83.9781 68.757H86.0181V68.1676C86.0181 67.2156 85.6101 66.8076 84.7034 66.8076C83.9327 66.8076 83.4341 67.1249 83.3434 67.805H81.53C81.5754 66.1729 82.7087 65.2662 84.8394 65.2662C86.9701 65.2662 87.9675 66.1729 87.9675 68.077V73.1998H86.4261L86.2448 72.3837H85.8368L85.4288 72.7917C85.0661 73.1544 84.5221 73.2904 83.7514 73.2904C82.0287 73.3811 81.1673 72.5651 81.1673 71.1144ZM62.0363 69.9357H61.1749V73.1998H59.1802V62.2742H61.1749V68.1676H62.0816L64.1216 65.4476H66.3884L63.7589 69.0743L66.479 73.2451H64.1216L62.0363 69.9357ZM49.932 69.3463C49.932 66.6263 51.2014 65.3116 53.6041 65.3116C55.8255 65.3116 57.0042 66.3996 57.0495 68.4397H55.1001C55.0094 67.4423 54.5108 66.9889 53.6041 66.9889C52.4707 66.9889 51.972 67.669 51.972 69.3463C51.972 71.0237 52.4707 71.7037 53.6041 71.7037C54.5561 71.7037 55.0548 71.2504 55.1454 70.1623H57.0948C57.0495 72.2477 55.8255 73.3811 53.6041 73.3811C51.2014 73.3811 49.932 72.0664 49.932 69.3463ZM46.3052 68.3943C46.2599 67.3516 45.7612 66.7623 44.7185 66.7623C43.7212 66.7623 43.1772 67.2609 42.9959 68.3943H46.3052ZM41.0012 69.3463C41.0012 66.6263 42.2705 65.3116 44.7185 65.3116C47.2573 65.3116 48.3906 66.6716 48.1186 69.6637H42.9505C43.0412 71.205 43.5852 71.8397 44.7185 71.8397C45.5799 71.8397 46.1239 71.477 46.2599 70.797H48.0733C47.892 72.429 46.6679 73.3357 44.6279 73.3357C42.2705 73.3811 41.0012 72.0664 41.0012 69.3463ZM32.297 62.2742H34.2917V64.8582L34.1104 66.1276L34.5183 66.2183L34.9263 65.8102C35.289 65.4476 35.833 65.3116 36.513 65.3116C38.1904 65.3116 38.9611 66.1729 38.9611 67.941V73.2451H36.9664V68.485C36.9664 67.533 36.5584 67.0796 35.6517 67.0796C34.6997 67.0796 34.2463 67.533 34.2463 68.485V73.2451H32.2516V62.2742H32.297ZM22.8221 68.1223C22.8221 64.4049 24.0008 62.7729 26.7662 62.7729C29.2142 62.7729 30.393 64.0875 30.4836 66.8983H28.4436C28.3529 65.3569 27.8542 64.6316 26.7209 64.6316C25.4062 64.6316 24.9075 65.5836 24.9075 68.1223C24.9075 70.7064 25.4062 71.6131 26.7209 71.6131C27.8542 71.6131 28.3982 70.9784 28.4436 69.3463H30.4836C30.3476 72.1571 29.1236 73.4717 26.6755 73.4717C24.0008 73.4717 22.8221 71.8397 22.8221 68.1223Z" fill="white"/>
<path d="M107.597 63.3168L103.154 68.1222C103.063 68.2129 102.882 68.2129 102.791 68.1222L100.525 65.4928C100.343 65.3115 100.071 65.1755 99.7994 65.2208C99.5274 65.2208 99.2554 65.3568 99.074 65.5835C98.8927 65.7648 98.8474 66.0368 98.8474 66.2635C98.8474 66.4902 98.9834 66.7622 99.1647 66.9435L101.794 69.2102C101.839 69.2556 101.885 69.3009 101.885 69.3916C101.885 69.4822 101.839 69.5276 101.839 69.5729L99.2101 71.8396C99.0287 72.021 98.8927 72.293 98.8927 72.565C98.8927 72.837 98.9834 73.109 99.2101 73.2903C99.3007 73.381 99.3914 73.4263 99.5274 73.4717C99.754 73.5623 100.026 73.5623 100.253 73.4717C100.389 73.4263 100.479 73.3356 100.57 73.245L102.837 70.6156C102.927 70.5249 103.109 70.5249 103.199 70.6156L105.466 73.245C105.557 73.3356 105.693 73.4263 105.784 73.4717C105.92 73.517 106.01 73.5623 106.146 73.5623C106.282 73.5623 106.373 73.5623 106.509 73.517C106.645 73.4716 106.736 73.4263 106.826 73.3357C107.008 73.1543 107.144 72.8823 107.144 72.6103C107.144 72.3383 107.008 72.0663 106.826 71.885L104.197 69.6182C104.151 69.5729 104.106 69.5276 104.106 69.4369C104.106 69.3916 104.152 69.3009 104.152 69.2556L108.957 64.8128C109.138 64.6315 109.229 64.4048 109.274 64.1781C109.274 63.9061 109.229 63.6794 109.048 63.4981C108.866 63.2714 108.594 63.1354 108.322 63.1354H108.277C108.05 62.9994 107.824 63.0901 107.597 63.3168Z" fill="#4094D0"/>
<path d="M109.32 64.0874C109.32 63.8154 109.274 63.5887 109.093 63.4073C108.912 63.1807 108.64 63.0447 108.368 63.0447H108.322C108.05 63.0447 107.824 63.1354 107.597 63.362L103.154 68.1674C103.063 68.2581 102.882 68.2581 102.791 68.1674L100.525 65.5381C100.343 65.3567 100.071 65.2207 99.7994 65.2661C99.5274 65.2661 99.2554 65.4021 99.074 65.6287C98.8927 65.8101 98.8474 66.0821 98.8474 66.3088C98.8474 66.5354 98.9834 66.8074 99.1647 66.9888L101.159 68.7115L101.93 69.3462C102.565 69.8902 103.517 69.8902 104.106 69.3008L104.695 68.7568L109.002 64.7674C109.184 64.5407 109.274 64.314 109.32 64.0874Z" fill="#EB5780"/>
<path d="M6.54699 73.5622C6.00298 73.5622 5.50432 73.4262 5.09631 73.1995C4.6883 72.9275 4.37092 72.6101 4.14425 72.1568L3.96295 73.3808H2.42158V62.2739H4.28027V66.898C4.50694 66.49 4.77895 66.1273 5.18696 65.9007C5.59497 65.6287 6.09362 65.538 6.63763 65.538C7.27231 65.538 7.77099 65.7193 8.22433 66.0367C8.67768 66.354 9.04036 66.8527 9.31237 67.442C9.58437 68.0314 9.67506 68.7567 9.67506 69.5274C9.67506 70.3434 9.53905 71.0234 9.26704 71.6581C8.99504 72.2475 8.63235 72.7461 8.17901 73.0635C7.72567 73.3808 7.18167 73.5622 6.54699 73.5622ZM5.95762 72.1568C6.54696 72.1568 6.95498 71.9301 7.27232 71.4768C7.58966 71.0234 7.77099 70.3888 7.77099 69.5728C7.77099 68.7567 7.63499 68.1221 7.31765 67.6687C7.00031 67.2154 6.54696 66.9434 5.95762 66.9434C5.41361 66.9434 5.00563 67.17 4.68829 67.578C4.37095 67.9861 4.23495 68.5754 4.23495 69.3007V69.7994C4.23495 70.5248 4.37095 71.0688 4.68829 71.4768C4.9603 71.9301 5.41361 72.1568 5.95762 72.1568Z" fill="white"/>
<path d="M11.6248 76.4184C11.3981 76.4184 11.1261 76.373 10.7635 76.3277V74.877C10.9448 74.9223 11.1714 74.9223 11.3981 74.9223C11.8515 74.9223 12.2141 74.8317 12.4408 74.6503C12.7128 74.469 12.8942 74.1516 13.0755 73.7436L13.2115 73.2903L10.2194 65.7195H12.2595L13.9369 70.7063C14.0275 71.0236 14.1182 71.3409 14.1635 71.6129H14.2089C14.2542 71.4769 14.2995 71.1596 14.4355 70.7063L15.9769 65.7195H17.8809L15.0249 73.789C14.7075 74.741 14.2542 75.421 13.7102 75.829C13.1662 76.237 12.4861 76.4184 11.6248 76.4184Z" fill="white"/>
<path fill-rule="evenodd" clip-rule="evenodd" d="M308.064 0.347412V10.7743H318.491V0.347412H308.064ZM297.637 21.2465V10.8196H308.064V21.2465H297.637ZM287.211 21.2465V31.6734H297.637V21.2465H287.211ZM276.738 52.5272V42.1003H287.165V31.6734H276.738V42.1003H266.311V52.5272H276.738ZM255.885 42.1003V31.6734H266.311V42.1003H255.885ZM245.458 21.2465V31.6734H255.885V21.2465H245.458Z" fill="url(#paint0_linear_70_3572)"/>
<path d="M15.8406 52.5273C12.4859 52.5273 9.62982 51.8473 7.27244 50.4872C4.96039 49.0819 3.19237 47.1325 1.96835 44.6391C0.744322 42.1004 0.154976 39.1083 0.154976 35.7083C0.154976 32.3082 0.789634 29.3615 2.05899 26.8227C3.32835 24.284 5.14173 22.3346 7.49911 20.9293C9.90183 19.5239 12.7125 18.7986 15.9313 18.7986C19.966 18.7986 23.2755 19.8413 25.7689 21.9266C28.2622 23.9667 29.7582 26.7774 30.1663 30.3588L22.4141 31.7189C22.1874 29.5881 21.4621 27.9108 20.3287 26.7321C19.1954 25.5534 17.654 24.964 15.75 24.964C13.3473 24.964 11.4432 25.9161 10.0378 27.8654C8.67779 29.7695 7.99778 32.3535 7.99778 35.6629C7.99778 38.8817 8.67783 41.4657 10.0832 43.4151C11.4886 45.3645 13.4833 46.3165 15.9767 46.3165C17.7447 46.3165 19.2407 45.7271 20.3741 44.5938C21.5074 43.4151 22.2781 41.7831 22.5954 39.6977L30.3476 41.3751C29.5769 44.8658 27.8995 47.5858 25.4062 49.5805C22.9128 51.5753 19.7394 52.5273 15.8406 52.5273ZM34.2917 51.7566V18.8892H41.5905V33.1242C42.9959 30.0868 45.3986 28.5455 48.7986 28.5455C51.2467 28.5455 53.1054 29.3161 54.3295 30.8575C55.5535 32.3535 56.1881 34.6202 56.1881 37.6576V51.7566H48.9347V38.383C48.9347 35.5269 47.8013 34.0762 45.5799 34.0762C44.2652 34.0762 43.2679 34.5296 42.5879 35.4816C41.9078 36.4336 41.5905 37.7936 41.5905 39.5617V51.7566H34.2917ZM82.7994 42.0551H67.0684C67.1137 43.5964 67.567 44.8204 68.5191 45.7271C69.4711 46.6338 70.7405 47.0872 72.2818 47.0872C74.5032 47.0872 76.1806 46.0445 77.2233 43.9138L82.5727 46.3618C81.666 48.2205 80.306 49.7166 78.4473 50.7593C76.6339 51.8019 74.5486 52.3006 72.1912 52.3006C68.4284 52.3006 65.4817 51.2579 63.351 49.2179C61.2203 47.1778 60.1776 44.3218 60.1776 40.6497C60.1776 38.2016 60.6309 36.0709 61.5829 34.2576C62.535 32.3989 63.8496 30.9935 65.5723 30.0415C67.3404 29.0441 69.3804 28.5455 71.6925 28.5455C75.2739 28.5455 77.994 29.5428 79.898 31.5375C81.8474 33.4869 82.7994 36.2976 82.7994 39.879V42.0551ZM75.7725 37.975V37.7936C75.7725 36.2069 75.4099 34.9829 74.6846 34.1216C73.9592 33.2602 72.9165 32.8522 71.5565 32.8522C70.1511 32.8522 69.0631 33.3056 68.2924 34.2122C67.5217 35.0736 67.1137 36.3429 67.0684 37.975H75.7725ZM97.5784 52.3006C95.221 52.3006 93.1356 51.8019 91.3222 50.8499C89.5089 49.8525 88.1035 48.4472 87.1061 46.6792C86.1541 44.9111 85.6554 42.8257 85.6554 40.423C85.6554 36.7509 86.7434 33.8496 88.8742 31.7189C91.0049 29.5881 93.9516 28.5455 97.669 28.5455C100.616 28.5455 103.064 29.2255 104.923 30.6308C106.827 32.0362 108.005 33.9855 108.413 36.5696L101.568 37.975C101.341 36.6603 100.888 35.6176 100.208 34.9376C99.5277 34.2576 98.621 33.8949 97.4877 33.8949C96.0823 33.8949 94.9943 34.4389 94.2236 35.5723C93.4529 36.7056 93.045 38.247 93.045 40.1963C93.045 42.3271 93.4529 44.0044 94.2236 45.1831C94.9943 46.3165 96.1276 46.9058 97.533 46.9058C98.6664 46.9058 99.573 46.5432 100.253 45.8178C100.933 45.0925 101.386 44.0498 101.613 42.6897L108.413 44.1858C108.005 46.6792 106.827 48.6285 104.877 50.1246C102.882 51.5753 100.48 52.3006 97.5784 52.3006ZM135.886 51.7566H127.771L122.376 42.5991L119.883 45.2738V51.7566H112.584V18.8892H119.883V37.975L127.227 29.0894H135.659L127.408 38.111L135.886 51.7566ZM139.286 29.0894H146.267V33.1695C146.993 31.5828 147.899 30.4495 149.033 29.6788C150.166 28.9081 151.571 28.5455 153.249 28.5455C154.881 28.5455 156.196 28.9081 157.238 29.6788C158.281 30.4495 159.097 31.6282 159.686 33.2149C160.502 31.6282 161.5 30.4948 162.678 29.7241C163.902 28.9535 165.308 28.5455 166.94 28.5455C169.161 28.5455 170.839 29.2708 172.063 30.7668C173.287 32.2175 173.921 34.2576 173.921 36.9323V51.7566H166.668V38.4736C166.668 36.9776 166.441 35.8443 165.942 35.1643C165.444 34.4389 164.673 34.0762 163.63 34.0762C162.542 34.0762 161.681 34.4842 161.092 35.3002C160.502 36.0709 160.23 37.2496 160.23 38.7457V51.7566H152.977V38.4283C152.977 35.5269 151.98 34.0762 149.985 34.0762C148.897 34.0762 148.035 34.4842 147.446 35.3002C146.857 36.1163 146.585 37.295 146.585 38.791V51.7566H139.286V29.0894ZM185.572 52.3006C183.26 52.3006 181.356 51.7113 179.905 50.4872C178.5 49.2632 177.775 47.6312 177.775 45.5911C177.775 43.4151 178.545 41.7831 180.087 40.695C181.583 39.6524 183.986 38.8817 187.204 38.4736L192.69 37.703V36.9323C192.69 35.6629 192.418 34.7109 191.874 34.1216C191.33 33.5322 190.468 33.2149 189.335 33.2149C188.202 33.2149 187.34 33.4869 186.706 34.0762C186.116 34.6656 185.754 35.4816 185.708 36.5696H178.5C178.681 34.0762 179.724 32.0815 181.628 30.6761C183.577 29.2708 186.162 28.5455 189.38 28.5455C193.052 28.5455 195.727 29.3161 197.404 30.8122C199.082 32.3082 199.943 34.6656 199.943 37.9296V45.4551C199.943 48.2205 200.17 50.3059 200.578 51.7566H193.506C193.324 50.8499 193.188 49.6712 193.143 48.1752C192.554 49.4446 191.602 50.4419 190.242 51.2126C188.882 51.938 187.34 52.3006 185.572 52.3006ZM188.292 47.6765C189.698 47.6765 190.786 47.2685 191.647 46.4071C192.508 45.5458 192.916 44.4578 192.916 43.0978V41.2844L189.018 41.9191C187.703 42.1457 186.706 42.5538 186.071 43.0524C185.436 43.5511 185.119 44.1858 185.119 45.0471C185.119 45.8178 185.391 46.4525 185.98 46.9512C186.57 47.4498 187.34 47.6765 188.292 47.6765ZM202.346 33.9402V29.0894H206.29V23.6493L213.543 20.8386V29.0894H218.938V33.9402H213.543V42.7351C213.543 45.0471 214.632 46.1805 216.853 46.1805C217.488 46.1805 218.168 46.0898 218.938 45.9538V51.7113C217.352 52.0286 215.946 52.1646 214.813 52.1646C211.866 52.1646 209.69 51.5299 208.33 50.2152C206.97 48.9005 206.29 46.9965 206.29 44.4578V33.9402H202.346ZM243.827 42.0551H228.096C228.141 43.5964 228.594 44.8204 229.546 45.7271C230.499 46.6338 231.768 47.0872 233.309 47.0872C235.531 47.0872 237.208 46.0445 238.251 43.9138L243.6 46.3618C242.693 48.2205 241.333 49.7166 239.475 50.7593C237.661 51.8019 235.576 52.3006 233.219 52.3006C229.456 52.3006 226.509 51.2579 224.378 49.2179C222.248 47.1778 221.205 44.3218 221.205 40.6497C221.205 38.2016 221.658 36.0709 222.61 34.2576C223.562 32.3989 224.877 30.9935 226.6 30.0415C228.368 29.0441 230.408 28.5455 232.72 28.5455C236.301 28.5455 239.021 29.5428 240.925 31.5375C242.875 33.4869 243.827 36.2976 243.827 39.879V42.0551ZM236.8 37.975V37.7936C236.8 36.2069 236.437 34.9829 235.712 34.1216C234.987 33.2602 233.944 32.8522 232.584 32.8522C231.179 32.8522 230.09 33.3056 229.32 34.2122C228.549 35.0736 228.141 36.3429 228.096 37.975H236.8Z" fill="white"/>
<path d="M198.13 85.8024C202.527 83.1277 205.882 80.725 208.149 78.6396C209.509 77.3703 210.461 76.1916 211.05 75.0582C211.64 73.9248 211.912 72.7008 211.912 71.3408C211.912 70.0261 211.594 69.0287 211.005 68.3487C210.416 67.6234 209.509 67.306 208.33 67.306C207.152 67.306 206.245 67.6687 205.565 68.3487C204.885 69.0741 204.567 70.0261 204.567 71.2955C204.567 71.8395 204.658 72.5648 204.839 73.5622L198.311 72.9275C198.13 72.2021 198.085 71.4768 198.085 70.7968C198.085 69.0741 198.538 67.578 199.399 66.3087C200.261 65.0393 201.485 64.042 203.071 63.3166C204.658 62.5913 206.517 62.2739 208.693 62.2739C211.866 62.2739 214.36 63.0446 216.128 64.5406C217.896 66.0367 218.802 68.1674 218.802 70.9328C218.802 72.7462 218.394 74.4688 217.578 76.1009C216.762 77.6876 215.493 79.2743 213.816 80.7703C212.002 82.357 209.69 83.9437 206.925 85.4851H219.029V90.6079H198.13V85.8024Z" fill="white"/>
<path d="M222.022 85.8027C226.419 83.128 229.774 80.7252 232.041 78.6399C233.401 77.3705 234.353 76.1918 234.942 75.0584C235.531 73.9251 235.803 72.7011 235.803 71.341C235.803 70.0263 235.486 69.029 234.897 68.349C234.307 67.6236 233.401 67.3063 232.222 67.3063C231.043 67.3063 230.136 67.669 229.456 68.349C228.776 69.0743 228.459 70.0263 228.459 71.2957C228.459 71.8397 228.55 72.5651 228.731 73.5624L222.203 72.9277C222.022 72.2024 221.976 71.477 221.976 70.797C221.976 69.0743 222.43 67.5783 223.291 66.3089C224.152 65.0396 225.376 64.0422 226.963 63.3169C228.55 62.5915 230.408 62.2742 232.584 62.2742C235.758 62.2742 238.251 63.0449 240.019 64.5409C241.787 66.0369 242.694 68.1676 242.694 70.933C242.694 72.7464 242.286 74.4691 241.47 76.1011C240.654 77.6878 239.385 79.2745 237.707 80.7706C235.894 82.3573 233.582 83.944 230.816 85.4853H242.921V90.6081H222.022V85.8027Z" fill="white"/>
<path d="M148.852 15.2625H154.02V18.2999H148.852V23.5134H145.588V18.2999H140.42V15.2625H145.588V10.0491H148.852V15.2625Z" fill="white"/>
<path d="M166.396 15.2625H171.564V18.2999H166.396V23.5134H163.132V18.2999H157.964V15.2625H163.132V10.0491H166.396V15.2625Z" fill="white"/>
<defs>
<linearGradient id="paint0_linear_70_3572" x1="281.972" y1="0.367042" x2="281.972" y2="52.549" gradientUnits="userSpaceOnUse">
<stop stop-color="#3C94D1"/>
<stop offset="1" stop-color="#EF83B3"/>
</linearGradient>
</defs>
</svg>
