<svg width="240" height="35" viewBox="0 0 240 35" fill="none" xmlns="http://www.w3.org/2000/svg">
<path d="M27.5348 11.4727H24.5305C24.3068 10.354 23.902 9.32067 23.316 8.37251C22.7407 7.41371 22.0163 6.57741 21.1427 5.86364C20.2691 5.14986 19.2784 4.59588 18.1704 4.2017C17.0625 3.80753 15.864 3.61044 14.5749 3.61044C12.5081 3.61044 10.6225 4.14844 8.91794 5.22443C7.22405 6.30042 5.86574 7.88246 4.84301 9.97053C3.83093 12.0479 3.3249 14.5941 3.3249 17.609C3.3249 20.6452 3.83093 23.2021 4.84301 25.2795C5.86574 27.3569 7.22405 28.9336 8.91794 30.0096C10.6225 31.0749 12.5081 31.6076 14.5749 31.6076C15.864 31.6076 17.0625 31.4105 18.1704 31.0163C19.2784 30.6222 20.2691 30.0735 21.1427 29.3704C22.0163 28.6566 22.7407 27.8203 23.316 26.8615C23.902 25.9027 24.3068 24.864 24.5305 23.7454H27.5348C27.2684 25.2475 26.7677 26.6484 26.0326 27.9482C25.3082 29.2372 24.3814 30.3665 23.2521 31.3359C22.1335 32.3054 20.8444 33.0618 19.3849 33.6051C17.9254 34.1484 16.3221 34.4201 14.5749 34.4201C11.8263 34.4201 9.38669 33.733 7.25601 32.3587C5.12532 30.9737 3.45274 29.0241 2.23825 26.5099C1.03441 23.9957 0.432496 21.0288 0.432496 17.609C0.432496 14.1893 1.03441 11.2223 2.23825 8.7081C3.45274 6.19389 5.12532 4.24964 7.25601 2.87535C9.38669 1.49041 11.8263 0.797939 14.5749 0.797939C16.3221 0.797939 17.9254 1.0696 19.3849 1.61293C20.8444 2.1456 22.1335 2.90199 23.2521 3.8821C24.3814 4.85156 25.3082 5.98082 26.0326 7.26989C26.7677 8.55895 27.2684 9.95987 27.5348 11.4727ZM44.4029 34.484C42.2829 34.484 40.4079 33.946 38.7779 32.87C37.1586 31.794 35.8908 30.3079 34.9746 28.4116C34.0584 26.5046 33.6003 24.3047 33.6003 21.8118C33.6003 19.2976 34.0584 17.087 34.9746 15.18C35.8908 13.2624 37.1586 11.771 38.7779 10.7056C40.4079 9.62962 42.2829 9.09162 44.4029 9.09162C46.5229 9.09162 48.3926 9.62962 50.0119 10.7056C51.6312 11.7816 52.899 13.2731 53.8152 15.18C54.742 17.087 55.2055 19.2976 55.2055 21.8118C55.2055 24.3047 54.7474 26.5046 53.8312 28.4116C52.915 30.3079 51.6419 31.794 50.0119 32.87C48.3926 33.946 46.5229 34.484 44.4029 34.484ZM44.4029 31.8793C46.1074 31.8793 47.551 31.4212 48.7335 30.505C49.916 29.5888 50.8109 28.369 51.4182 26.8455C52.0361 25.3221 52.345 23.6442 52.345 21.8118C52.345 19.9794 52.0361 18.2962 51.4182 16.7621C50.8109 15.228 49.916 13.9975 48.7335 13.0707C47.551 12.1438 46.1074 11.6804 44.4029 11.6804C42.709 11.6804 41.2655 12.1438 40.0723 13.0707C38.8898 13.9975 37.9895 15.228 37.3716 16.7621C36.7644 18.2962 36.4608 19.9794 36.4608 21.8118C36.4608 23.6442 36.7644 25.3221 37.3716 26.8455C37.9895 28.369 38.8898 29.5888 40.0723 30.505C41.2548 31.4212 42.6984 31.8793 44.4029 31.8793ZM65.1941 18.6317V33.9727H62.3497V9.4272H65.1142V13.2784H65.3699C65.9452 12.0213 66.8401 11.0146 68.0546 10.2582C69.2797 9.49112 70.7925 9.1076 72.5929 9.1076C74.2442 9.1076 75.6931 9.45384 76.9395 10.1463C78.1966 10.8281 79.1714 11.8349 79.8639 13.1665C80.567 14.4982 80.9186 16.1335 80.9186 18.0724V33.9727H78.0741V18.2482C78.0741 16.2347 77.5095 14.642 76.3802 13.4702C75.2616 12.2983 73.7595 11.7124 71.8738 11.7124C70.5848 11.7124 69.4395 11.9893 68.4381 12.5433C67.4367 13.0973 66.643 13.8963 66.0571 14.9403C65.4818 15.9737 65.1941 17.2042 65.1941 18.6317ZM92.1537 18.6317V33.9727H89.3093V9.4272H92.0738V13.2784H92.3295C92.9048 12.0213 93.7997 11.0146 95.0142 10.2582C96.2393 9.49112 97.7521 9.1076 99.5525 9.1076C101.204 9.1076 102.653 9.45384 103.899 10.1463C105.156 10.8281 106.131 11.8349 106.823 13.1665C107.527 14.4982 107.878 16.1335 107.878 18.0724V33.9727H105.034V18.2482C105.034 16.2347 104.469 14.642 103.34 13.4702C102.221 12.2983 100.719 11.7124 98.8334 11.7124C97.5443 11.7124 96.3991 11.9893 95.3977 12.5433C94.3963 13.0973 93.6026 13.8963 93.0166 14.9403C92.4414 15.9737 92.1537 17.2042 92.1537 18.6317ZM126.192 34.484C123.902 34.484 121.92 33.9513 120.248 32.886C118.575 31.81 117.281 30.3239 116.365 28.4276C115.459 26.5206 115.006 24.326 115.006 21.8438C115.006 19.3722 115.459 17.1776 116.365 15.2599C117.281 13.3317 118.543 11.8242 120.152 10.7376C121.771 9.64027 123.641 9.09162 125.761 9.09162C127.093 9.09162 128.376 9.33665 129.612 9.8267C130.848 10.3061 131.956 11.0465 132.936 12.0479C133.927 13.0387 134.71 14.2905 135.285 15.8033C135.86 17.3054 136.148 19.0845 136.148 21.1406V22.5469H116.972V20.038H133.24C133.24 18.4613 132.92 17.0444 132.281 15.7873C131.652 14.5195 130.773 13.5181 129.644 12.783C128.526 12.0479 127.231 11.6804 125.761 11.6804C124.206 11.6804 122.837 12.0959 121.654 12.9268C120.472 13.7578 119.545 14.8551 118.874 16.2188C118.213 17.5824 117.877 19.0739 117.867 20.6932V22.1953C117.867 24.1449 118.202 25.8494 118.874 27.3089C119.555 28.7578 120.52 29.8817 121.766 30.6808C123.012 31.4798 124.488 31.8793 126.192 31.8793C127.354 31.8793 128.371 31.6982 129.245 31.3359C130.129 30.9737 130.869 30.489 131.466 29.8817C132.073 29.2638 132.531 28.5874 132.84 27.8523L135.541 28.7312C135.168 29.7646 134.555 30.718 133.703 31.5916C132.862 32.4652 131.807 33.1683 130.539 33.701C129.282 34.223 127.833 34.484 126.192 34.484ZM152.904 34.484C150.71 34.484 148.797 33.9354 147.167 32.8381C145.548 31.7408 144.291 30.2386 143.396 28.3317C142.501 26.4247 142.054 24.2514 142.054 21.8118C142.054 19.3509 142.507 17.1616 143.412 15.244C144.328 13.3263 145.596 11.8242 147.215 10.7376C148.835 9.64027 150.715 9.09162 152.856 9.09162C154.497 9.09162 155.983 9.41122 157.315 10.0504C158.647 10.679 159.744 11.5685 160.607 12.7191C161.48 13.859 162.029 15.1907 162.253 16.7141H159.376C159.078 15.3292 158.359 14.1467 157.219 13.1665C156.09 12.1758 154.652 11.6804 152.904 11.6804C151.338 11.6804 149.953 12.1065 148.75 12.9588C147.546 13.8004 146.603 14.9776 145.921 16.4904C145.25 17.9925 144.914 19.7344 144.914 21.7159C144.914 23.7081 145.245 25.4712 145.905 27.0053C146.566 28.5288 147.492 29.7219 148.686 30.5849C149.889 31.4478 151.296 31.8793 152.904 31.8793C153.991 31.8793 154.982 31.6768 155.877 31.272C156.782 30.8565 157.539 30.2706 158.146 29.5142C158.764 28.7578 159.179 27.8576 159.392 26.8136H162.269C162.056 28.2944 161.528 29.6154 160.687 30.7766C159.856 31.9272 158.774 32.8327 157.443 33.4933C156.122 34.1538 154.609 34.484 152.904 34.484ZM178.933 9.4272V11.9041H167.22V9.4272H178.933ZM170.879 3.54652H173.74V27.5646C173.74 28.5874 173.915 29.3917 174.267 29.9776C174.618 30.5529 175.077 30.9631 175.641 31.2081C176.206 31.4425 176.808 31.5597 177.447 31.5597C177.82 31.5597 178.139 31.5384 178.406 31.4957C178.672 31.4425 178.906 31.3892 179.109 31.3359L179.716 33.9087C179.439 34.0153 179.098 34.1112 178.693 34.1964C178.289 34.2923 177.788 34.3402 177.191 34.3402C176.147 34.3402 175.14 34.1112 174.171 33.6531C173.212 33.195 172.424 32.5131 171.806 31.6076C171.188 30.7021 170.879 29.5781 170.879 28.2358V3.54652ZM186.325 33.9727V9.4272H189.185V33.9727H186.325ZM187.779 5.20845C187.193 5.20845 186.693 5.01136 186.277 4.61719C185.862 4.21236 185.654 3.72763 185.654 3.163C185.654 2.59837 185.862 2.11896 186.277 1.72479C186.693 1.31996 187.193 1.11754 187.779 1.11754C188.365 1.11754 188.866 1.31996 189.281 1.72479C189.697 2.11896 189.905 2.59837 189.905 3.163C189.905 3.72763 189.697 4.21236 189.281 4.61719C188.866 5.01136 188.365 5.20845 187.779 5.20845ZM200.197 24.7042L200.165 20.9808H200.804L212.31 9.4272H215.905L204.543 20.805L204.288 20.853L200.197 24.7042ZM197.608 33.9727V1.24538H200.453V33.9727H197.608ZM212.901 33.9727L202.929 21.3643L204.975 19.3988L216.545 33.9727H212.901ZM229.006 34.532C227.525 34.532 226.172 34.2443 224.947 33.669C223.722 33.0831 222.747 32.2415 222.023 31.1442C221.298 30.0362 220.936 28.6939 220.936 27.1172C220.936 25.9027 221.165 24.88 221.623 24.049C222.081 23.218 222.731 22.5362 223.573 22.0036C224.415 21.4709 225.411 21.0501 226.561 20.7411C227.712 20.4322 228.98 20.1925 230.364 20.022C231.739 19.8516 232.9 19.7024 233.848 19.5746C234.807 19.4467 235.537 19.2443 236.037 18.9673C236.538 18.6903 236.788 18.2429 236.788 17.625V17.0497C236.788 15.3771 236.288 14.0614 235.286 13.1026C234.296 12.1332 232.868 11.6484 231.004 11.6484C229.235 11.6484 227.792 12.0373 226.673 12.815C225.565 13.5927 224.787 14.5089 224.34 15.5636L221.639 14.5888C222.193 13.2464 222.96 12.1758 223.94 11.3768C224.921 10.5671 226.018 9.98651 227.232 9.63494C228.447 9.27273 229.677 9.09162 230.924 9.09162C231.861 9.09162 232.836 9.21413 233.848 9.45916C234.871 9.70419 235.819 10.1303 236.693 10.7376C237.566 11.3342 238.275 12.1705 238.818 13.2464C239.361 14.3118 239.633 15.6648 239.633 17.3054V33.9727H236.788V30.0895H236.613C236.272 30.8139 235.766 31.517 235.095 32.1989C234.423 32.8807 233.582 33.44 232.57 33.8768C231.558 34.3136 230.37 34.532 229.006 34.532ZM229.39 31.9272C230.902 31.9272 232.213 31.5916 233.321 30.9205C234.429 30.2493 235.281 29.3597 235.878 28.2518C236.485 27.1332 236.788 25.9027 236.788 24.5604V21.0128C236.575 21.2152 236.218 21.3963 235.718 21.5561C235.228 21.7159 234.658 21.8597 234.008 21.9876C233.369 22.1048 232.73 22.206 232.09 22.2912C231.451 22.3764 230.876 22.451 230.364 22.5149C228.98 22.6854 227.797 22.9517 226.817 23.3139C225.837 23.6761 225.086 24.1768 224.564 24.8161C224.042 25.4446 223.781 26.2543 223.781 27.245C223.781 28.7365 224.313 29.8924 225.379 30.7127C226.444 31.5224 227.781 31.9272 229.39 31.9272Z" fill="#FFBE60"/>
</svg>
