<svg width="330" height="67" viewBox="0 0 330 67" fill="none" xmlns="http://www.w3.org/2000/svg">
<path d="M23.5479 0.841129H32.5515V38.667H23.5479V22.9506H9.00362V38.667H0V0.841129H9.00362V16.0247H23.5479V0.841129Z" fill="white"/>
<path d="M47.0313 39.3063C44.2965 39.3063 42.0767 38.5959 40.3719 37.1753C38.7025 35.719 37.8679 33.8011 37.8679 31.4215C37.8679 28.8642 38.7736 26.9463 40.585 25.6677C42.3608 24.4246 45.1489 23.5544 48.9493 23.0572L55.3956 22.1515V21.2458C55.3956 19.7541 55.076 18.653 54.4367 17.9427C53.7974 17.2323 52.8029 16.8772 51.4532 16.8772C50.1391 16.8772 49.1091 17.2146 48.3632 17.8894C47.6529 18.5642 47.2622 19.541 47.1912 20.8196H38.7203C38.9334 17.8716 40.1587 15.563 42.3963 13.8937C44.6694 12.2244 47.7062 11.3897 51.5065 11.3897C55.8041 11.3897 58.9474 12.2777 60.9363 14.0535C62.9253 15.7939 63.9198 18.582 63.9198 22.4178V31.2616C63.9198 34.4937 64.1684 36.9622 64.6656 38.667H56.3546C56.1415 37.6015 55.9994 36.1985 55.9284 34.4582C55.2536 35.9499 54.117 37.1397 52.5187 38.0277C50.9205 38.8801 49.0913 39.3063 47.0313 39.3063ZM50.2279 33.8722C51.8617 33.8722 53.1758 33.3749 54.1703 32.3804C55.1648 31.3859 55.662 30.0896 55.662 28.4913V26.3603L51.0803 27.1061C49.5175 27.3903 48.3632 27.8342 47.6174 28.438C46.8715 29.0063 46.4986 29.7877 46.4986 30.7822C46.4986 31.7056 46.836 32.4515 47.5108 33.0197C48.1856 33.588 49.0913 33.8722 50.2279 33.8722Z" fill="white"/>
<path d="M82.4752 39.3063C79.7048 39.3063 77.2541 38.738 75.1231 37.6015C72.9921 36.4294 71.3405 34.7956 70.1684 32.7001C69.0319 30.6046 68.4636 28.1539 68.4636 25.348C68.4636 21.0149 69.7245 17.6053 72.2462 15.1191C74.7679 12.6328 78.2131 11.3897 82.5817 11.3897C86.0624 11.3897 88.9038 12.2066 91.1059 13.8404C93.3434 15.4742 94.7109 17.8006 95.2081 20.8196L87.1634 22.4711C86.9148 20.9084 86.3821 19.7185 85.5652 18.9016C84.7483 18.0847 83.6828 17.6763 82.3686 17.6763C80.7348 17.6763 79.4562 18.3334 78.5328 19.6475C77.6093 20.9616 77.1476 22.773 77.1476 25.0816C77.1476 27.6034 77.6093 29.5568 78.5328 30.942C79.4562 32.2916 80.7526 32.9665 82.4219 32.9665C83.736 32.9665 84.8016 32.5403 85.6184 31.6878C86.4353 30.8354 86.9681 29.6101 87.2167 28.0118L95.2081 29.7699C94.7464 32.6823 93.3612 35.0087 91.0526 36.7491C88.744 38.4539 85.8848 39.3063 82.4752 39.3063Z" fill="white"/>
<path d="M108.721 38.667H100.144V0.0419922H108.721V38.667Z" fill="white"/>
<path d="M137.663 39.3063C134.928 39.3063 132.708 38.5959 131.003 37.1753C129.334 35.719 128.499 33.8011 128.499 31.4215C128.499 28.8642 129.405 26.9463 131.216 25.6677C132.992 24.4246 135.78 23.5544 139.581 23.0572L146.027 22.1515V21.2458C146.027 19.7541 145.707 18.653 145.068 17.9427C144.429 17.2323 143.434 16.8772 142.085 16.8772C140.77 16.8772 139.74 17.2146 138.995 17.8894C138.284 18.5642 137.894 19.541 137.823 20.8196H129.352C129.565 17.8716 130.79 15.563 133.028 13.8937C135.301 12.2244 138.338 11.3897 142.138 11.3897C146.435 11.3897 149.579 12.2777 151.568 14.0535C153.557 15.7939 154.551 18.582 154.551 22.4178V31.2616C154.551 34.4937 154.8 36.9622 155.297 38.667H146.986C146.773 37.6015 146.631 36.1985 146.56 34.4582C145.885 35.9499 144.748 37.1397 143.15 38.0277C141.552 38.8801 139.723 39.3063 137.663 39.3063ZM140.859 33.8722C142.493 33.8722 143.807 33.3749 144.802 32.3804C145.796 31.3859 146.293 30.0896 146.293 28.4913V26.3603L141.712 27.1061C140.149 27.3903 138.995 27.8342 138.249 28.438C137.503 29.0063 137.13 29.7877 137.13 30.7822C137.13 31.7056 137.467 32.4515 138.142 33.0197C138.817 33.588 139.723 33.8722 140.859 33.8722Z" fill="white"/>
<path d="M157.4 17.7296V12.0291H162.035V5.63596L170.559 2.33285V12.0291H176.899V17.7296H170.559V28.0651C170.559 30.7644 171.856 32.114 174.448 32.114C175.194 32.114 176.011 32.0253 176.899 31.8477V38.6137C175.017 38.9689 173.401 39.1465 172.051 39.1465C168.57 39.1465 166.031 38.3828 164.433 36.8556C162.834 35.3284 162.035 33.073 162.035 30.0896V17.7296H157.4Z" fill="white"/>
<path d="M181.826 38.667V0.0419922H190.404V16.7706C192.037 13.1834 194.861 11.3897 198.875 11.3897C201.751 11.3897 203.918 12.2954 205.374 14.1068C206.83 15.8827 207.559 18.5465 207.559 22.0982V38.667H199.034V22.9506C199.034 19.5765 197.72 17.8894 195.092 17.8894C193.565 17.8894 192.393 18.4399 191.576 19.541C190.794 20.642 190.404 22.2403 190.404 24.3358V38.667H181.826Z" fill="white"/>
<path d="M226.065 39.3063C223.401 39.3063 221.022 38.7735 218.926 37.708C216.866 36.607 215.232 35.0087 214.025 32.9132C212.853 30.8177 212.267 28.2782 212.267 25.2947C212.267 22.3113 212.853 19.7896 214.025 17.7296C215.232 15.6341 216.866 14.0535 218.926 12.988C221.022 11.9225 223.401 11.3897 226.065 11.3897C228.729 11.3897 231.109 11.9225 233.204 12.988C235.3 14.0535 236.933 15.6341 238.106 17.7296C239.313 19.7896 239.917 22.3113 239.917 25.2947C239.917 28.2782 239.313 30.8177 238.106 32.9132C236.933 35.0087 235.3 36.607 233.204 37.708C231.109 38.7735 228.729 39.3063 226.065 39.3063ZM226.065 33.3927C227.77 33.3927 229.084 32.7178 230.008 31.3682C230.931 29.983 231.393 27.9585 231.393 25.2947C231.393 22.5954 230.931 20.5887 230.008 19.2746C229.084 17.9604 227.77 17.3034 226.065 17.3034C224.36 17.3034 223.046 17.9604 222.123 19.2746C221.235 20.5887 220.791 22.5954 220.791 25.2947C220.791 27.9585 221.253 29.983 222.176 31.3682C223.1 32.7178 224.396 33.3927 226.065 33.3927Z" fill="white"/>
<path d="M245.039 38.667V12.0291H253.244V17.1435C255.091 13.3077 258.039 11.3897 262.088 11.3897C264.965 11.3897 267.131 12.2954 268.587 14.1068C270.043 15.9182 270.772 18.5997 270.772 22.1515V38.667H262.247V23.3235C262.247 21.4766 261.91 20.1092 261.235 19.2213C260.596 18.3334 259.601 17.8894 258.252 17.8894C256.76 17.8894 255.606 18.4399 254.789 19.541C254.007 20.642 253.617 22.2225 253.617 24.2825V38.667H245.039Z" fill="white"/>
<path d="M274.062 48.5285V38.7632H300.274V48.5285H274.062Z" fill="#109CF1"/>
<mask id="mask0_75_3733" style="mask-type:alpha" maskUnits="userSpaceOnUse" x="107" y="4" width="23" height="42">
<path fill-rule="evenodd" clip-rule="evenodd" d="M122.35 4.30664L129.798 9.56976L118.696 25.2806L129.691 39.5942L122.458 45.1496L107.37 25.5061L122.35 4.30664Z" fill="#FB86B6"/>
</mask>
<g mask="url(#mask0_75_3733)">
<rect x="102.292" y="9.60449" width="32.8635" height="29.9515" fill="#109CF1"/>
</g>
<mask id="mask1_75_3733" style="mask-type:alpha" maskUnits="userSpaceOnUse" x="307" y="3" width="23" height="42">
<path fill-rule="evenodd" clip-rule="evenodd" d="M315.019 44.5127L307.571 39.2496L318.674 23.5387L307.679 9.22514L314.911 3.66973L330 23.3132L315.019 44.5127Z" fill="#FB86B6"/>
</mask>
<g mask="url(#mask1_75_3733)">
<rect x="335.077" y="39.2139" width="32.8635" height="29.9515" transform="rotate(-180 335.077 39.2139)" fill="#109CF1"/>
</g>
<path d="M191.444 52.2818C190.561 52.2818 189.862 52.4658 189.403 52.9255L188.869 53.4591H188.709H188.205C187.705 52.6738 186.827 52.2818 185.558 52.2818C184.674 52.2818 183.976 52.4658 183.517 52.9255L182.983 53.4591H182.45L182.193 52.4658H180.353V62.1399H182.837V56.2176C182.837 55.0779 183.426 54.4887 184.602 54.4887C185.705 54.4887 186.221 55.0222 186.221 56.2176V62.1399H188.703V56.1813L188.723 56.2031C188.728 55.0718 189.316 54.4887 190.488 54.4887C191.591 54.4887 192.107 55.0222 192.107 56.2176V62.1399H194.589V55.5558C194.589 53.3671 193.56 52.2818 191.444 52.2818ZM207.363 60.0432H210.031V54.5431H207.677V52.4658H211.814L212.054 53.4591H212.606L213.139 52.9255C213.581 52.4658 214.28 52.2818 215.18 52.2818H216.745V54.5068H214.298C213.121 54.5068 212.514 55.0767 212.514 56.1256V60.0432H215.604V62.1399H207.365V60.0432H207.363ZM200.498 60.4667C201.768 60.4667 202.485 59.8049 202.485 58.6458V58.0384H200.59C199.543 58.0384 199.009 58.4801 199.009 59.2895C199.008 60.0069 199.431 60.4667 200.498 60.4667ZM196.489 59.5278C196.489 57.615 197.758 56.6035 199.965 56.6035H202.485V55.8861C202.485 54.6907 201.952 54.1935 200.848 54.1935C199.91 54.1935 199.247 54.5613 199.175 55.4626H196.931C197.004 53.4578 198.402 52.2806 201.05 52.2806C203.699 52.2806 204.968 53.4203 204.968 55.7748V62.1387H203.055L202.815 61.1454H202.282L201.748 61.679C201.307 62.1206 200.609 62.3226 199.67 62.3226C197.592 62.3238 196.489 61.3305 196.489 59.5278ZM172.677 58.0747H171.592V62.1387H169.109V48.5288H171.592V55.8667H172.714L175.252 52.4645H178.084L174.792 56.9713L178.194 62.1387H175.27L172.677 58.0747ZM157.62 57.3028C157.62 53.8995 159.202 52.2818 162.218 52.2818C164.976 52.2818 166.43 53.643 166.503 56.1619H164.093C163.983 54.9303 163.358 54.3786 162.217 54.3786C160.8 54.3786 160.176 55.2255 160.176 57.3028C160.176 59.3802 160.801 60.2271 162.217 60.2271C163.376 60.2271 164.019 59.6754 164.111 58.3324H166.558C166.484 60.9434 164.993 62.3238 162.217 62.3238C159.202 62.3238 157.62 60.6869 157.62 57.3028ZM153.118 56.1619C153.081 54.8383 152.437 54.1209 151.15 54.1209C149.918 54.1209 149.237 54.7645 149.017 56.1619H153.118ZM146.515 57.3028C146.515 53.8995 148.116 52.2818 151.15 52.2818C154.296 52.2818 155.749 53.9745 155.399 57.7263H148.961C149.053 59.6391 149.734 60.4485 151.168 60.4485C152.216 60.4485 152.915 60.0251 153.081 59.1612H155.362C155.141 61.166 153.615 62.325 151.094 62.325C148.097 62.3238 146.515 60.6869 146.515 57.3028ZM135.68 48.5288H138.163V51.7483L137.943 53.3296L138.458 53.4578L138.992 52.9243C139.452 52.4645 140.095 52.2806 140.959 52.2806C143.038 52.2806 144.031 53.3659 144.031 55.5546V62.1387H141.548V56.2164C141.548 55.021 141.033 54.4875 139.93 54.4875C138.752 54.4875 138.163 55.0767 138.163 56.2164V62.1387H135.68V48.5288ZM123.852 55.7941C123.852 51.1772 125.341 49.1543 128.744 49.1543C131.798 49.1543 133.268 50.8094 133.397 54.2673H130.877C130.785 52.3544 130.124 51.4712 128.744 51.4712C127.125 51.4712 126.482 52.6666 126.482 55.7929C126.482 59.0112 127.088 60.1146 128.744 60.1146C130.161 60.1146 130.805 59.3233 130.915 57.2823H133.471C133.324 60.7764 131.798 62.4327 128.744 62.4327C125.341 62.4339 123.852 60.411 123.852 55.7941Z" fill="white"/>
<path d="M229.422 49.8062L223.892 55.7879C223.779 55.9016 223.571 55.9028 223.464 55.8L220.623 52.5067L220.609 52.491C220.364 52.2453 220.027 52.1147 219.681 52.1304C219.334 52.1461 219.006 52.3095 218.783 52.5793C218.583 52.82 218.488 53.1286 218.513 53.4468C218.537 53.7541 218.671 54.0432 218.898 54.2695L222.164 57.0824C222.22 57.1405 222.252 57.2179 222.252 57.299C222.252 57.3801 222.22 57.4575 222.173 57.5071L218.908 60.3189L218.893 60.3334C218.657 60.5693 218.521 60.896 218.516 61.2323C218.511 61.5844 218.646 61.9074 218.896 62.1397C219.012 62.2474 219.145 62.3309 219.292 62.3878C219.583 62.4991 219.913 62.4966 220.201 62.3805C220.355 62.3188 220.491 62.2268 220.617 62.101L223.457 58.8089C223.573 58.6964 223.775 58.6964 223.882 58.7993L226.724 62.0938L226.738 62.1083C226.855 62.2256 226.993 62.3176 227.147 62.3793C227.295 62.4398 227.451 62.47 227.612 62.47C227.764 62.47 227.914 62.4422 228.057 62.3878C228.204 62.3309 228.338 62.2474 228.452 62.1397C228.703 61.9074 228.837 61.5844 228.832 61.2323C228.828 60.8972 228.69 60.5693 228.446 60.3261L225.185 57.5168C225.128 57.4587 225.096 57.3813 225.096 57.3002C225.096 57.2179 225.128 57.1393 225.177 57.0897L231.153 51.5678C231.372 51.3488 231.505 51.0597 231.529 50.7524C231.555 50.433 231.459 50.1256 231.259 49.8837C231.037 49.6139 230.709 49.4505 230.362 49.4348C230.342 49.4336 230.324 49.4336 230.305 49.4336C229.978 49.4348 229.661 49.5667 229.422 49.8062Z" fill="#4096D2"/>
<path d="M231.527 50.7524C231.552 50.433 231.457 50.1256 231.257 49.8837C231.034 49.6139 230.707 49.4505 230.359 49.4348C230.34 49.4336 230.322 49.4336 230.302 49.4336C229.978 49.4336 229.66 49.5655 229.42 49.805L223.891 55.7867C223.778 55.9004 223.57 55.9016 223.463 55.7988L220.622 52.5055L220.608 52.4897C220.363 52.2441 220.026 52.1135 219.68 52.1292C219.333 52.1449 219.005 52.3083 218.782 52.5781C218.582 52.8188 218.487 53.1273 218.512 53.4455C218.536 53.7529 218.67 54.042 218.897 54.2683L221.392 56.417L222.339 57.2325C223.128 57.9124 224.303 57.8918 225.067 57.1853L225.801 56.509L231.149 51.5666C231.368 51.3476 231.503 51.0585 231.527 50.7524Z" fill="#F05680"/>
<path d="M103.591 62.5681C102.905 62.5681 102.302 62.4094 101.781 62.0919C101.261 61.7744 100.873 61.3426 100.619 60.7965L100.391 62.3395H98.4667V48.5283H100.753V54.3005C101.007 53.7798 101.388 53.367 101.896 53.0622C102.404 52.7447 103.001 52.586 103.686 52.586C104.448 52.586 105.115 52.7955 105.687 53.2146C106.271 53.6337 106.722 54.2243 107.039 54.9863C107.357 55.7356 107.515 56.5992 107.515 57.5771C107.515 58.5677 107.35 59.444 107.02 60.206C106.703 60.9553 106.245 61.5394 105.649 61.9585C105.064 62.3649 104.379 62.5681 103.591 62.5681ZM102.867 60.8156C103.578 60.8156 104.131 60.5298 104.525 59.9583C104.931 59.3868 105.134 58.5931 105.134 57.5771C105.134 56.5738 104.937 55.7864 104.544 55.2149C104.15 54.6307 103.591 54.3386 102.867 54.3386C102.194 54.3386 101.661 54.6053 101.267 55.1387C100.886 55.6594 100.696 56.3706 100.696 57.2723V57.92C100.696 58.809 100.886 59.5138 101.267 60.0345C101.648 60.5552 102.181 60.8156 102.867 60.8156Z" fill="white"/>
<path d="M109.935 66.1495C109.681 66.1495 109.331 66.1178 108.887 66.0543V64.2445C109.115 64.2953 109.382 64.3207 109.687 64.3207C110.246 64.3207 110.684 64.2001 111.001 63.9588C111.332 63.7302 111.586 63.3492 111.763 62.8158L111.954 62.2443L108.239 52.8146H110.754L112.83 59.0439C112.97 59.4376 113.059 59.8123 113.097 60.1679H113.135C113.173 60.0028 113.268 59.6281 113.421 59.0439L115.326 52.8146H117.688L114.126 62.8729C113.706 64.054 113.16 64.8922 112.487 65.3875C111.827 65.8955 110.976 66.1495 109.935 66.1495Z" fill="white"/>
</svg>
