<svg width="273" height="138" viewBox="0 0 273 138" fill="none" xmlns="http://www.w3.org/2000/svg">
<path d="M16.0783 128.116V113.571H20.986C21.9329 113.571 22.7213 113.736 23.351 114.068C23.9855 114.399 24.4614 114.851 24.7786 115.424C25.0958 115.997 25.2544 116.648 25.2544 117.377C25.2544 117.983 25.1526 118.502 24.949 118.933C24.7454 119.364 24.4685 119.712 24.1181 119.977C23.7677 120.242 23.3771 120.434 22.9462 120.552V120.666C23.415 120.699 23.8695 120.865 24.3098 121.163C24.7502 121.456 25.1124 121.868 25.3965 122.399C25.6806 122.929 25.8226 123.563 25.8226 124.302C25.8226 125.036 25.6593 125.692 25.3326 126.269C25.0059 126.842 24.504 127.294 23.8269 127.626C23.1545 127.953 22.2975 128.116 21.2559 128.116H16.0783ZM17.4064 126.923H21.2559C22.378 126.923 23.2066 126.674 23.7417 126.177C24.2814 125.68 24.5513 125.055 24.5513 124.302C24.5513 123.748 24.4164 123.246 24.1465 122.796C23.8813 122.342 23.5049 121.982 23.0172 121.717C22.5343 121.452 21.9661 121.319 21.3127 121.319H17.4064V126.923ZM17.4064 120.14H21.1067C21.6796 120.14 22.1815 120.022 22.6124 119.785C23.0433 119.548 23.3794 119.222 23.6209 118.805C23.8624 118.388 23.9831 117.912 23.9831 117.377C23.9831 116.606 23.7322 115.978 23.2303 115.495C22.7284 115.008 21.9803 114.764 20.986 114.764H17.4064V120.14ZM29.1647 128.116V117.207H30.3934V118.883H30.4858C30.7036 118.334 31.0824 117.891 31.6221 117.555C32.1666 117.214 32.7822 117.044 33.4687 117.044C33.5729 117.044 33.6889 117.046 33.8167 117.051C33.9446 117.055 34.0511 117.06 34.1363 117.065V118.35C34.0795 118.341 33.9801 118.327 33.838 118.308C33.696 118.289 33.5421 118.279 33.3764 118.279C32.8082 118.279 32.3016 118.4 31.8565 118.642C31.4162 118.878 31.0681 119.207 30.8125 119.629C30.5568 120.05 30.4289 120.531 30.4289 121.071V128.116H29.1647ZM39.7405 128.365C39.0824 128.365 38.481 128.237 37.9365 127.981C37.392 127.721 36.9588 127.347 36.6368 126.859C36.3149 126.366 36.1539 125.77 36.1539 125.069C36.1539 124.529 36.2557 124.075 36.4593 123.705C36.6629 123.336 36.9517 123.033 37.3257 122.796C37.6998 122.56 38.1425 122.373 38.6539 122.235C39.1652 122.098 39.7287 121.991 40.3442 121.916C40.955 121.84 41.4711 121.774 41.8925 121.717C42.3186 121.66 42.643 121.57 42.8655 121.447C43.0881 121.324 43.1993 121.125 43.1993 120.85V120.595C43.1993 119.851 42.9768 119.267 42.5317 118.84C42.0914 118.41 41.4569 118.194 40.6283 118.194C39.8423 118.194 39.2007 118.367 38.7036 118.713C38.2112 119.058 37.8655 119.465 37.6667 119.934L36.4664 119.501C36.7126 118.904 37.0535 118.428 37.4891 118.073C37.9247 117.714 38.4124 117.455 38.9522 117.299C39.4919 117.138 40.0388 117.058 40.5928 117.058C41.0095 117.058 41.4427 117.112 41.8925 117.221C42.3471 117.33 42.7685 117.519 43.1567 117.789C43.545 118.054 43.8598 118.426 44.1013 118.904C44.3428 119.378 44.4635 119.979 44.4635 120.708V128.116H43.1993V126.39H43.1212C42.9697 126.712 42.7448 127.025 42.4465 127.328C42.1482 127.631 41.7741 127.879 41.3243 128.073C40.8745 128.267 40.3466 128.365 39.7405 128.365ZM39.911 127.207C40.5833 127.207 41.1657 127.058 41.6581 126.759C42.1506 126.461 42.5293 126.066 42.7945 125.573C43.0644 125.076 43.1993 124.529 43.1993 123.933V122.356C43.1046 122.446 42.946 122.526 42.7235 122.598C42.5057 122.669 42.2524 122.732 41.9635 122.789C41.6794 122.841 41.3953 122.886 41.1113 122.924C40.8272 122.962 40.5715 122.995 40.3442 123.024C39.7287 123.099 39.2031 123.218 38.7675 123.379C38.3319 123.54 37.9981 123.762 37.7661 124.046C37.5341 124.326 37.4181 124.686 37.4181 125.126C37.4181 125.789 37.6548 126.303 38.1283 126.667C38.6018 127.027 39.196 127.207 39.911 127.207ZM49.4907 121.298V128.116H48.2265V117.207H49.4552V118.919H49.5688C49.8245 118.36 50.2222 117.912 50.762 117.576C51.3065 117.235 51.9788 117.065 52.779 117.065C53.5129 117.065 54.1569 117.219 54.7108 117.526C55.2695 117.83 55.7028 118.277 56.0105 118.869C56.323 119.461 56.4793 120.187 56.4793 121.049V128.116H55.2151V121.127C55.2151 120.232 54.9641 119.525 54.4623 119.004C53.9651 118.483 53.2975 118.223 52.4594 118.223C51.8865 118.223 51.3775 118.346 50.9324 118.592C50.4873 118.838 50.1346 119.193 49.8742 119.657C49.6185 120.116 49.4907 120.663 49.4907 121.298ZM64.136 128.343C63.2412 128.343 62.4575 128.106 61.7852 127.633C61.1128 127.16 60.5873 126.499 60.2085 125.651C59.8344 124.804 59.6474 123.817 59.6474 122.69C59.6474 121.568 59.8344 120.585 60.2085 119.742C60.5873 118.895 61.1152 118.237 61.7923 117.768C62.4694 117.294 63.2577 117.058 64.1573 117.058C64.8202 117.058 65.3718 117.176 65.8122 117.413C66.2525 117.645 66.6053 117.934 66.8704 118.279C67.1356 118.625 67.3415 118.961 67.4883 119.288H67.602V113.571H68.8733V128.116H67.6375V126.092H67.4883C67.3415 126.423 67.1332 126.764 66.8633 127.115C66.5934 127.46 66.2359 127.751 65.7909 127.988C65.3505 128.225 64.7989 128.343 64.136 128.343ZM64.2852 127.186C64.9907 127.186 65.592 126.994 66.0892 126.61C66.5863 126.222 66.9651 125.689 67.2255 125.012C67.4907 124.33 67.6233 123.549 67.6233 122.669C67.6233 121.797 67.4931 121.028 67.2326 120.36C66.9722 119.688 66.5934 119.162 66.0963 118.784C65.5991 118.4 64.9954 118.208 64.2852 118.208C63.556 118.208 62.9405 118.407 62.4386 118.805C61.9414 119.198 61.5627 119.731 61.3022 120.403C61.0466 121.075 60.9187 121.83 60.9187 122.669C60.9187 123.516 61.0489 124.281 61.3093 124.963C61.5698 125.644 61.9485 126.187 62.4457 126.589C62.9476 126.987 63.5608 127.186 64.2852 127.186ZM72.8883 128.116V117.207H74.1596V128.116H72.8883ZM73.5346 115.332C73.2742 115.332 73.0517 115.244 72.867 115.069C72.6824 114.889 72.59 114.674 72.59 114.423C72.59 114.172 72.6824 113.959 72.867 113.784C73.0517 113.604 73.2742 113.514 73.5346 113.514C73.795 113.514 74.0176 113.604 74.2022 113.784C74.3869 113.959 74.4792 114.172 74.4792 114.423C74.4792 114.674 74.3869 114.889 74.2022 115.069C74.0176 115.244 73.795 115.332 73.5346 115.332ZM79.1672 121.298V128.116H77.903V117.207H79.1317V118.919H79.2453C79.501 118.36 79.8988 117.912 80.4385 117.576C80.983 117.235 81.6554 117.065 82.4556 117.065C83.1895 117.065 83.8334 117.219 84.3874 117.526C84.9461 117.83 85.3793 118.277 85.6871 118.869C85.9996 119.461 86.1559 120.187 86.1559 121.049V128.116H84.8917V121.127C84.8917 120.232 84.6407 119.525 84.1388 119.004C83.6417 118.483 82.974 118.223 82.136 118.223C81.5631 118.223 81.0541 118.346 80.609 118.592C80.1639 118.838 79.8112 119.193 79.5507 119.657C79.2951 120.116 79.1672 120.663 79.1672 121.298ZM94.047 132.434C93.3036 132.434 92.6526 132.337 92.0939 132.143C91.5351 131.954 91.064 131.693 90.6805 131.362C90.297 131.03 89.9987 130.659 89.7856 130.247L90.8226 129.565C90.9788 129.839 91.1871 130.109 91.4476 130.374C91.7127 130.64 92.056 130.86 92.4774 131.035C92.9035 131.21 93.4267 131.298 94.047 131.298C95.0129 131.298 95.7918 131.056 96.3836 130.573C96.9802 130.09 97.2785 129.34 97.2785 128.322V125.865H97.1649C97.0181 126.196 96.8074 126.527 96.5328 126.859C96.2582 127.186 95.8983 127.458 95.4532 127.676C95.0129 127.893 94.466 128.002 93.8126 128.002C92.9414 128.002 92.1672 127.787 91.4902 127.356C90.8178 126.925 90.2875 126.31 89.8993 125.509C89.5157 124.705 89.324 123.746 89.324 122.633C89.324 121.53 89.511 120.559 89.8851 119.721C90.2638 118.883 90.7918 118.23 91.4689 117.761C92.1459 117.292 92.9343 117.058 93.8339 117.058C94.5015 117.058 95.0555 117.176 95.4958 117.413C95.9362 117.645 96.2889 117.934 96.5541 118.279C96.824 118.625 97.0347 118.961 97.1862 119.288H97.314V117.207H98.5498V128.4C98.5498 129.323 98.3533 130.083 97.9603 130.68C97.5673 131.276 97.0323 131.717 96.3552 132.001C95.6781 132.29 94.9087 132.434 94.047 132.434ZM93.9618 126.845C94.6625 126.845 95.2615 126.677 95.7586 126.34C96.2558 125.999 96.6369 125.512 96.9021 124.877C97.1672 124.243 97.2998 123.488 97.2998 122.612C97.2998 121.759 97.1696 121.004 96.9092 120.346C96.6488 119.683 96.27 119.162 95.7728 118.784C95.2804 118.4 94.6767 118.208 93.9618 118.208C93.2326 118.208 92.6171 118.405 92.1152 118.798C91.6133 119.191 91.2345 119.721 90.9788 120.389C90.7231 121.052 90.5953 121.793 90.5953 122.612C90.5953 123.445 90.7255 124.181 90.9859 124.821C91.2463 125.455 91.6275 125.952 92.1294 126.312C92.6313 126.667 93.2421 126.845 93.9618 126.845ZM112.81 117.207V118.308H107.448V117.207H112.81ZM109.124 128.116V115.609C109.124 115.022 109.259 114.527 109.529 114.124C109.804 113.722 110.161 113.417 110.602 113.208C111.042 113 111.508 112.896 112.001 112.896C112.332 112.896 112.607 112.924 112.825 112.981C113.047 113.033 113.222 113.085 113.35 113.137L112.981 114.245C112.886 114.217 112.77 114.184 112.633 114.146C112.496 114.108 112.323 114.089 112.114 114.089C111.565 114.089 111.141 114.243 110.843 114.551C110.545 114.858 110.396 115.299 110.396 115.872L110.389 128.116H109.124ZM119.524 128.343C118.582 128.343 117.749 128.104 117.024 127.626C116.305 127.148 115.741 126.487 115.334 125.644C114.927 124.797 114.723 123.819 114.723 122.711C114.723 121.594 114.927 120.611 115.334 119.764C115.741 118.911 116.305 118.249 117.024 117.775C117.749 117.297 118.582 117.058 119.524 117.058C120.467 117.058 121.298 117.297 122.017 117.775C122.737 118.253 123.3 118.916 123.708 119.764C124.119 120.611 124.325 121.594 124.325 122.711C124.325 123.819 124.122 124.797 123.715 125.644C123.307 126.487 122.742 127.148 122.017 127.626C121.298 128.104 120.467 128.343 119.524 128.343ZM119.524 127.186C120.282 127.186 120.923 126.982 121.449 126.575C121.975 126.168 122.372 125.625 122.642 124.948C122.917 124.271 123.054 123.526 123.054 122.711C123.054 121.897 122.917 121.149 122.642 120.467C122.372 119.785 121.975 119.238 121.449 118.826C120.923 118.414 120.282 118.208 119.524 118.208C118.771 118.208 118.13 118.414 117.6 118.826C117.074 119.238 116.674 119.785 116.399 120.467C116.129 121.149 115.994 121.897 115.994 122.711C115.994 123.526 116.129 124.271 116.399 124.948C116.674 125.625 117.074 126.168 117.6 126.575C118.125 126.982 118.767 127.186 119.524 127.186ZM127.501 128.116V117.207H128.729V118.883H128.822C129.04 118.334 129.418 117.891 129.958 117.555C130.503 117.214 131.118 117.044 131.805 117.044C131.909 117.044 132.025 117.046 132.153 117.051C132.281 117.055 132.387 117.06 132.472 117.065V118.35C132.415 118.341 132.316 118.327 132.174 118.308C132.032 118.289 131.878 118.279 131.712 118.279C131.144 118.279 130.638 118.4 130.192 118.642C129.752 118.878 129.404 119.207 129.148 119.629C128.893 120.05 128.765 120.531 128.765 121.071V128.116H127.501ZM141.317 128.116V113.571H149.734V114.764H142.645V120.24H149.073V121.433H142.645V128.116H141.317ZM153.188 128.116V117.207H154.459V128.116H153.188ZM153.834 115.332C153.573 115.332 153.351 115.244 153.166 115.069C152.982 114.889 152.889 114.674 152.889 114.423C152.889 114.172 152.982 113.959 153.166 113.784C153.351 113.604 153.573 113.514 153.834 113.514C154.094 113.514 154.317 113.604 154.501 113.784C154.686 113.959 154.778 114.172 154.778 114.423C154.778 114.674 154.686 114.889 154.501 115.069C154.317 115.244 154.094 115.332 153.834 115.332ZM159.466 113.571V128.116H158.202V113.571H159.466ZM163.212 128.116V117.207H164.44V118.883H164.554C164.772 118.32 165.134 117.877 165.641 117.555C166.152 117.228 166.765 117.065 167.48 117.065C168.233 117.065 168.851 117.242 169.334 117.598C169.821 117.948 170.186 118.431 170.428 119.046H170.52C170.766 118.44 171.166 117.96 171.72 117.605C172.279 117.245 172.956 117.065 173.751 117.065C174.765 117.065 175.565 117.384 176.152 118.024C176.739 118.658 177.033 119.586 177.033 120.808V128.116H175.768V120.808C175.768 119.946 175.548 119.3 175.108 118.869C174.668 118.438 174.088 118.223 173.368 118.223C172.535 118.223 171.893 118.478 171.443 118.99C170.993 119.501 170.768 120.15 170.768 120.936V128.116H169.476V120.694C169.476 119.955 169.27 119.359 168.858 118.904C168.446 118.45 167.866 118.223 167.118 118.223C166.616 118.223 166.164 118.346 165.761 118.592C165.364 118.838 165.049 119.181 164.817 119.622C164.589 120.057 164.476 120.559 164.476 121.127V128.116H163.212ZM187.067 128.116V113.571H195.484V114.764H188.395V120.24H194.823V121.433H188.395V128.116H187.067ZM202.533 128.343C201.515 128.343 200.634 128.106 199.891 127.633C199.148 127.155 198.572 126.494 198.165 125.651C197.763 124.804 197.561 123.829 197.561 122.725C197.561 121.627 197.763 120.651 198.165 119.799C198.572 118.942 199.133 118.272 199.848 117.789C200.568 117.302 201.399 117.058 202.341 117.058C202.933 117.058 203.504 117.167 204.053 117.384C204.602 117.598 205.095 117.927 205.53 118.372C205.971 118.812 206.319 119.368 206.574 120.041C206.83 120.708 206.958 121.499 206.958 122.413V123.038H198.435V121.923H205.665C205.665 121.222 205.523 120.592 205.239 120.034C204.96 119.47 204.569 119.025 204.067 118.698C203.57 118.372 202.995 118.208 202.341 118.208C201.65 118.208 201.042 118.393 200.516 118.762C199.99 119.132 199.579 119.619 199.28 120.225C198.987 120.831 198.838 121.494 198.833 122.214V122.882C198.833 123.748 198.982 124.506 199.28 125.154C199.583 125.798 200.012 126.298 200.566 126.653C201.12 127.008 201.775 127.186 202.533 127.186C203.049 127.186 203.501 127.105 203.89 126.944C204.283 126.783 204.612 126.568 204.877 126.298C205.147 126.023 205.35 125.723 205.488 125.396L206.688 125.786C206.522 126.246 206.25 126.669 205.871 127.058C205.497 127.446 205.028 127.758 204.465 127.995C203.906 128.227 203.262 128.343 202.533 128.343ZM217.473 119.6L216.316 119.927C216.202 119.6 216.041 119.304 215.833 119.039C215.624 118.774 215.352 118.563 215.016 118.407C214.684 118.251 214.272 118.173 213.78 118.173C213.041 118.173 212.435 118.348 211.962 118.698C211.488 119.049 211.252 119.501 211.252 120.055C211.252 120.524 211.413 120.905 211.735 121.198C212.061 121.487 212.563 121.717 213.24 121.887L214.888 122.292C215.802 122.515 216.486 122.867 216.941 123.35C217.4 123.833 217.629 124.439 217.629 125.169C217.629 125.784 217.459 126.331 217.118 126.809C216.777 127.287 216.301 127.664 215.691 127.938C215.084 128.208 214.381 128.343 213.581 128.343C212.516 128.343 211.637 128.104 210.946 127.626C210.255 127.143 209.812 126.447 209.618 125.538L210.833 125.24C210.989 125.888 211.294 126.378 211.749 126.71C212.208 127.041 212.812 127.207 213.56 127.207C214.398 127.207 215.068 127.02 215.57 126.646C216.072 126.267 216.323 125.794 216.323 125.225C216.323 124.785 216.176 124.416 215.882 124.117C215.589 123.814 215.144 123.592 214.547 123.45L212.764 123.024C211.817 122.796 211.117 122.437 210.662 121.944C210.208 121.452 209.98 120.841 209.98 120.112C209.98 119.51 210.144 118.982 210.47 118.528C210.797 118.069 211.247 117.709 211.82 117.448C212.393 117.188 213.046 117.058 213.78 117.058C214.779 117.058 215.577 117.285 216.173 117.74C216.775 118.189 217.208 118.81 217.473 119.6ZM225.094 117.207V118.308H219.888V117.207H225.094ZM221.515 114.593H222.786V125.268C222.786 125.723 222.864 126.08 223.021 126.34C223.177 126.596 223.38 126.778 223.631 126.887C223.882 126.991 224.15 127.044 224.434 127.044C224.6 127.044 224.742 127.034 224.86 127.015C224.978 126.991 225.083 126.968 225.173 126.944L225.442 128.088C225.319 128.135 225.168 128.178 224.988 128.215C224.808 128.258 224.585 128.279 224.32 128.279C223.856 128.279 223.409 128.178 222.978 127.974C222.552 127.77 222.201 127.467 221.927 127.065C221.652 126.662 221.515 126.163 221.515 125.566V114.593ZM228.38 128.116V117.207H229.651V128.116H228.38ZM229.026 115.332C228.766 115.332 228.543 115.244 228.358 115.069C228.174 114.889 228.081 114.674 228.081 114.423C228.081 114.172 228.174 113.959 228.358 113.784C228.543 113.604 228.766 113.514 229.026 113.514C229.286 113.514 229.509 113.604 229.694 113.784C229.878 113.959 229.971 114.172 229.971 114.423C229.971 114.674 229.878 114.889 229.694 115.069C229.509 115.244 229.286 115.332 229.026 115.332ZM241.839 117.207L237.855 128.116H236.505L232.521 117.207H233.892L237.13 126.447H237.23L240.468 117.207H241.839ZM247.427 128.365C246.769 128.365 246.168 128.237 245.623 127.981C245.079 127.721 244.646 127.347 244.324 126.859C244.002 126.366 243.841 125.77 243.841 125.069C243.841 124.529 243.942 124.075 244.146 123.705C244.35 123.336 244.638 123.033 245.012 122.796C245.387 122.56 245.829 122.373 246.341 122.235C246.852 122.098 247.415 121.991 248.031 121.916C248.642 121.84 249.158 121.774 249.579 121.717C250.005 121.66 250.33 121.57 250.552 121.447C250.775 121.324 250.886 121.125 250.886 120.85V120.595C250.886 119.851 250.664 119.267 250.218 118.84C249.778 118.41 249.144 118.194 248.315 118.194C247.529 118.194 246.887 118.367 246.39 118.713C245.898 119.058 245.552 119.465 245.353 119.934L244.153 119.501C244.399 118.904 244.74 118.428 245.176 118.073C245.611 117.714 246.099 117.455 246.639 117.299C247.179 117.138 247.726 117.058 248.28 117.058C248.696 117.058 249.129 117.112 249.579 117.221C250.034 117.33 250.455 117.519 250.843 117.789C251.232 118.054 251.547 118.426 251.788 118.904C252.03 119.378 252.15 119.979 252.15 120.708V128.116H250.886V126.39H250.808C250.656 126.712 250.432 127.025 250.133 127.328C249.835 127.631 249.461 127.879 249.011 128.073C248.561 128.267 248.033 128.365 247.427 128.365ZM247.598 127.207C248.27 127.207 248.852 127.058 249.345 126.759C249.837 126.461 250.216 126.066 250.481 125.573C250.751 125.076 250.886 124.529 250.886 123.933V122.356C250.791 122.446 250.633 122.526 250.41 122.598C250.192 122.669 249.939 122.732 249.65 122.789C249.366 122.841 249.082 122.886 248.798 122.924C248.514 122.962 248.258 122.995 248.031 123.024C247.415 123.099 246.89 123.218 246.454 123.379C246.019 123.54 245.685 123.762 245.453 124.046C245.221 124.326 245.105 124.686 245.105 125.126C245.105 125.789 245.342 126.303 245.815 126.667C246.289 127.027 246.883 127.207 247.598 127.207ZM257.177 113.571V128.116H255.913V113.571H257.177Z" fill="white"/>
<rect x="102.733" y="56.6719" width="68.2041" height="11.0924" fill="white"/>
<rect x="102.733" y="74.7896" width="68.2041" height="11.0924" fill="white"/>
<rect width="68.2175" height="11.0903" transform="matrix(0.965724 -0.259572 0.258068 0.966127 99.7836 18.9575)" fill="white"/>
<rect x="102.733" y="38.1846" width="68.2041" height="11.0924" fill="white"/>
</svg>
