<svg width="133" height="130" viewBox="0 0 133 130" fill="none" xmlns="http://www.w3.org/2000/svg">
<g clip-path="url(#clip0_382_3630)">
<path d="M54.7011 35.5192C54.7011 29.0051 59.9835 23.7231 66.5014 23.7231C73.0194 23.7231 78.3046 29.0051 78.3046 35.5192C78.3046 42.0332 73.0194 47.3152 66.5014 47.3152C59.9835 47.3152 54.7011 42.0332 54.7011 35.5192ZM48.3206 35.5192C48.3206 45.5544 56.4601 53.6891 66.5014 53.6891C76.5428 53.6891 84.6823 45.5544 84.6823 35.5192C84.6823 25.4839 76.5428 17.3492 66.5014 17.3492C56.4601 17.3492 48.3206 25.4839 48.3206 35.5192ZM81.1533 16.6287C81.1529 17.4686 81.4018 18.2896 81.8684 18.9881C82.3349 19.6866 82.9983 20.2311 83.7745 20.5528C84.5508 20.8745 85.405 20.9589 86.2293 20.7954C87.0535 20.6319 87.8108 20.2278 88.4052 19.6342C88.9996 19.0406 89.4046 18.2841 89.5689 17.4605C89.7331 16.6369 89.6493 15.7831 89.3281 15.007C89.0068 14.231 88.4625 13.5676 87.764 13.1008C87.0654 12.6339 86.2441 12.3845 85.4038 12.3842H85.4021C84.2757 12.3847 83.1955 12.832 82.3989 13.6279C81.6022 14.4237 81.1542 15.503 81.1533 16.6287ZM52.1972 64.322C48.7452 64.1649 46.8689 63.5902 45.622 63.1047C43.969 62.4616 42.7895 61.6955 41.5494 60.4579C40.3093 59.2203 39.5417 58.0426 38.901 56.3906C38.4149 55.145 37.8399 53.2693 37.683 49.8194C37.5114 46.0895 37.4771 44.969 37.4771 35.5194C37.4771 26.0698 37.5142 24.9525 37.683 21.2195C37.8402 17.7696 38.4195 15.8975 38.901 14.6483C39.5446 12.9962 40.311 11.8175 41.5494 10.5781C42.7878 9.3388 43.9661 8.57164 45.622 7.93131C46.8683 7.44554 48.7452 6.87088 52.1972 6.71405C55.9293 6.5425 57.0504 6.50825 66.5014 6.50825C75.9525 6.50825 77.0747 6.54533 80.81 6.71405C84.262 6.87116 86.1351 7.45007 87.3851 7.93131C89.0382 8.57164 90.2176 9.3405 91.4577 10.5781C92.6978 11.8158 93.4626 12.9962 94.1061 14.6483C94.5922 15.8939 95.1672 17.7696 95.3241 21.2195C95.4958 24.9525 95.53 26.0698 95.53 35.5194C95.53 44.969 95.4958 46.0864 95.3241 49.8194C95.1669 53.2693 94.5891 55.1444 94.1061 56.3906C93.4626 58.0426 92.6961 59.2214 91.4577 60.4579C90.2193 61.6944 89.0382 62.4616 87.3851 63.1047C86.1388 63.5905 84.262 64.1652 80.81 64.322C77.0778 64.4935 75.9567 64.5278 66.5014 64.5278C57.0462 64.5278 55.9282 64.4935 52.1972 64.322ZM51.904 0.348083C48.1348 0.519631 45.5592 1.11694 43.3098 1.99166C40.9804 2.89498 39.0084 4.10686 37.0378 6.07315C35.0672 8.03945 33.8577 10.0134 32.9538 12.3415C32.0786 14.5908 31.4809 17.1635 31.3093 20.9305C31.1348 24.7034 31.0948 25.9096 31.0948 35.5192C31.0948 45.1287 31.1348 46.3349 31.3093 50.1078C31.4809 53.8751 32.0786 56.4475 32.9538 58.6968C33.8577 61.0235 35.0675 62.9997 37.0378 64.9651C39.0081 66.9306 40.9804 68.1408 43.3098 69.0466C45.5634 69.9214 48.1348 70.5187 51.904 70.6902C55.6812 70.8618 56.8861 70.9045 66.5014 70.9045C76.1167 70.9045 77.3237 70.8646 81.0989 70.6902C84.8684 70.5187 87.4423 69.9214 89.693 69.0466C92.0211 68.1408 93.9945 66.9314 95.9651 64.9651C97.9357 62.9989 99.1426 61.0235 100.049 58.6968C100.924 56.4475 101.525 53.8748 101.694 50.1078C101.865 46.3321 101.905 45.1287 101.905 35.5192C101.905 25.9096 101.865 24.7034 101.694 20.9305C101.522 17.1632 100.924 14.5894 100.049 12.3415C99.1426 10.0148 97.9326 8.04256 95.9651 6.07315C93.9976 4.10374 92.0211 2.89498 89.6959 1.99166C87.4423 1.11694 84.8681 0.5168 81.1017 0.348083C77.3265 0.176535 76.1196 0.133789 66.5043 0.133789C56.889 0.133789 55.6812 0.173704 51.904 0.348083Z" fill="url(#paint0_linear_382_3630)"/>
</g>
<path d="M10.2216 104.582C8.86742 104.582 7.65057 104.373 6.57102 103.957C5.49148 103.54 4.57055 102.939 3.80824 102.153C3.05066 101.371 2.46828 100.429 2.06108 99.3259C1.65862 98.2227 1.45739 96.9893 1.45739 95.6256C1.45739 94.2904 1.66098 93.0783 2.06818 91.9893C2.48011 90.9002 3.06487 89.9651 3.82244 89.1839C4.58475 88.4026 5.49384 87.8013 6.54972 87.3799C7.61032 86.9537 8.7893 86.7407 10.0866 86.7407C11.3556 86.7407 12.492 86.9632 13.4957 87.4083C14.4995 87.8486 15.3542 88.45 16.0597 89.2123C16.7652 89.9746 17.3026 90.8434 17.6719 91.8188C18.0459 92.7894 18.233 93.8051 18.233 94.8657C18.233 95.538 18.1809 96.2009 18.0767 96.8543C17.9773 97.5077 17.8045 98.0996 17.5582 98.6299C17.312 99.1602 16.9711 99.584 16.5355 99.9012C16.0999 100.214 15.5483 100.37 14.8807 100.37C14.5303 100.37 14.1847 100.313 13.8438 100.199C13.5076 100.081 13.2188 99.8894 12.9773 99.6242C12.7405 99.3543 12.6032 98.9945 12.5653 98.5447H12.4943C12.3428 98.8856 12.1297 99.1981 11.8551 99.4822C11.5805 99.7615 11.242 99.984 10.8395 100.15C10.4418 100.315 9.98011 100.391 9.45455 100.377C8.85795 100.363 8.32055 100.23 7.84233 99.9793C7.36884 99.7284 6.96402 99.3851 6.62784 98.9495C6.2964 98.5139 6.04309 98.0096 5.8679 97.4367C5.69271 96.859 5.60511 96.2364 5.60511 95.5688C5.60511 94.9249 5.70218 94.3306 5.89631 93.7861C6.09517 93.2416 6.36742 92.7658 6.71307 92.3586C7.06345 91.9514 7.47301 91.627 7.94176 91.3856C8.41051 91.1441 8.91477 91.0044 9.45455 90.9665C9.9375 90.9334 10.3826 90.9807 10.7898 91.1086C11.197 91.2317 11.5426 91.4116 11.8267 91.6483C12.1108 91.8851 12.3144 92.1526 12.4375 92.4509H12.5085V91.1654H13.6662V97.7492C13.6662 98.2464 13.7633 98.6346 13.9574 98.914C14.1563 99.1886 14.4688 99.3259 14.8949 99.3259C15.411 99.3259 15.83 99.1578 16.152 98.8216C16.4787 98.4807 16.7178 97.9788 16.8693 97.316C17.0208 96.6483 17.0966 95.8269 17.0966 94.8515C17.0966 94.1128 16.9924 93.3979 16.7841 92.7066C16.5805 92.0106 16.2822 91.3666 15.8892 90.7748C15.4962 90.1782 15.0133 89.6573 14.4403 89.2123C13.8674 88.7625 13.2116 88.4121 12.473 88.1611C11.7391 87.9102 10.9247 87.7847 10.0298 87.7847C8.92188 87.7847 7.91572 87.9717 7.01136 88.3458C6.10701 88.7198 5.32813 89.2549 4.67472 89.9509C4.02604 90.6469 3.52652 91.4779 3.17614 92.4438C2.82576 93.405 2.65057 94.4774 2.65057 95.6611C2.65057 96.859 2.82576 97.941 3.17614 98.9069C3.52652 99.8728 4.03078 100.699 4.68892 101.386C5.3518 102.072 6.15199 102.6 7.08949 102.969C8.02699 103.339 9.08286 103.523 10.2571 103.523C10.7779 103.523 11.2893 103.471 11.7912 103.367C12.2978 103.268 12.7571 103.145 13.169 102.998C13.5857 102.851 13.9219 102.707 14.1776 102.565L14.5398 103.559C14.1894 103.748 13.7727 103.921 13.2898 104.077C12.8116 104.234 12.3049 104.357 11.7699 104.447C11.2396 104.537 10.7235 104.582 10.2216 104.582ZM9.60369 99.262C10.2476 99.262 10.7898 99.1128 11.2301 98.8145C11.6705 98.5162 12.0019 98.0877 12.2244 97.529C12.4517 96.9703 12.5653 96.298 12.5653 95.512C12.5653 94.7213 12.4446 94.0702 12.2031 93.5589C11.9664 93.0475 11.6278 92.6687 11.1875 92.4225C10.7519 92.1715 10.2358 92.0461 9.6392 92.0461C9.06155 92.0461 8.55492 92.2047 8.11932 92.5219C7.68845 92.8344 7.34991 93.2535 7.10369 93.779C6.86222 94.3046 6.74148 94.8823 6.74148 95.512C6.74148 96.1796 6.84801 96.7975 7.06108 97.3657C7.27888 97.9339 7.59849 98.3931 8.01989 98.7435C8.44602 99.0892 8.97396 99.262 9.60369 99.262ZM20.8839 104.83V89.8302H22.1126V91.9111H22.2617C22.4132 91.5844 22.6216 91.2506 22.8867 90.9097C23.1519 90.5641 23.5022 90.2729 23.9379 90.0361C24.3782 89.7994 24.9322 89.681 25.5998 89.681C26.4994 89.681 27.2854 89.9178 27.9577 90.3912C28.6348 90.86 29.1604 91.5181 29.5344 92.3657C29.9132 93.2085 30.1026 94.191 30.1026 95.3131C30.1026 96.44 29.9132 97.4272 29.5344 98.2748C29.1604 99.1223 28.6348 99.7828 27.9577 100.256C27.2854 100.73 26.5041 100.967 25.614 100.967C24.9558 100.967 24.4042 100.848 23.9592 100.611C23.5188 100.375 23.1613 100.083 22.8867 99.7378C22.6168 99.3875 22.4085 99.0465 22.2617 98.7151H22.1481V104.83H20.8839ZM22.1339 95.2918C22.1339 96.1725 22.2641 96.9537 22.5245 97.6356C22.7897 98.3126 23.1684 98.8453 23.6609 99.2336C24.158 99.6171 24.7594 99.8089 25.4648 99.8089C26.1893 99.8089 26.8001 99.61 27.2972 99.2123C27.7991 98.8098 28.1803 98.2677 28.4407 97.5858C28.7058 96.904 28.8384 96.1394 28.8384 95.2918C28.8384 94.4537 28.7082 93.6985 28.4478 93.0262C28.1921 92.3538 27.8133 91.8212 27.3114 91.4282C26.8095 91.0305 26.194 90.8316 25.4648 90.8316C24.7546 90.8316 24.1509 91.0233 23.6538 91.4069C23.1566 91.7857 22.7778 92.3112 22.5174 92.9836C22.2617 93.6512 22.1339 94.4206 22.1339 95.2918ZM37.1161 100.967C36.1739 100.967 35.3406 100.727 34.6161 100.249C33.8964 99.771 33.333 99.1105 32.9258 98.2677C32.5186 97.4201 32.315 96.4424 32.315 95.3344C32.315 94.217 32.5186 93.2345 32.9258 92.387C33.333 91.5347 33.8964 90.8718 34.6161 90.3983C35.3406 89.9201 36.1739 89.681 37.1161 89.681C38.0584 89.681 38.8893 89.9201 39.609 90.3983C40.3287 90.8766 40.8922 91.5394 41.2994 92.387C41.7113 93.2345 41.9173 94.217 41.9173 95.3344C41.9173 96.4424 41.7137 97.4201 41.3065 98.2677C40.8993 99.1105 40.3335 99.771 39.609 100.249C38.8893 100.727 38.0584 100.967 37.1161 100.967ZM37.1161 99.8089C37.8737 99.8089 38.5153 99.6053 39.0408 99.1981C39.5664 98.7909 39.9641 98.2487 40.234 97.5716C40.5086 96.8946 40.646 96.1488 40.646 95.3344C40.646 94.52 40.5086 93.7719 40.234 93.0901C39.9641 92.4083 39.5664 91.8614 39.0408 91.4495C38.5153 91.0376 37.8737 90.8316 37.1161 90.8316C36.3633 90.8316 35.7217 91.0376 35.1914 91.4495C34.6658 91.8614 34.2657 92.4083 33.9911 93.0901C33.7212 93.7719 33.5863 94.52 33.5863 95.3344C33.5863 96.1488 33.7212 96.8946 33.9911 97.5716C34.2657 98.2487 34.6658 98.7909 35.1914 99.1981C35.717 99.6053 36.3585 99.8089 37.1161 99.8089ZM52.022 92.2236L50.8643 92.5503C50.7507 92.2236 50.5897 91.9277 50.3814 91.6626C50.1731 91.3974 49.9008 91.1867 49.5646 91.0305C49.2332 90.8742 48.8213 90.7961 48.3288 90.7961C47.5902 90.7961 46.9841 90.9713 46.5107 91.3216C46.0372 91.672 45.8004 92.1242 45.8004 92.6782C45.8004 93.1469 45.9614 93.5281 46.2834 93.8216C46.6101 94.1105 47.112 94.3401 47.7891 94.5106L49.4368 94.9154C50.3506 95.1379 51.0348 95.4907 51.4893 95.9736C51.9486 96.4566 52.1783 97.0626 52.1783 97.7918C52.1783 98.4073 52.0078 98.9542 51.6669 99.4324C51.326 99.9107 50.8501 100.287 50.2393 100.562C49.6333 100.832 48.9302 100.967 48.13 100.967C47.0646 100.967 46.1863 100.727 45.495 100.249C44.8037 99.7662 44.361 99.0702 44.1669 98.1611L45.3814 97.8628C45.5376 98.5115 45.843 99.0016 46.2976 99.333C46.7569 99.6644 47.3606 99.8302 48.1087 99.8302C48.9467 99.8302 49.6167 99.6431 50.1186 99.2691C50.6205 98.8903 50.8714 98.4168 50.8714 97.8486C50.8714 97.4083 50.7247 97.039 50.4311 96.7407C50.1375 96.4376 49.6925 96.2151 49.0959 96.0731L47.3132 95.6469C46.3662 95.4197 45.6655 95.0598 45.2109 94.5674C44.7564 94.075 44.5291 93.4642 44.5291 92.735C44.5291 92.1337 44.6925 91.6057 45.0192 91.1512C45.3459 90.6919 45.7957 90.3321 46.3686 90.0716C46.9415 89.8112 47.5949 89.681 48.3288 89.681C49.3279 89.681 50.1257 89.9083 50.7223 90.3628C51.3236 90.8126 51.7569 91.4329 52.022 92.2236ZM59.2433 89.8302V90.931H54.0373V89.8302H59.2433ZM55.6637 87.2165H56.935V97.8912C56.935 98.3458 57.0131 98.7033 57.1694 98.9637C57.3256 99.2194 57.5292 99.4017 57.7802 99.5106C58.0311 99.6147 58.2987 99.6668 58.5827 99.6668C58.7485 99.6668 58.8905 99.6573 59.0089 99.6384C59.1272 99.6147 59.2314 99.5911 59.3214 99.5674L59.5913 100.711C59.4682 100.758 59.3166 100.801 59.1367 100.839C58.9568 100.881 58.7343 100.903 58.4691 100.903C58.0051 100.903 57.5576 100.801 57.1268 100.597C56.7006 100.394 56.3503 100.091 56.0756 99.6881C55.801 99.2857 55.6637 98.7861 55.6637 98.1895V87.2165ZM69.3445 100.739V101.932H60.4098V100.739H69.3445ZM72.1321 96.6199L72.1179 94.9651H72.402L77.5156 89.8302H79.1136L74.0639 94.887L73.9503 94.9083L72.1321 96.6199ZM70.9815 100.739V86.1938H72.2457V100.739H70.9815ZM77.7784 100.739L73.3466 95.1356L74.2557 94.262L79.3977 100.739H77.7784ZM85.2802 100.967C84.3379 100.967 83.5046 100.727 82.7802 100.249C82.0605 99.771 81.497 99.1105 81.0898 98.2677C80.6826 97.4201 80.479 96.4424 80.479 95.3344C80.479 94.217 80.6826 93.2345 81.0898 92.387C81.497 91.5347 82.0605 90.8718 82.7802 90.3983C83.5046 89.9201 84.3379 89.681 85.2802 89.681C86.2224 89.681 87.0534 89.9201 87.7731 90.3983C88.4928 90.8766 89.0562 91.5394 89.4634 92.387C89.8754 93.2345 90.0813 94.217 90.0813 95.3344C90.0813 96.4424 89.8777 97.4201 89.4705 98.2677C89.0633 99.1105 88.4975 99.771 87.7731 100.249C87.0534 100.727 86.2224 100.967 85.2802 100.967ZM85.2802 99.8089C86.0378 99.8089 86.6793 99.6053 87.2049 99.1981C87.7305 98.7909 88.1282 98.2487 88.3981 97.5716C88.6727 96.8946 88.81 96.1488 88.81 95.3344C88.81 94.52 88.6727 93.7719 88.3981 93.0901C88.1282 92.4083 87.7305 91.8614 87.2049 91.4495C86.6793 91.0376 86.0378 90.8316 85.2802 90.8316C84.5273 90.8316 83.8858 91.0376 83.3555 91.4495C82.8299 91.8614 82.4298 92.4083 82.1552 93.0901C81.8853 93.7719 81.7504 94.52 81.7504 95.3344C81.7504 96.1488 81.8853 96.8946 82.1552 97.5716C82.4298 98.2487 82.8299 98.7909 83.3555 99.1981C83.881 99.6053 84.5226 99.8089 85.2802 99.8089ZM92.8565 100.739V89.8302H94.0852V91.5063H94.1776C94.3954 90.9571 94.7741 90.5144 95.3139 90.1782C95.8584 89.8373 96.474 89.6668 97.1605 89.6668C97.2647 89.6668 97.3807 89.6692 97.5085 89.6739C97.6364 89.6787 97.7429 89.6834 97.8281 89.6881V90.9736C97.7713 90.9642 97.6719 90.95 97.5298 90.931C97.3878 90.9121 97.2339 90.9026 97.0682 90.9026C96.5 90.9026 95.9934 91.0233 95.5483 91.2648C95.108 91.5016 94.7599 91.8306 94.5043 92.252C94.2486 92.6734 94.1207 93.154 94.1207 93.6938V100.739H92.8565ZM103.893 100.967C102.951 100.967 102.118 100.727 101.393 100.249C100.674 99.771 100.11 99.1105 99.7031 98.2677C99.2959 97.4201 99.0923 96.4424 99.0923 95.3344C99.0923 94.217 99.2959 93.2345 99.7031 92.387C100.11 91.5347 100.674 90.8718 101.393 90.3983C102.118 89.9201 102.951 89.681 103.893 89.681C104.836 89.681 105.667 89.9201 106.386 90.3983C107.106 90.8766 107.67 91.5394 108.077 92.387C108.489 93.2345 108.695 94.217 108.695 95.3344C108.695 96.4424 108.491 97.4201 108.084 98.2677C107.677 99.1105 107.111 99.771 106.386 100.249C105.667 100.727 104.836 100.967 103.893 100.967ZM103.893 99.8089C104.651 99.8089 105.293 99.6053 105.818 99.1981C106.344 98.7909 106.741 98.2487 107.011 97.5716C107.286 96.8946 107.423 96.1488 107.423 95.3344C107.423 94.52 107.286 93.7719 107.011 93.0901C106.741 92.4083 106.344 91.8614 105.818 91.4495C105.293 91.0376 104.651 90.8316 103.893 90.8316C103.141 90.8316 102.499 91.0376 101.969 91.4495C101.443 91.8614 101.043 92.4083 100.768 93.0901C100.499 93.7719 100.364 94.52 100.364 95.3344C100.364 96.1488 100.499 96.8946 100.768 97.5716C101.043 98.2487 101.443 98.7909 101.969 99.1981C102.494 99.6053 103.136 99.8089 103.893 99.8089ZM112.734 93.9211V100.739H111.47V89.8302H112.699V91.5418H112.812C113.068 90.9831 113.466 90.5357 114.005 90.1995C114.55 89.8586 115.222 89.6881 116.022 89.6881C116.756 89.6881 117.4 89.842 117.954 90.1498C118.513 90.4528 118.946 90.9002 119.254 91.4921C119.566 92.084 119.723 92.8108 119.723 93.6725V100.739H118.458V93.7506C118.458 92.8557 118.208 92.1479 117.706 91.627C117.208 91.1062 116.541 90.8458 115.703 90.8458C115.13 90.8458 114.621 90.9689 114.176 91.2151C113.731 91.4613 113.378 91.8164 113.118 92.2805C112.862 92.7397 112.734 93.2866 112.734 93.9211ZM126.099 100.988C125.441 100.988 124.839 100.86 124.295 100.604C123.75 100.344 123.317 99.9698 122.995 99.4822C122.673 98.9897 122.512 98.3931 122.512 97.6924C122.512 97.1526 122.614 96.6981 122.817 96.3287C123.021 95.9594 123.31 95.6564 123.684 95.4197C124.058 95.1829 124.501 94.9959 125.012 94.8586C125.523 94.7213 126.087 94.6147 126.702 94.539C127.313 94.4632 127.829 94.3969 128.251 94.3401C128.677 94.2833 129.001 94.1933 129.224 94.0702C129.446 93.9471 129.558 93.7483 129.558 93.4736V93.218C129.558 92.4746 129.335 91.8898 128.89 91.4637C128.45 91.0328 127.815 90.8174 126.987 90.8174C126.201 90.8174 125.559 90.9902 125.062 91.3358C124.569 91.6815 124.224 92.0887 124.025 92.5574L122.825 92.1242C123.071 91.5276 123.412 91.0518 123.847 90.6966C124.283 90.3368 124.771 90.0787 125.31 89.9225C125.85 89.7615 126.397 89.681 126.951 89.681C127.368 89.681 127.801 89.7355 128.251 89.8444C128.705 89.9533 129.127 90.1427 129.515 90.4126C129.903 90.6777 130.218 91.0494 130.46 91.5276C130.701 92.0011 130.822 92.6024 130.822 93.3316V100.739H129.558V99.0134H129.479C129.328 99.3354 129.103 99.6479 128.805 99.9509C128.506 100.254 128.132 100.503 127.683 100.697C127.233 100.891 126.705 100.988 126.099 100.988ZM126.269 99.8302C126.942 99.8302 127.524 99.681 128.016 99.3827C128.509 99.0844 128.888 98.6891 129.153 98.1966C129.423 97.6995 129.558 97.1526 129.558 96.556V94.9793C129.463 95.0693 129.304 95.1498 129.082 95.2208C128.864 95.2918 128.611 95.3557 128.322 95.4126C128.038 95.4646 127.754 95.5096 127.469 95.5475C127.185 95.5854 126.93 95.6185 126.702 95.6469C126.087 95.7227 125.561 95.8411 125.126 96.002C124.69 96.163 124.356 96.3856 124.124 96.6697C123.892 96.949 123.776 97.3089 123.776 97.7492C123.776 98.4121 124.013 98.9258 124.487 99.2904C124.96 99.6502 125.554 99.8302 126.269 99.8302ZM35.5909 128.83V113.83H36.8196V115.911H36.9688C37.1203 115.584 37.3286 115.251 37.5938 114.91C37.8589 114.564 38.2093 114.273 38.6449 114.036C39.0852 113.799 39.6392 113.681 40.3068 113.681C41.2064 113.681 41.9924 113.918 42.6648 114.391C43.3419 114.86 43.8674 115.518 44.2415 116.366C44.6203 117.208 44.8097 118.191 44.8097 119.313C44.8097 120.44 44.6203 121.427 44.2415 122.275C43.8674 123.122 43.3419 123.783 42.6648 124.256C41.9924 124.73 41.2112 124.967 40.321 124.967C39.6629 124.967 39.1113 124.848 38.6662 124.611C38.2259 124.375 37.8684 124.083 37.5938 123.738C37.3239 123.387 37.1155 123.047 36.9688 122.715H36.8551V128.83H35.5909ZM36.8409 119.292C36.8409 120.172 36.9711 120.954 37.2315 121.636C37.4967 122.313 37.8755 122.845 38.3679 123.234C38.8651 123.617 39.4664 123.809 40.1719 123.809C40.8963 123.809 41.5071 123.61 42.0043 123.212C42.5062 122.81 42.8873 122.268 43.1477 121.586C43.4129 120.904 43.5455 120.139 43.5455 119.292C43.5455 118.454 43.4152 117.699 43.1548 117.026C42.8991 116.354 42.5204 115.821 42.0185 115.428C41.5166 115.03 40.901 114.832 40.1719 114.832C39.4616 114.832 38.858 115.023 38.3608 115.407C37.8636 115.786 37.4848 116.311 37.2244 116.984C36.9688 117.651 36.8409 118.421 36.8409 119.292ZM47.5831 124.739V113.83H48.8118V115.506H48.9041C49.1219 114.957 49.5007 114.514 50.0405 114.178C50.585 113.837 51.2005 113.667 51.8871 113.667C51.9912 113.667 52.1072 113.669 52.2351 113.674C52.3629 113.679 52.4695 113.683 52.5547 113.688V114.974C52.4979 114.964 52.3984 114.95 52.2564 114.931C52.1143 114.912 51.9605 114.903 51.7947 114.903C51.2266 114.903 50.7199 115.023 50.2749 115.265C49.8345 115.502 49.4865 115.831 49.2308 116.252C48.9751 116.673 48.8473 117.154 48.8473 117.694V124.739H47.5831ZM58.62 124.967C57.6778 124.967 56.8445 124.727 56.12 124.249C55.4003 123.771 54.8369 123.11 54.4297 122.268C54.0225 121.42 53.8189 120.442 53.8189 119.334C53.8189 118.217 54.0225 117.235 54.4297 116.387C54.8369 115.535 55.4003 114.872 56.12 114.398C56.8445 113.92 57.6778 113.681 58.62 113.681C59.5623 113.681 60.3932 113.92 61.1129 114.398C61.8326 114.877 62.3961 115.539 62.8033 116.387C63.2152 117.235 63.4212 118.217 63.4212 119.334C63.4212 120.442 63.2176 121.42 62.8104 122.268C62.4032 123.11 61.8374 123.771 61.1129 124.249C60.3932 124.727 59.5623 124.967 58.62 124.967ZM58.62 123.809C59.3776 123.809 60.0192 123.605 60.5447 123.198C61.0703 122.791 61.468 122.249 61.7379 121.572C62.0125 120.895 62.1499 120.149 62.1499 119.334C62.1499 118.52 62.0125 117.772 61.7379 117.09C61.468 116.408 61.0703 115.861 60.5447 115.449C60.0192 115.038 59.3776 114.832 58.62 114.832C57.8672 114.832 57.2256 115.038 56.6953 115.449C56.1697 115.861 55.7696 116.408 55.495 117.09C55.2251 117.772 55.0902 118.52 55.0902 119.334C55.0902 120.149 55.2251 120.895 55.495 121.572C55.7696 122.249 56.1697 122.791 56.6953 123.198C57.2209 123.605 57.8625 123.809 58.62 123.809ZM66.2106 113.83H67.4819V125.797C67.4819 126.418 67.3659 126.953 67.1339 127.403C66.9066 127.857 66.5752 128.208 66.1396 128.454C65.704 128.705 65.1784 128.83 64.5629 128.83C64.5155 128.83 64.4682 128.83 64.4208 128.83C64.3735 128.83 64.3214 128.828 64.2646 128.823L64.2788 127.637C64.3261 127.637 64.3711 127.637 64.4137 127.637C64.4563 127.637 64.5013 127.637 64.5487 127.637C65.0695 127.637 65.4767 127.476 65.7702 127.154C66.0638 126.832 66.2106 126.38 66.2106 125.797V113.83ZM66.8356 111.955C66.5799 111.955 66.3574 111.868 66.168 111.692C65.9833 111.512 65.891 111.297 65.891 111.046C65.891 110.795 65.9833 110.582 66.168 110.407C66.3574 110.227 66.5799 110.137 66.8356 110.137C67.096 110.137 67.3185 110.227 67.5032 110.407C67.6926 110.582 67.7873 110.795 67.7873 111.046C67.7873 111.297 67.6926 111.512 67.5032 111.692C67.3185 111.868 67.096 111.955 66.8356 111.955ZM75.2358 124.967C74.2178 124.967 73.3371 124.73 72.5938 124.256C71.8504 123.778 71.2751 123.118 70.8679 122.275C70.4654 121.427 70.2642 120.452 70.2642 119.349C70.2642 118.25 70.4654 117.275 70.8679 116.422C71.2751 115.565 71.8362 114.896 72.5511 114.413C73.2708 113.925 74.1018 113.681 75.044 113.681C75.6359 113.681 76.2064 113.79 76.7557 114.008C77.3049 114.221 77.7973 114.55 78.233 114.995C78.6733 115.435 79.0213 115.992 79.277 116.664C79.5327 117.332 79.6605 118.122 79.6605 119.036V119.661H71.1378V118.546H78.3679C78.3679 117.845 78.2259 117.216 77.9418 116.657C77.6624 116.093 77.2718 115.648 76.7699 115.322C76.2727 114.995 75.6974 114.832 75.044 114.832C74.3527 114.832 73.7443 115.016 73.2188 115.386C72.6932 115.755 72.2813 116.243 71.983 116.849C71.6894 117.455 71.5402 118.118 71.5355 118.837V119.505C71.5355 120.371 71.6847 121.129 71.983 121.778C72.286 122.422 72.7145 122.921 73.2685 123.276C73.8224 123.631 74.4782 123.809 75.2358 123.809C75.7519 123.809 76.2041 123.728 76.5923 123.567C76.9853 123.406 77.3144 123.191 77.5795 122.921C77.8494 122.646 78.053 122.346 78.1903 122.019L79.3906 122.41C79.2249 122.869 78.9527 123.293 78.5739 123.681C78.1998 124.069 77.7311 124.382 77.1676 124.619C76.6089 124.851 75.965 124.967 75.2358 124.967ZM86.7077 124.967C85.7324 124.967 84.8825 124.723 84.158 124.235C83.4383 123.747 82.8796 123.08 82.4819 122.232C82.0842 121.385 81.8853 120.419 81.8853 119.334C81.8853 118.241 82.0865 117.268 82.489 116.415C82.8962 115.563 83.4596 114.896 84.1793 114.413C84.899 113.925 85.7347 113.681 86.6864 113.681C87.4156 113.681 88.0761 113.823 88.668 114.107C89.2598 114.387 89.7475 114.782 90.131 115.293C90.5193 115.8 90.7631 116.392 90.8626 117.069H89.5842C89.4516 116.453 89.132 115.928 88.6254 115.492C88.1235 115.052 87.4843 114.832 86.7077 114.832C86.0117 114.832 85.3962 115.021 84.8612 115.4C84.3261 115.774 83.9071 116.297 83.604 116.969C83.3058 117.637 83.1566 118.411 83.1566 119.292C83.1566 120.177 83.3034 120.961 83.5969 121.643C83.8905 122.32 84.3024 122.85 84.8327 123.234C85.3678 123.617 85.9928 123.809 86.7077 123.809C87.1907 123.809 87.631 123.719 88.0288 123.539C88.4312 123.354 88.7674 123.094 89.0373 122.758C89.3119 122.422 89.4966 122.021 89.5913 121.557H90.8697C90.775 122.216 90.5406 122.803 90.1665 123.319C89.7972 123.83 89.3166 124.233 88.7248 124.526C88.1377 124.82 87.4653 124.967 86.7077 124.967ZM97.8761 113.83V114.931H92.6701V113.83H97.8761ZM94.2965 111.217H95.5678V121.891C95.5678 122.346 95.646 122.703 95.8022 122.964C95.9585 123.219 96.1621 123.402 96.413 123.511C96.6639 123.615 96.9315 123.667 97.2156 123.667C97.3813 123.667 97.5233 123.657 97.6417 123.638C97.7601 123.615 97.8642 123.591 97.9542 123.567L98.2241 124.711C98.101 124.758 97.9495 124.801 97.7695 124.839C97.5896 124.881 97.3671 124.903 97.1019 124.903C96.6379 124.903 96.1905 124.801 95.7596 124.597C95.3335 124.394 94.9831 124.091 94.7085 123.688C94.4338 123.286 94.2965 122.786 94.2965 122.19V111.217Z" fill="white"/>
<defs>
<linearGradient id="paint0_linear_382_3630" x1="100.544" y1="70.9045" x2="29.7735" y2="0.0941712" gradientUnits="userSpaceOnUse">
<stop stop-color="white"/>
<stop offset="0.21" stop-color="#FCBB45"/>
<stop offset="0.38" stop-color="#F75274"/>
<stop offset="0.52" stop-color="#D53692"/>
<stop offset="0.74" stop-color="#8F39CE"/>
<stop offset="1" stop-color="#5B4FE9"/>
</linearGradient>
<clipPath id="clip0_382_3630">
<rect width="71" height="71" fill="white" transform="translate(31 0.672363)"/>
</clipPath>
</defs>
</svg>
