<svg width="216" height="102" viewBox="0 0 216 102" fill="none" xmlns="http://www.w3.org/2000/svg">
<mask id="mask0_201_13745" style="mask-type:luminance" maskUnits="userSpaceOnUse" x="23" y="19" width="170" height="65">
<path d="M170.66 63.3501C164.559 63.3501 159.602 58.0755 159.602 51.1996C159.602 44.3237 164.534 38.7949 170.66 38.7949C176.786 38.7949 181.717 44.3109 181.717 51.1996C181.717 58.0882 176.76 63.3501 170.66 63.3501ZM126.837 63.3501C120.736 63.3501 115.779 58.0755 115.779 51.1996C115.779 44.3237 120.711 38.7949 126.837 38.7949C132.963 38.7949 137.894 44.3109 137.894 51.1996C137.894 58.0882 132.963 63.3501 126.837 63.3501ZM71.8545 49.8778C72.6044 42.5443 78.0569 37.8798 84.399 38.312C87.9196 38.5534 90.8301 40.1803 92.6603 42.7349L71.8545 49.8778ZM170.66 28.4492C159.361 28.4492 150.985 36.1005 148.939 46.2555V19.3745H137.881V33.6475C134.539 30.2032 130.345 28.6145 125.235 28.6145C115.106 28.6145 106.603 36.736 104.938 47.3231C103.349 36.1386 95.2658 29.3262 85.1489 28.6272C74.1169 27.8773 64.3939 35.6048 62.0299 46.3191V28.8178H50.9725V43.9805C50.9725 48.8356 47.5282 52.4451 42.5968 52.4451C35.3904 52.4451 34.5643 46.4207 34.5643 43.9805V28.8178H23.5069V43.9805C23.5069 55.2794 30.5353 62.8925 41.0971 62.8925C45.0244 62.8925 48.367 61.5453 50.9852 59.3719V64.405C50.9852 68.4339 48.8881 72.7044 42.8637 72.7044C39.1017 72.7044 36.2547 71.1157 35.5938 67.9255H24.1169C25.6294 76.8096 33.4204 83.0119 42.8891 83.0119C54.4423 83.0119 62.0681 75.2972 62.0681 63.6551V56.3216C62.5383 58.406 63.2755 60.3633 64.2669 62.1935C67.762 68.6627 74.3075 73.2128 82.0858 73.7466C92.7874 74.4838 100.795 69.0567 103.896 60.465L92.1265 59.6515C90.0421 62.9561 86.2673 64.2779 82.6705 64.0364C78.9465 63.7695 75.8073 61.9011 73.85 58.8762C73.8372 58.8508 73.8118 58.8381 73.8118 58.8127L97.49 50.7039L104.862 48.1493C104.747 49.1152 104.696 50.0938 104.696 51.0979C104.696 63.5661 113.822 73.6195 126.888 73.6195C138.644 73.6195 147.236 65.3836 148.748 54.555C150.286 65.3074 158.878 73.5432 169.198 73.5432C174.396 73.5432 179.086 71.6876 182.353 68.1035V72.6154H192.825V51.1106C192.775 38.6424 183.636 28.4365 170.66 28.4365V28.4492Z" fill="white"/>
</mask>
<g mask="url(#mask0_201_13745)">
<mask id="mask1_201_13745" style="mask-type:luminance" maskUnits="userSpaceOnUse" x="-121" y="-254" width="459" height="2055">
<path d="M337.042 -253.858H-120.507V1800.03H337.042V-253.858Z" fill="white"/>
</mask>
<g mask="url(#mask1_201_13745)">
<path d="M199.18 13.0073H17.1774V89.3545H199.18V13.0073Z" fill="white"/>
</g>
</g>
<mask id="mask2_201_13745" style="mask-type:luminance" maskUnits="userSpaceOnUse" x="0" y="0" width="23" height="23">
<path d="M7.5053 0.525879H0.400574V22.5645H7.5053V7.66874H22.5536V0.564006H7.5053V0.525879Z" fill="white"/>
</mask>
<g mask="url(#mask2_201_13745)">
<mask id="mask3_201_13745" style="mask-type:luminance" maskUnits="userSpaceOnUse" x="-121" y="-254" width="459" height="2055">
<path d="M337.042 -253.858H-120.507V1800.03H337.042V-253.858Z" fill="white"/>
</mask>
<g mask="url(#mask3_201_13745)">
<path d="M28.9084 -5.8291H-5.95427V28.9192H28.9084V-5.8291Z" fill="white"/>
</g>
</g>
<mask id="mask4_201_13745" style="mask-type:luminance" maskUnits="userSpaceOnUse" x="193" y="0" width="23" height="23">
<path d="M193.651 0.462402V7.55439H208.547V22.6154H215.626V7.55439H215.69V0.462402H193.651Z" fill="white"/>
</mask>
<g mask="url(#mask4_201_13745)">
<mask id="mask5_201_13745" style="mask-type:luminance" maskUnits="userSpaceOnUse" x="-121" y="-254" width="459" height="2055">
<path d="M337.042 -253.858H-120.507V1800.03H337.042V-253.858Z" fill="white"/>
</mask>
<g mask="url(#mask5_201_13745)">
<path d="M222.045 -5.89209H187.297V28.9706H222.045V-5.89209Z" fill="white"/>
</g>
</g>
<mask id="mask6_201_13745" style="mask-type:luminance" maskUnits="userSpaceOnUse" x="193" y="79" width="23" height="23">
<path d="M208.585 94.679H193.537V101.784H208.585V101.822H215.69V79.7832H208.585V94.679Z" fill="white"/>
</mask>
<g mask="url(#mask6_201_13745)">
<mask id="mask7_201_13745" style="mask-type:luminance" maskUnits="userSpaceOnUse" x="-121" y="-254" width="459" height="2055">
<path d="M337.042 -253.859H-120.507V1800.03H337.042V-253.859Z" fill="white"/>
</mask>
<g mask="url(#mask7_201_13745)">
<path d="M222.045 73.4277H187.182V108.176H222.045V73.4277Z" fill="white"/>
</g>
</g>
<mask id="mask8_201_13745" style="mask-type:luminance" maskUnits="userSpaceOnUse" x="0" y="79" width="23" height="23">
<path d="M7.54342 79.7329H0.464126V94.7939H0.400574V101.886H22.4392V94.7939H7.54342V79.7329Z" fill="white"/>
</mask>
<g mask="url(#mask8_201_13745)">
<mask id="mask9_201_13745" style="mask-type:luminance" maskUnits="userSpaceOnUse" x="-121" y="-254" width="459" height="2055">
<path d="M337.042 -253.858H-120.507V1800.03H337.042V-253.858Z" fill="white"/>
</mask>
<g mask="url(#mask9_201_13745)">
<path d="M28.794 73.3784H-5.95427V108.241H28.794V73.3784Z" fill="white"/>
</g>
</g>
</svg>
