<svg width="24" height="25" viewBox="0 0 24 25" fill="none" xmlns="http://www.w3.org/2000/svg">
<g clip-path="url(#clip0_296_1365)">
<path d="M12 2.18555C17.523 2.18555 22 6.66255 22 12.1855C22 17.2945 18.17 21.5075 13.224 22.1115V15.4405H15.824L16.212 12.4215H13.223V10.4955C13.223 9.62255 13.466 9.02655 14.719 9.02655H16.318V6.32655C15.5441 6.24414 14.7663 6.20408 13.988 6.20655C11.684 6.20655 10.106 7.61355 10.106 10.1965V12.4225H7.5V15.4415H10.106V22.0075C5.49 21.1215 2 17.0615 2 12.1855C2 6.66255 6.477 2.18555 12 2.18555Z" fill="#333333"/>
</g>
<defs>
<clipPath id="clip0_296_1365">
<rect width="24" height="24" fill="white" transform="translate(0 0.148438)"/>
</clipPath>
</defs>
</svg>
