<svg width="24" height="25" viewBox="0 0 24 25" fill="none" xmlns="http://www.w3.org/2000/svg">
<path d="M3.36364 19.6503H6.54545V11.923L2 8.51389V18.2866C2 19.0412 2.61136 19.6503 3.36364 19.6503Z" fill="#333333"/>
<path d="M17.4545 19.6503H20.6364C21.3909 19.6503 22 19.0389 22 18.2866V8.51389L17.4545 11.923" fill="#333333"/>
<path d="M17.4545 6.01399V11.923L22 8.51389V6.69581C22 5.00944 20.075 4.04808 18.7273 5.05944" fill="#333333"/>
<path d="M6.54545 11.923L6.54545 6.01389L12 10.1048L17.4545 6.01399V11.923L12 16.0139" fill="#333333"/>
<path d="M2 6.69581V8.51389L6.54545 11.923L6.54545 6.01389L5.27273 5.05944C3.92273 4.04808 2 5.00944 2 6.69581Z" fill="#333333"/>
</svg>
