<svg width="41" height="41" viewBox="0 0 41 41" fill="none" xmlns="http://www.w3.org/2000/svg">
<path d="M10.3089 28.7665H14.0147V19.7668L8.7207 15.7963V27.1783C8.7207 28.0571 9.43274 28.7665 10.3089 28.7665Z" fill="#333333"/>
<path d="M26.7202 28.7665H30.426C31.3048 28.7665 32.0142 28.0545 32.0142 27.1783V15.7963L26.7202 19.7668" fill="#333333"/>
<path d="M26.7202 12.8847V19.7668L32.0142 15.7963V13.6788C32.0142 11.7147 29.7722 10.595 28.2026 11.773" fill="#333333"/>
<path d="M14.0147 19.7668L14.0147 12.8846L20.3675 17.6492L26.7202 12.8847V19.7668L20.3675 24.5313" fill="#333333"/>
<path d="M8.7207 13.6788V15.7963L14.0147 19.7668L14.0147 12.8846L12.5324 11.773C10.9601 10.595 8.7207 11.7147 8.7207 13.6788Z" fill="#333333"/>
</svg>
