<svg width="41" height="41" viewBox="0 0 41 41" fill="none" xmlns="http://www.w3.org/2000/svg">
<path fill-rule="evenodd" clip-rule="evenodd" d="M11.1361 9.29199C10.2442 9.29199 9.52075 9.99344 9.52075 10.8576V29.5832C9.52075 30.4474 10.2443 31.1483 11.1361 31.1483H29.7617C30.6539 31.1483 31.377 30.4473 31.377 29.5829V10.8576C31.377 9.99344 30.6539 9.29199 29.7617 9.29199H11.1361ZM16.1625 17.7431V27.5829H12.8919V17.7431H16.1625ZM16.3781 14.7C16.3781 15.6443 15.6682 16.3999 14.5279 16.3999L14.5064 16.3998C13.4088 16.3998 12.6991 15.6442 12.6991 14.7C12.6991 13.7343 13.4302 12.9998 14.5496 12.9998C15.6682 12.9998 16.3567 13.7343 16.3781 14.7ZM21.2431 27.5829H17.9728C17.9728 27.5829 18.0157 18.6665 17.973 17.7434H21.2434V19.1362C21.6781 18.4659 22.4562 17.5124 24.191 17.5124C26.3427 17.5124 27.956 18.9188 27.956 21.941V27.5829H24.6858V22.3194C24.6858 20.9965 24.2122 20.0943 23.029 20.0943C22.1253 20.0943 21.5872 20.7028 21.3509 21.2906C21.2645 21.5003 21.2431 21.7948 21.2431 22.0885V27.5829Z" fill="#333333"/>
</svg>
