<svg width="24" height="25" viewBox="0 0 24 25" fill="none" xmlns="http://www.w3.org/2000/svg">
<path fill-rule="evenodd" clip-rule="evenodd" d="M3.47812 2.14844C2.66203 2.14844 2 2.79031 2 3.58109V20.7163C2 21.5071 2.66211 22.1484 3.47812 22.1484H20.5219C21.3383 22.1484 22 21.507 22 20.716V3.58109C22 2.79031 21.3383 2.14844 20.5219 2.14844H3.47812ZM8.07765 9.88179V18.8859H5.08483V9.88179H8.07765ZM8.27491 7.09718C8.27491 7.96124 7.6253 8.65265 6.58186 8.65265L6.56225 8.65257C5.5578 8.65257 4.90843 7.96116 4.90843 7.0971C4.90843 6.21343 5.57741 5.54132 6.60171 5.54132C7.6253 5.54132 8.25538 6.21343 8.27491 7.09718ZM12.7268 18.8859H9.73421C9.73421 18.8859 9.77343 10.7268 9.73436 9.8821H12.727V11.1566C13.1248 10.5432 13.8368 9.67069 15.4243 9.67069C17.3933 9.67069 18.8695 10.9576 18.8695 13.7232V18.8859H15.877V14.0694C15.877 12.8589 15.4437 12.0333 14.361 12.0333C13.5341 12.0333 13.0416 12.5901 12.8254 13.128C12.7463 13.3199 12.7268 13.5894 12.7268 13.8581V18.8859Z" fill="#333333"/>
</svg>
