<svg width="24" height="25" viewBox="0 0 24 25" fill="none" xmlns="http://www.w3.org/2000/svg">
<path d="M2.00806 22.1484L3.44301 16.8177C2.28576 14.7411 1.91808 12.3179 2.40747 9.99268C2.89685 7.6675 4.21045 5.59634 6.10723 4.15926C8.00401 2.72217 10.3567 2.01556 12.7337 2.16908C15.1106 2.32261 17.3523 3.32597 19.0475 4.99505C20.7426 6.66413 21.7775 8.88698 21.9621 11.2557C22.1468 13.6244 21.4689 15.9801 20.0528 17.8905C18.6367 19.8009 16.5774 21.1378 14.2528 21.656C11.9283 22.1742 9.49431 21.8388 7.39761 20.7115L2.00806 22.1484ZM7.65748 18.7167L7.9908 18.9139C9.50948 19.8118 11.2833 20.1833 13.0358 19.9707C14.7883 19.758 16.421 18.9731 17.6796 17.7382C18.9381 16.5033 19.7518 14.8878 19.9938 13.1435C20.2357 11.3992 19.8924 9.62408 19.0174 8.09471C18.1423 6.56534 16.7846 5.36766 15.1559 4.68831C13.5271 4.00896 11.7188 3.8861 10.0128 4.33888C8.3067 4.79167 6.79872 5.79466 5.72382 7.19155C4.64892 8.58844 4.06748 10.3008 4.0701 12.0617C4.06867 13.5218 4.4735 14.9536 5.23953 16.1978L5.44856 16.5416L4.64634 19.5169L7.65748 18.7167Z" fill="#333333"/>
<path fill-rule="evenodd" clip-rule="evenodd" d="M15.7473 13.4305C15.5519 13.2733 15.3231 13.1626 15.0784 13.107C14.8336 13.0513 14.5793 13.0521 14.3349 13.1093C13.9677 13.2614 13.7305 13.8362 13.4932 14.1236C13.4431 14.1925 13.3696 14.2408 13.2864 14.2595C13.2032 14.2782 13.116 14.2659 13.0412 14.225C11.6969 13.6998 10.57 12.7367 9.84365 11.492C9.7817 11.4144 9.75238 11.3157 9.76187 11.2169C9.77135 11.1181 9.8189 11.0269 9.8945 10.9623C10.1591 10.701 10.3534 10.3774 10.4594 10.0213C10.483 9.62853 10.3928 9.2373 10.1996 8.89427C10.0502 8.41335 9.76596 7.98513 9.3804 7.66019C9.18154 7.57098 8.96105 7.54107 8.74553 7.57407C8.53 7.60706 8.32866 7.70156 8.16577 7.84615C7.883 8.0895 7.65856 8.39301 7.50897 8.73434C7.35937 9.07567 7.28845 9.44613 7.30141 9.81842C7.30228 10.0275 7.32885 10.2357 7.3805 10.4383C7.51169 10.9251 7.71343 11.3902 7.97934 11.8189C8.17119 12.1472 8.38052 12.4651 8.60643 12.7712C9.3406 13.7765 10.2635 14.63 11.3238 15.2844C11.8559 15.617 12.4246 15.8874 13.0186 16.0902C13.6357 16.3693 14.3171 16.4764 14.9903 16.4002C15.3739 16.3423 15.7373 16.1912 16.0486 15.9603C16.3599 15.7294 16.6095 15.4257 16.7755 15.0759C16.873 14.8646 16.9026 14.6284 16.8602 14.3997C16.7586 13.932 16.1315 13.6559 15.7473 13.4305Z" fill="#333333"/>
</svg>
