<svg width="41" height="41" viewBox="0 0 41 41" fill="none" xmlns="http://www.w3.org/2000/svg">
<path d="M10.3208 30.0918L11.7558 24.761C10.5985 22.6844 10.2308 20.2612 10.7202 17.936C11.2096 15.6109 12.5232 13.5397 14.42 12.1026C16.3168 10.6655 18.6695 9.95892 21.0464 10.1124C23.4234 10.266 25.6651 11.2693 27.3602 12.9384C29.0554 14.6075 30.0902 16.8303 30.2749 19.199C30.4595 21.5678 29.7816 23.9234 28.3655 25.8338C26.9494 27.7442 24.8902 29.0812 22.5656 29.5994C20.241 30.1175 17.8071 29.7822 15.7104 28.6549L10.3208 30.0918ZM15.9702 26.66L16.3035 26.8573C17.8222 27.7551 19.596 28.1267 21.3485 27.914C23.101 27.7014 24.7338 26.9164 25.9923 25.6816C27.2509 24.4467 28.0645 22.8312 28.3065 21.0869C28.5485 19.3426 28.2052 17.5674 27.3301 16.0381C26.455 14.5087 25.0973 13.311 23.4686 12.6317C21.8399 11.9523 20.0316 11.8295 18.3255 12.2822C16.6194 12.735 15.1115 13.738 14.0366 15.1349C12.9617 16.5318 12.3802 18.2441 12.3828 20.005C12.3814 21.4651 12.7862 22.897 13.5523 24.1412L13.7613 24.4849L12.9591 27.4602L15.9702 26.66Z" fill="#333333"/>
<path fill-rule="evenodd" clip-rule="evenodd" d="M24.06 21.3738C23.8646 21.2167 23.6359 21.106 23.3911 21.0503C23.1464 20.9947 22.8921 20.9955 22.6477 21.0527C22.2805 21.2048 22.0432 21.7796 21.8059 22.067C21.7559 22.1359 21.6824 22.1842 21.5992 22.2028C21.516 22.2215 21.4288 22.2093 21.354 22.1684C20.0096 21.6432 18.8827 20.68 18.1564 19.4354C18.0944 19.3577 18.0651 19.2591 18.0746 19.1603C18.0841 19.0615 18.1316 18.9702 18.2072 18.9057C18.4719 18.6444 18.6662 18.3207 18.7722 17.9646C18.7957 17.5719 18.7055 17.1807 18.5123 16.8376C18.363 16.3567 18.0787 15.9285 17.6931 15.6036C17.4943 15.5143 17.2738 15.4844 17.0583 15.5174C16.8427 15.5504 16.6414 15.6449 16.4785 15.7895C16.1957 16.0329 15.9713 16.3364 15.8217 16.6777C15.6721 17.019 15.6012 17.3895 15.6142 17.7618C15.615 17.9708 15.6416 18.179 15.6932 18.3816C15.8244 18.8685 16.0262 19.3336 16.2921 19.7622C16.4839 20.0906 16.6933 20.4085 16.9192 20.7145C17.6533 21.7198 18.5762 22.5734 19.6365 23.2278C20.1686 23.5603 20.7373 23.8307 21.3314 24.0336C21.9485 24.3126 22.6298 24.4197 23.303 24.3435C23.6866 24.2856 24.05 24.1346 24.3613 23.9036C24.6726 23.6727 24.9223 23.369 25.0882 23.0193C25.1858 22.808 25.2154 22.5718 25.173 22.3431C25.0713 21.8754 24.4442 21.5993 24.06 21.3738Z" fill="#333333"/>
</svg>
